<?xml version="1.0" encoding="UTF-8" standalone="no"?>
<!-- Created with Inkscape (http://www.inkscape.org/) -->

<svg
   xmlns:dc="http://purl.org/dc/elements/1.1/"
   xmlns:cc="http://creativecommons.org/ns#"
   xmlns:rdf="http://www.w3.org/1999/02/22-rdf-syntax-ns#"
   xmlns:svg="http://www.w3.org/2000/svg"
   xmlns="http://www.w3.org/2000/svg"
   xmlns:xlink="http://www.w3.org/1999/xlink"
   xmlns:sodipodi="http://sodipodi.sourceforge.net/DTD/sodipodi-0.dtd"
   xmlns:inkscape="http://www.inkscape.org/namespaces/inkscape"
   version="1.0"
   width="600"
   height="330"
   id="svg1337"
   sodipodi:version="0.32"
   inkscape:version="0.48.0 r9654"
   sodipodi:docname="Flag_of_EAC.svg">
  <metadata
     id="metadata1369">
    <rdf:RDF>
      <cc:Work
         rdf:about="">
        <dc:format>image/svg+xml</dc:format>
        <dc:type
           rdf:resource="http://purl.org/dc/dcmitype/StillImage" />
      </cc:Work>
    </rdf:RDF>
  </metadata>
  <sodipodi:namedview
     inkscape:window-height="538"
     inkscape:window-width="1024"
     inkscape:pageshadow="2"
     inkscape:pageopacity="0.0"
     borderopacity="1.0"
     bordercolor="#666666"
     pagecolor="#ffffff"
     id="base"
     inkscape:zoom="4.2043582"
     inkscape:cx="289.00297"
     inkscape:cy="178.93714"
     inkscape:window-x="-8"
     inkscape:window-y="-8"
     inkscape:current-layer="svg1337"
     showgrid="false"
     inkscape:window-maximized="1" />
  <defs
     id="defs1340" />
  <rect
     width="600"
     height="14.85"
     x="0"
     y="224.39999"
     style="fill:#ffffff;fill-opacity:1;fill-rule:nonzero;stroke:none;stroke-width:2.5;stroke-miterlimit:4;stroke-dasharray:none;stroke-opacity:1"
     id="rect2276" />
  <use
     transform="translate(0,-133.65)"
     id="use4024"
     x="0"
     y="0"
     width="600"
     height="330"
     xlink:href="#rect2276" />
  <rect
     width="600"
     height="90.75"
     x="0"
     y="239.25"
     style="fill:#0087ff;fill-opacity:1;fill-rule:nonzero;stroke:none;stroke-width:2.5;stroke-miterlimit:4;stroke-dasharray:none;stroke-opacity:1"
     id="rect1359" />
  <use
     transform="translate(0,-239.25)"
     id="use1363"
     x="0"
     y="0"
     width="600"
     height="330"
     xlink:href="#rect1359" />
  <rect
     width="600"
     height="24.75"
     x="0"
     y="199.64999"
     style="fill:#ff0000;fill-opacity:1;fill-rule:nonzero;stroke:none;stroke-width:2.5;stroke-miterlimit:4;stroke-dasharray:none;stroke-opacity:1"
     id="rect1399" />
  <rect
     width="600"
     height="24.75"
     x="0"
     y="105.6"
     style="fill:#000000;fill-opacity:1;fill-rule:nonzero;stroke:none;stroke-width:2.5;stroke-miterlimit:4;stroke-dasharray:none;stroke-opacity:1"
     id="rect1401" />
  <rect
     width="600"
     height="46.200001"
     x="0"
     y="141.89999"
     style="fill:#ffff00;fill-opacity:1;fill-rule:nonzero;stroke:none;stroke-width:2.5;stroke-miterlimit:4;stroke-dasharray:none;stroke-opacity:1"
     id="rect1355" />
  <rect
     width="600"
     height="11.55"
     x="0"
     y="188.10001"
     style="fill:#008300;fill-opacity:1;fill-rule:nonzero;stroke:none;stroke-width:2.5;stroke-miterlimit:4;stroke-dasharray:none;stroke-opacity:1"
     id="rect1351" />
  <use
     transform="translate(0,-57.75001)"
     id="use4028"
     x="0"
     y="0"
     width="600"
     height="330"
     xlink:href="#rect1351" />
  <g
     transform="matrix(0.465758,0,0,0.465758,204.6705,235.2512)"
     id="g26596">
    <path
       d="M 204.69207,-277.11606 C 148.95376,-277.11606 103.69206,-231.85436 103.69207,-176.11606 C 103.69207,-148.30912 114.95616,-123.13279 133.16082,-104.86606 L 89.910821,-91.053555 L 93.879571,-81.116055 L 79.942071,-78.147305 L 89.910821,-45.803561 L 319.47332,-45.803561 L 329.41082,-78.147305 L 315.47332,-81.116055 L 319.47332,-91.053555 L 276.19207,-104.86606 C 294.39673,-123.13279 305.66082,-148.30911 305.66082,-176.11606 C 305.66082,-231.85437 260.43038,-277.11607 204.69207,-277.11606 z "
       style="fill:#ffffff;fill-opacity:1;fill-rule:nonzero;stroke:#000000;stroke-width:2.5;stroke-miterlimit:4;stroke-opacity:1"
       id="path4073" />
    <g
       transform="translate(40.09434,52.08286)"
       id="g12864">
      <path
         d="M 52.112361,-129.62748 L 60.882282,-101.17333 L 268.30943,-101.17333 L 277.05184,-129.62748 L 52.112361,-129.62748 z "
         style="fill:#008300;fill-opacity:1;fill-rule:nonzero;stroke:none;stroke-width:1.86177754;stroke-miterlimit:4;stroke-opacity:1"
         id="path6707" />
      <path
         d="M 57.582105,-125.9629 L 64.082105,-104.8379 L 115.30085,-104.8379 L 213.86335,-104.8379 L 265.0821,-104.8379 L 271.5821,-125.9629 L 220.3321,-125.9629 L 108.80085,-125.9629 L 57.582105,-125.9629 z "
         style="fill:#ffffff;fill-opacity:1;fill-rule:nonzero;stroke:none;stroke-width:1.86177754;stroke-miterlimit:4;stroke-opacity:1"
         id="path8461" />
      <text
         x="67.162666"
         y="-104.85967"
         transform="scale(0.945059,1.058135)"
         style="font-size:12.69762516px;font-style:normal;font-variant:normal;font-weight:bold;font-stretch:normal;text-align:start;line-height:125%;writing-mode:lr-tb;text-anchor:start;fill:#000000;fill-opacity:1;stroke:none;stroke-width:1px;stroke-linecap:butt;stroke-linejoin:miter;stroke-opacity:1;font-family:Times New Roman"
         id="text8463"
         xml:space="preserve"><tspan
           x="67.162666"
           y="-104.85967"
           id="tspan8465">JUMUIYA YA AFRIKA MASHARIKI</tspan></text>
      <g
         id="g12852">
        <path
           d="M 52.112361,-129.61707 L 65.240719,-133.1348 L 61.09363,-140.31777 L 83.723675,-148.7861 L 83.723675,-141.09211 L 90.714216,-141.09211 L 90.714216,-129.26534 L 52.639949,-129.26534 L 52.112361,-129.61707 z "
           style="fill:#008300;fill-opacity:1;fill-rule:evenodd;stroke:none;stroke-width:1px;stroke-linecap:butt;stroke-linejoin:miter;stroke-opacity:1"
           id="path9350" />
        <path
           d="M 87.403744,-129.44121 L 59.881237,-129.44121 L 87.403744,-136.82251 L 87.403744,-129.44121 z "
           style="fill:#ffffff;fill-opacity:1;fill-rule:evenodd;stroke:none;stroke-width:1px;stroke-linecap:butt;stroke-linejoin:miter;stroke-opacity:1"
           id="path10225" />
        <path
           d="M 81.424414,-140.96022 L 68.938165,-140.96022 L 81.424414,-145.79644 L 81.424414,-140.96022 z "
           style="fill:#ffffff;fill-opacity:1;fill-rule:evenodd;stroke:none;stroke-width:1px;stroke-linecap:butt;stroke-linejoin:miter;stroke-opacity:1"
           id="path11102" />
        <path
           d="M 65.157118,-138.84986 L 67.973963,-133.8767 L 86.289578,-138.84986 L 65.157118,-138.84986 z "
           style="fill:#ffffff;fill-opacity:1;fill-rule:evenodd;stroke:none;stroke-width:1px;stroke-linecap:butt;stroke-linejoin:miter;stroke-opacity:1"
           id="path11977" />
      </g>
      <use
         transform="matrix(-1,0,0,1,329.1642,0)"
         id="use12858"
         x="0"
         y="0"
         width="600"
         height="330"
         xlink:href="#g12852" />
    </g>
    <path
       d="M 202.3952,-265.10905 C 154.141,-263.88858 115.33271,-224.31169 115.3327,-175.7653 C 115.3327,-137.85174 138.98334,-105.44187 172.3327,-92.484049 L 172.3327,-102.35905 C 144.1588,-114.79882 124.48895,-143.00252 124.48895,-175.7653 C 124.48896,-219.8591 160.11672,-255.70489 204.1452,-255.98405 C 204.31786,-255.98514 204.50353,-255.98405 204.67645,-255.98405 C 248.94318,-255.98406 284.86395,-220.03202 284.86395,-175.7653 C 284.86396,-143.00252 265.19411,-114.79882 237.0202,-102.35905 L 237.0202,-92.484049 C 270.36956,-105.44186 294.02018,-137.85173 294.0202,-175.7653 C 294.0202,-225.07998 253.99114,-265.10906 204.67645,-265.10905 C 204.09854,-265.10905 203.53301,-265.11999 202.9577,-265.10905 C 202.76818,-265.10544 202.58443,-265.11384 202.3952,-265.10905 z "
       style="fill:#ffff00;fill-opacity:1;fill-rule:nonzero;stroke:#000000;stroke-width:1.5;stroke-miterlimit:4;stroke-dasharray:none;stroke-opacity:1"
       id="path12876" />
    <g
       transform="translate(-481.3117,7.461225)"
       id="g14644">
      <path
         d="M 710.62382,-118.65631 C 710.62382,-118.65631 710.75605,-105.4326 710.75605,-105.4326 C 702.6896,-104.24247 693.69746,-95.779285 691.3172,-94.192439 C 688.93693,-92.605594 684.88231,-89.480982 682.76609,-89.742044 C 679.19821,-90.182185 681.83476,-93.067943 681.83476,-93.067943 C 681.83476,-93.067943 679.37029,-90.171903 677.46792,-91.477656 C 675.7799,-92.636281 678.49102,-94.93697 678.49102,-94.93697 C 678.49102,-94.93697 677.59631,-93.702358 675.73003,-94.202566 C 673.98396,-94.670551 675.24658,-96.849869 675.24658,-96.849869 C 675.24658,-96.849869 670.35652,-94.285742 669.63302,-95.118097 C 668.19704,-96.770146 669.98475,-98.290424 669.98475,-98.290424 C 669.98475,-98.290424 681.26718,-107.81286 681.26718,-107.81286 C 681.26718,-107.81286 673.97439,-105.08051 681.26718,-107.81286 C 687.54953,-110.16663 689.2014,-106.88721 692.11062,-107.01944 C 695.01984,-107.15169 702.82183,-111.38327 704.93762,-113.49906 C 707.05342,-115.61486 706.52446,-117.86288 708.11132,-118.39184 C 709.69816,-118.92078 710.49158,-118.78855 710.62382,-118.65631 z "
         style="fill:#ffffff;fill-opacity:1;fill-rule:evenodd;stroke:#000000;stroke-width:1.06339526px;stroke-linecap:butt;stroke-linejoin:miter;stroke-opacity:1"
         id="path14638" />
      <path
         d="M 661.31288,-117.81575 C 661.31288,-117.81575 661.18853,-105.38038 661.18853,-105.38038 C 668.7741,-104.2612 677.23016,-96.302557 679.46852,-94.810313 C 681.70689,-93.318069 685.4371,-90.958558 687.42716,-91.204056 C 690.78234,-91.617958 690.10759,-92.845302 690.10759,-92.845302 C 690.10759,-92.845302 691.5952,-92.101538 693.56712,-92.836198 C 695.54783,-93.574128 694.57456,-94.976764 694.57456,-94.976764 C 694.57456,-94.976764 697.50697,-94.115321 698.8677,-95.680789 C 700.21808,-97.234352 697.72459,-98.783381 697.72459,-98.783381 C 697.72459,-98.783381 698.83494,-99.550839 696.84528,-98.431656 C 694.85562,-97.312473 690.78471,-102.02283 686.68104,-102.14718 C 682.57736,-102.27154 682.2043,-98.167862 679.59288,-100.15752 C 676.98145,-102.14718 681.74709,-105.36055 683.32349,-105.87779 C 689.82027,-108.00948 695.80108,-105.37038 687.95216,-108.32219 C 683.93515,-109.91069 680.84266,-107.01206 678.10688,-107.13641 C 675.3711,-107.26077 668.64975,-110.97629 666.66009,-112.96595 C 664.67043,-114.95561 665.16785,-117.06962 663.6756,-117.56704 C 662.18336,-118.06445 661.43724,-117.9401 661.31288,-117.81575 z "
         style="fill:#ffffff;fill-opacity:1;fill-rule:evenodd;stroke:#000000;stroke-width:1px;stroke-linecap:butt;stroke-linejoin:miter;stroke-opacity:1"
         id="path14632" />
      <path
         d="M 694.70149,-95.016094 L 689.33768,-97.346275"
         style="fill:none;fill-opacity:0.75;fill-rule:evenodd;stroke:#000000;stroke-width:1px;stroke-linecap:butt;stroke-linejoin:miter;stroke-opacity:1"
         id="path14640" />
      <path
         d="M 690.65665,-92.554018 L 684.32559,-96.466962"
         style="fill:none;fill-opacity:0.75;fill-rule:evenodd;stroke:#000000;stroke-width:1px;stroke-linecap:butt;stroke-linejoin:miter;stroke-opacity:1"
         id="path14642" />
    </g>
    <g
       transform="matrix(0.966234,0,0,0.966234,-257.1699,-11.76866)"
       style="stroke:#000000;stroke-width:0.51747298;stroke-miterlimit:4;stroke-dasharray:none;stroke-opacity:1"
       id="g17313">
      <path
         d="M 441.65962,-108.67267 C 425.53783,-100.79884 424.7832,-121.37083 417.33829,-121.20311 C 431.07803,-130.30286 428.9154,-113.3456 441.65962,-108.67267 z "
         style="fill:#008300;fill-opacity:1;fill-rule:evenodd;stroke:#000000;stroke-width:0.51747298;stroke-linecap:butt;stroke-linejoin:miter;stroke-miterlimit:4;stroke-dasharray:none;stroke-opacity:1"
         id="path14650" />
      <path
         d="M 435.33482,-131.30066 C 427.10625,-116.45408 446.1232,-114.49366 445.53686,-107.42803 C 454.76341,-119.93658 438.92674,-118.90595 435.33482,-131.30066 z "
         style="fill:#008300;fill-opacity:1;fill-rule:evenodd;stroke:#000000;stroke-width:0.51747298;stroke-linecap:butt;stroke-linejoin:miter;stroke-miterlimit:4;stroke-dasharray:none;stroke-opacity:1"
         id="path14652" />
      <path
         d="M 427.45208,-125.65682 C 407.61537,-122.17676 412.963,-139.4598 404.74408,-141.00037 C 422.29845,-146.13464 414.72934,-132.79542 427.45208,-125.65682 z "
         style="fill:#008300;fill-opacity:1;fill-rule:evenodd;stroke:#000000;stroke-width:0.51747298;stroke-linecap:butt;stroke-linejoin:miter;stroke-miterlimit:4;stroke-dasharray:none;stroke-opacity:1"
         id="path15527" />
      <path
         d="M 425.44251,-146.1142 C 414.49987,-133.13773 430.29239,-132.51327 428.35163,-125.69416 C 439.82159,-136.18381 428.06361,-135.74606 425.44251,-146.1142 z "
         style="fill:#008300;fill-opacity:1;fill-rule:evenodd;stroke:#000000;stroke-width:0.51747298;stroke-linecap:butt;stroke-linejoin:miter;stroke-miterlimit:4;stroke-dasharray:none;stroke-opacity:1"
         id="path15529" />
      <path
         d="M 413.90983,-143.69293 C 394.10347,-146.59028 406.59796,-166.8008 400.60846,-171.22581 C 417.04341,-170.00994 406.44471,-152.20518 413.90983,-143.69293 z "
         style="fill:#008300;fill-opacity:1;fill-rule:evenodd;stroke:#000000;stroke-width:0.51747298;stroke-linecap:butt;stroke-linejoin:miter;stroke-miterlimit:4;stroke-dasharray:none;stroke-opacity:1"
         id="path16414" />
      <path
         d="M 421.51758,-169.18782 C 403.18652,-160.49608 421.74888,-151.28344 414.47273,-143.07098 C 432.41032,-144.08019 416.52127,-155.94465 421.51758,-169.18782 z "
         style="fill:#008300;fill-opacity:1;fill-rule:evenodd;stroke:#000000;stroke-width:0.51747298;stroke-linecap:butt;stroke-linejoin:miter;stroke-miterlimit:4;stroke-dasharray:none;stroke-opacity:1"
         id="path16416" />
      <path
         d="M 411.33209,-168.55597 C 390.03452,-178.44529 412.30456,-196.54751 408.48977,-203.29455 C 423.02636,-188.64922 400.91667,-182.98404 411.33209,-168.55597 z "
         style="fill:#008300;fill-opacity:1;fill-rule:evenodd;stroke:#000000;stroke-width:0.51747298;stroke-linecap:butt;stroke-linejoin:miter;stroke-miterlimit:4;stroke-dasharray:none;stroke-opacity:1"
         id="path16418" />
      <path
         d="M 425.00249,-193.17472 C 406.66505,-190.8564 415.7857,-173.97965 412.06624,-168.03481 C 426.31377,-171.29713 414.75888,-179.88995 425.00249,-193.17472 z "
         style="fill:#008300;fill-opacity:1;fill-rule:evenodd;stroke:#000000;stroke-width:0.51747298;stroke-linecap:butt;stroke-linejoin:miter;stroke-miterlimit:4;stroke-dasharray:none;stroke-opacity:1"
         id="path16420" />
      <path
         d="M 416.14033,-198.29239 C 405.66538,-214.00514 422.87103,-217.60937 424.14447,-225.6058 C 429.15523,-204.86936 417.4071,-211.68763 416.14033,-198.29239 z "
         style="fill:#008300;fill-opacity:1;fill-rule:evenodd;stroke:#000000;stroke-width:0.51747298;stroke-linecap:butt;stroke-linejoin:miter;stroke-miterlimit:4;stroke-dasharray:none;stroke-opacity:1"
         id="path16426" />
      <path
         d="M 436.80633,-211.38988 C 419.71546,-216.2353 422.71049,-199.14591 417.00606,-195.06732 C 431.4216,-192.65339 428.49043,-206.49372 436.80633,-211.38988 z "
         style="fill:#008300;fill-opacity:1;fill-rule:evenodd;stroke:#000000;stroke-width:0.51747298;stroke-linecap:butt;stroke-linejoin:miter;stroke-miterlimit:4;stroke-dasharray:none;stroke-opacity:1"
         id="path16428" />
      <path
         d="M 428.8585,-218.79428 C 425.47692,-232.4367 432.28028,-230.1412 440.02612,-236.08473 C 444.23779,-225.10501 433.82299,-226.35934 428.8585,-218.79428 z "
         style="fill:#008300;fill-opacity:1;fill-rule:evenodd;stroke:#000000;stroke-width:0.51747298;stroke-linecap:butt;stroke-linejoin:miter;stroke-miterlimit:4;stroke-dasharray:none;stroke-opacity:1"
         id="path16430" />
      <path
         d="M 450.58347,-220.79278 C 437.37691,-230.47019 436.00984,-217.42747 429.21971,-215.67544 C 441.80025,-208.23467 442.30616,-219.21793 450.58347,-220.79278 z "
         style="fill:#008300;fill-opacity:1;fill-rule:evenodd;stroke:#000000;stroke-width:0.51747298;stroke-linecap:butt;stroke-linejoin:miter;stroke-miterlimit:4;stroke-dasharray:none;stroke-opacity:1"
         id="path16432" />
      <path
         d="M 442.69911,-227.35321 C 443.13435,-233.19783 450.90645,-241.03212 459.1138,-238.29633 C 458.61639,-228.59674 449.22768,-225.98532 442.69911,-227.35321 z "
         style="fill:#008300;fill-opacity:1;fill-rule:evenodd;stroke:#000000;stroke-width:0.51747298;stroke-linecap:butt;stroke-linejoin:miter;stroke-miterlimit:4;stroke-dasharray:none;stroke-opacity:1"
         id="path16434" />
    </g>
    <use
       transform="matrix(-1,0,0,1,409.3529,1.089572e-7)"
       id="use17328"
       x="0"
       y="0"
       width="600"
       height="330"
       xlink:href="#g17313" />
    <g
       transform="matrix(1.027438,0,0,1.027438,-5.610148,-0.743311)"
       id="g18248">
      <path
         d="M 186.40617,-228.9698 C 186.40617,-228.9698 195.4529,-231.27034 204.49963,-231.20817 C 213.54636,-231.14599 222.59309,-228.7211 222.59309,-228.7211"
         style="fill:none;fill-opacity:1;fill-rule:evenodd;stroke:none;stroke-width:1px;stroke-linecap:butt;stroke-linejoin:miter;stroke-opacity:1"
         id="path17362" />
      <path
         transform="matrix(0.916721,0,0,0.916721,16.99979,-19.66735)"
         style="font-size:18px;font-style:normal;font-variant:normal;font-weight:normal;font-stretch:normal;text-align:start;line-height:125%;writing-mode:lr-tb;text-anchor:start;fill:#000000;fill-opacity:1;stroke:none;stroke-width:1px;stroke-linecap:butt;stroke-linejoin:miter;stroke-opacity:1;font-family:Times New Roman"
         d="M 188.17318,-240.87941 L 188.96697,-236.23583 L 191.54867,-236.67716 C 192.21863,-236.79168 192.64896,-236.96927 192.83966,-237.20993 C 193.09457,-237.52693 193.18209,-238.02339 193.10222,-238.69929 L 193.42276,-238.75409 L 194.12178,-234.66497 L 193.80123,-234.61017 C 193.62262,-235.16813 193.47907,-235.52105 193.37058,-235.66895 C 193.23205,-235.85332 193.03452,-235.98302 192.77798,-236.05806 C 192.52143,-236.13309 192.1477,-236.12864 191.65678,-236.04473 L 189.07509,-235.6034 L 189.73708,-231.73086 C 189.82593,-231.21106 189.90334,-230.89735 189.96929,-230.78974 C 190.03425,-230.6879 190.13041,-230.6122 190.25778,-230.56264 C 190.38415,-230.51885 190.60905,-230.52461 190.93249,-230.5799 L 192.92507,-230.92052 C 193.58925,-231.03406 194.06361,-231.1627 194.34816,-231.30646 C 194.63268,-231.4502 194.89036,-231.6815 195.12119,-232.00035 C 195.41806,-232.41964 195.6925,-233.02236 195.9445,-233.80848 L 196.29104,-233.86772 L 195.78095,-230.7489 L 186.72771,-229.20128 L 186.67291,-229.52183 L 187.08876,-229.59292 C 187.36598,-229.64031 187.61742,-229.75165 187.84306,-229.92694 C 188.01208,-230.05095 188.11256,-230.21079 188.1445,-230.40647 C 188.18221,-230.60313 188.1522,-230.98736 188.05445,-231.55914 L 186.74972,-239.19159 C 186.62236,-239.93663 186.46878,-240.38296 186.289,-240.53056 C 186.04159,-240.72603 185.6753,-240.78231 185.19015,-240.69938 L 184.77431,-240.6283 L 184.71952,-240.94884 L 193.77276,-242.49646 L 194.34256,-239.94564 L 194.00469,-239.88788 C 193.77775,-240.48513 193.56945,-240.88643 193.3798,-241.0918 C 193.19591,-241.29813 192.94922,-241.43726 192.63971,-241.50919 C 192.39387,-241.55632 191.97929,-241.53003 191.39596,-241.43033 L 188.17318,-240.87941 M 205.44608,-235.20703 L 200.83188,-235.1832 L 200.03301,-233.29819 C 199.83619,-232.83427 199.73836,-232.48806 199.73955,-232.25955 C 199.74048,-232.07791 199.82627,-231.91722 199.99692,-231.77747 C 200.17339,-231.64362 200.54884,-231.55766 201.12327,-231.51961 L 201.12495,-231.19442 L 197.37207,-231.17504 L 197.37039,-231.50023 C 197.86797,-231.59069 198.18965,-231.70662 198.3354,-231.848 C 198.63277,-232.13078 198.96087,-232.70377 199.3197,-233.56697 L 203.46138,-243.39708 L 203.76899,-243.39867 L 207.96857,-233.50616 C 208.30665,-232.71102 208.61109,-232.19403 208.88186,-231.95519 C 209.15845,-231.72224 209.53999,-231.59238 210.02647,-231.56559 L 210.02815,-231.2404 L 205.32606,-231.21612 L 205.32438,-231.54131 C 205.79886,-231.5672 206.11778,-231.64795 206.28115,-231.78356 C 206.45037,-231.9192 206.53448,-232.0837 206.53349,-232.27706 C 206.53215,-232.53486 206.41286,-232.94148 206.17563,-233.4969 L 205.44608,-235.20703 M 205.19663,-235.85614 L 203.1503,-240.66204 L 201.10098,-235.83499 L 205.19663,-235.85614 M 223.00631,-241.27086 L 222.58816,-237.23154 L 222.31964,-237.27771 C 222.16715,-238.53462 221.80406,-239.48292 221.23036,-240.12261 C 220.65663,-240.76229 219.90492,-241.16207 218.97521,-241.32196 C 218.19563,-241.45601 217.45687,-241.37793 216.75893,-241.08773 C 216.06196,-240.80329 215.45711,-240.25926 214.94436,-239.45563 C 214.43737,-238.651 214.07316,-237.60482 213.85172,-236.31709 C 213.669,-235.25456 213.68097,-234.30421 213.88762,-233.46605 C 214.09426,-232.62789 214.50253,-231.94234 215.11244,-231.40939 C 215.72812,-230.87545 216.47483,-230.53301 217.35258,-230.38207 C 218.11482,-230.25099 218.81536,-230.29699 219.45422,-230.52007 C 220.09405,-230.74893 220.84674,-231.28835 221.71231,-232.13833 L 221.95104,-231.91891 C 221.18228,-230.975 220.36353,-230.32803 219.49478,-229.97801 C 218.62601,-229.628 217.6517,-229.54584 216.57185,-229.73153 C 214.6258,-230.06618 213.24276,-231.04719 212.42271,-232.67455 C 211.81052,-233.88566 211.62954,-235.21882 211.87978,-236.67403 C 212.08137,-237.84627 212.52931,-238.87805 213.22362,-239.76938 C 213.91792,-240.66069 214.77032,-241.29592 215.78084,-241.67508 C 216.79812,-242.059 217.85246,-242.15712 218.94387,-241.96945 C 219.79273,-241.82347 220.5943,-241.47159 221.34858,-240.91383 C 221.56926,-240.74507 221.73157,-240.65176 221.83553,-240.63389 C 221.99143,-240.60707 222.13657,-240.6386 222.27094,-240.72846 C 222.44788,-240.85855 222.59195,-241.05673 222.70315,-241.32299 L 223.00631,-241.27086"
         id="text17365" />
    </g>
    <path
       d="M 201.75443,-227.54503 C 200.5171,-227.45124 199.26503,-227.25618 198.05718,-227.09778 C 196.72775,-224.27003 193.5191,-221.46507 189.26129,-219.73309 C 188.99518,-219.62485 188.70049,-219.53469 188.42643,-219.43493 C 183.80369,-217.75238 179.24601,-217.71625 176.23145,-219.07713 C 172.70043,-216.76049 169.46422,-214.01799 166.6007,-210.93721 C 166.60076,-210.93034 166.60075,-210.9086 166.6007,-210.90739 C 167.371,-207.89182 166.70473,-203.69841 164.57318,-199.66654 C 164.43891,-199.41257 164.30155,-199.17371 164.15575,-198.92113 C 161.68442,-194.64066 158.16835,-191.66097 154.97224,-190.78121 C 154.96558,-190.78115 154.94423,-190.78103 154.94243,-190.78121 C 153.70797,-186.74315 152.97063,-182.49951 152.76582,-178.10917 C 155.30447,-176.30005 157.46918,-172.65303 158.43097,-168.18025 C 158.49136,-167.8994 158.55924,-167.63259 158.60987,-167.34539 C 159.46411,-162.5007 158.68457,-157.97231 156.82087,-155.23987 C 158.48381,-151.31817 160.60909,-147.65373 163.14198,-144.29719 C 163.14468,-144.29731 163.16845,-144.29668 163.1718,-144.29719 C 166.26162,-144.49689 170.22287,-143.13206 173.7865,-140.3614 C 174.01329,-140.18507 174.21905,-139.98234 174.44246,-139.79489 C 178.21096,-136.63274 180.52431,-132.68004 180.85302,-129.38891 C 184.6598,-127.41915 188.73648,-125.89971 193.01818,-124.91642 C 195.23457,-127.11896 199.21841,-128.65111 203.81177,-128.82239 C 204.09886,-128.8331 204.3848,-128.82239 204.67645,-128.82239 C 209.63459,-128.82239 213.9798,-127.25661 216.33473,-124.91642 C 220.61828,-125.90042 224.68934,-127.41783 228.49989,-129.38891 C 228.80742,-132.48607 230.87247,-136.19851 234.25448,-139.25819 C 234.46753,-139.45093 234.68703,-139.63723 234.91045,-139.8247 C 238.63936,-142.95364 242.89695,-144.53396 246.18111,-144.327 C 246.18782,-144.3271 246.20929,-144.32731 246.21093,-144.327 C 248.69523,-147.62166 250.7907,-151.22342 252.44259,-155.06097 C 250.71614,-157.63573 249.94502,-161.76 250.56414,-166.24218 C 250.60345,-166.52677 250.66259,-166.78982 250.71323,-167.07704 C 251.5742,-171.95986 253.87353,-175.98766 256.58709,-177.90045 C 256.39243,-182.28806 255.65781,-186.53292 254.4403,-190.57249 C 251.44357,-191.41318 248.15978,-194.07528 245.73386,-197.93718 C 245.58105,-198.18046 245.46226,-198.45984 245.31643,-198.71241 C 242.83735,-203.0063 242.02228,-207.54878 242.87147,-210.75831 C 239.89675,-213.98754 236.52513,-216.86414 232.82329,-219.25603 C 229.98724,-217.94437 225.71885,-217.87577 221.34391,-219.28584 C 221.07048,-219.37398 220.8129,-219.48426 220.53887,-219.58401 C 215.91612,-221.26654 212.37248,-224.17721 210.93793,-227.15742 C 208.88489,-227.40434 206.79567,-227.54503 204.67645,-227.54503 C 204.34029,-227.54503 203.99735,-227.55139 203.66269,-227.54503 C 203.49126,-227.54177 203.32683,-227.54995 203.15581,-227.54503 C 203.03672,-227.54161 202.9169,-227.54954 202.79801,-227.54503 C 202.698,-227.54123 202.5997,-227.54975 202.49985,-227.54503 C 202.40624,-227.5406 202.32498,-227.55032 202.2315,-227.54503 C 202.22602,-227.54473 202.20682,-227.54514 202.20168,-227.54503 C 202.18205,-227.54522 202.16167,-227.5449 202.14205,-227.54503 C 202.13592,-227.54509 202.11497,-227.54519 202.11223,-227.54503 C 202.10958,-227.54487 202.08857,-227.54497 202.08241,-227.54503 C 202.06271,-227.54522 202.04249,-227.54489 202.02278,-227.54503 C 202.01663,-227.54509 201.99562,-227.5452 201.99296,-227.54503 C 201.98782,-227.54469 201.96818,-227.54514 201.96315,-227.54503 C 201.94336,-227.54523 201.92331,-227.54488 201.90351,-227.54503 C 201.89849,-227.5449 201.87884,-227.54539 201.8737,-227.54503 C 201.83381,-227.54221 201.79434,-227.54806 201.75443,-227.54503 z M 197.81864,-227.09778 C 197.81857,-227.09111 197.81842,-227.06973 197.81864,-227.06797 C 197.82134,-227.06791 197.84521,-227.06811 197.84846,-227.06797 C 197.8484,-227.07073 197.84867,-227.09416 197.84846,-227.09778 C 197.84578,-227.09784 197.82191,-227.09758 197.81864,-227.09778 z M 211.7728,-124.11138 C 211.77186,-124.10968 211.77379,-124.08317 211.7728,-124.08156 C 211.77696,-124.08254 211.79903,-124.0802 211.80261,-124.08156 C 211.80423,-124.08234 211.80104,-124.11056 211.80261,-124.11138 C 211.80162,-124.10976 211.77373,-124.11307 211.7728,-124.11138 z "
       style="fill:#ff0000;fill-opacity:1;fill-rule:nonzero;stroke:none;stroke-width:0.60000002;stroke-miterlimit:4;stroke-opacity:1"
       id="path18254" />
    <path
       d="M 249.05635,-175.81448 C 249.05635,-151.31678 229.17414,-131.43458 204.67645,-131.43458 C 180.17876,-131.43458 160.29656,-151.31678 160.29656,-175.81448 C 160.29656,-200.31219 180.17876,-220.19439 204.67645,-220.19439 C 229.17414,-220.19439 249.05635,-200.31219 249.05635,-175.81448 z "
       style="fill:#fbf014;fill-opacity:1;fill-rule:nonzero;stroke:#000000;stroke-width:0.4671264;stroke-miterlimit:4;stroke-dasharray:none;stroke-opacity:1"
       id="path19134" />
    <path
       d="M 245.33866,-175.81448 C 245.33866,-153.36895 227.12198,-135.15227 204.67645,-135.15227 C 182.23092,-135.15227 164.01425,-153.36895 164.01425,-175.81448 C 164.01425,-198.26002 182.23092,-216.4767 204.67645,-216.4767 C 227.12198,-216.4767 245.33866,-198.26002 245.33866,-175.81448 z "
       style="fill:#fbf014;fill-opacity:1;fill-rule:nonzero;stroke:#000000;stroke-width:0.4671264;stroke-miterlimit:4;stroke-dasharray:none;stroke-opacity:1"
       id="path19195" />
  </g>
  <g
     id="g3056"
     transform="matrix(0.91122958,0,0,0.91122958,26.577144,13.614202)">
    <g
       id="g24796"
       style="stroke:#000000;stroke-width:3.03274751;stroke-miterlimit:4;stroke-opacity:1;stroke-dasharray:none"
       transform="matrix(0.07678812,0,0,0.07678812,319.82171,159.80413)">
      <path
         id="path24790"
         style="fill:#0087ff;fill-opacity:1;fill-rule:evenodd;stroke:#000000;stroke-width:3.03274751;stroke-linecap:butt;stroke-linejoin:miter;stroke-miterlimit:4;stroke-opacity:1;stroke-dasharray:none"
         d="m -338.24202,-217.1562 89.53466,15.91727 -11.93796,89.53465 -75.60704,51.731132 -41.78283,-45.762152 1.98965,-73.61738 37.80352,-37.80352 z"
         inkscape:connector-curvature="0" />
      <path
         id="path23908"
         style="fill:#ffffff;fill-opacity:1;fill-rule:evenodd;stroke:#000000;stroke-width:3.03274751;stroke-linecap:butt;stroke-linejoin:miter;stroke-miterlimit:4;stroke-opacity:1;stroke-dasharray:none"
         d="m -363.24122,-151.12315 -34.92399,1.19838 c 0,0 -1.71196,-0.34241 -2.39676,-0.34241 -0.68477,0 -1.19836,0.1712 -1.19836,0.1712 l -0.51359,1.88316 -0.85599,0.51358 -0.68477,2.39675 -2.73915,1.36957 -0.17119,1.54077 -2.56796,1.71197 -3.25271,2.05433 -1.54076,-0.51358 -0.68479,-3.25272 -1.02718,-0.17119 -3.59513,0.68478 -2.56792,0.68479 -0.17119,-4.2799 -1.02717,-1.19839 0,-7.87501 1.71195,0 0.51357,-7.7038 0.85601,-1.88318 -0.34242,-1.54077 2.73915,-2.39674 1.88315,-1.36957 1.02718,-2.05436 0.17121,-2.56791 1.02717,-1.0272 -1.36957,-1.19837 -1.88316,1.02717 -2.39674,-1.54077 -0.17122,-3.25271 0.5136,-1.71197 1.88316,-1.19836 0.85598,0.51359 1.19838,-7.01906 2.91033,-1.88314 -1.36956,-4.27991 1.02716,-2.56794 -0.51357,-3.25272 7.36141,-2.73915 0.6848,-2.91033 0.68477,-3.2527 3.08153,-0.85601 2.39676,-1.36955 1.54075,4.27989 0.17121,2.22555 2.05436,-0.34238 1.19836,-2.91034 1.88316,-0.85598 0.68478,-2.56794 4.79349,-5.82068 0.856,-1.71196 3.93749,-1.71195 2.73914,-0.51357 2.56793,-2.73914 1.19839,-1.71198 -0.17121,-2.05434 1.19837,0.51358 1.88316,-2.22555 -1.36956,-2.05435 0.85597,-1.54076 -1.02718,-4.10871 -1.19836,-1.19838 0.34238,-1.19835 -1.88315,2.73912 -2.05434,-0.85598 -0.3424,-2.56793 -2.22555,0.51358 -2.05435,-0.3424 -2.39673,-3.25273 -1.36959,0.68479 0,2.22555 -1.36957,-0.85598 -1.02717,-2.73912 -2.39674,0.17117 1.02717,-3.5951 3.08152,-6.33425 0.51361,-3.08154 -3.59513,-3.08153 2.22556,-7.01904 3.42392,-3.76632 -0.1712,-3.42391 -2.22556,0.68479 2.73914,-4.27991 6.16307,-3.08154 3.25271,0.3424 5.47826,3.42393 1.88318,-1.19838 2.39675,-0.34238 3.42392,-2.56795 4.62228,3.59513 -0.17119,2.05434 3.25272,0.17119 1.36956,2.05436 1.88317,0 0.17118,-2.91034 5.82069,-2.91032 9.2446,-0.85598 7.01903,-3.42393 3.9375,2.73914 9.92936,0.51358 13.52449,-12.66851 44.32993,9.42514 -2.51314,76.20997 -45.24071,24.95755 -2.56793,-1.54075 -1.36958,1.02718 -0.68477,-0.68479 0.51359,-3.42393 -2.91034,0.51359 -0.85599,3.93751 -2.56795,0 -3.08151,-1.54076 0.34238,-1.36958 2.56795,0.34241 -0.17119,-1.36958 -1.88317,-1.02717 -2.73912,0.51358 0.17117,-1.71197 2.05436,-2.22554 -0.51359,-0.85598 -1.71194,1.88315 -2.05436,-0.85597 -1.71196,1.19838 1.71196,2.39673 -2.39674,1.36957 -0.1712,1.54077 -3.42392,-0.51359 0,1.36958 2.22555,0 -5.30708,3.93751 -1.36957,-1.54077 0.51358,-1.36958 -1.19837,0 -1.88315,1.71196 -3.25273,0.17121 0.51359,-1.02717 2.39675,-0.68481 -0.6848,-0.85596 -2.22554,0.1712 0,-2.91035 -0.85599,0.51358 -0.34239,2.56795 -1.19836,-0.5136 0.17119,1.54078 -0.17119,1.54075 0.17119,1.19839 -1.19836,0.34239 -0.34241,-0.85597 -1.71195,0.68475 -1.02717,-1.54074 c 0,0 -1.88318,0.34238 -1.54077,1.19836 0.34237,0.85598 0.68478,2.39674 0.68478,2.39674 l -3.25273,-1.02715 -1.36955,-0.85599 0,3.25272 -2.05435,0.51358 -2.73916,-2.56793 1.19839,2.73913 -3.08154,-0.1712 -1.88317,1.19837 1.54078,1.71197 1.19837,1.36958 1.36956,1.54075 -0.68478,1.36958 -1.19836,-0.68479 -2.05436,3.08154 -1.54077,0 -1.19837,2.56794 -1.19837,0.85596 0.51359,1.36956 1.02716,0.34242 -0.17118,1.54076 -1.19836,-0.3424 -2.73914,3.42392 0.51358,1.19838 1.54077,-0.1712 0.17119,4.4511 z"
         inkscape:connector-curvature="0" />
      <path
         id="Kenya"
         style="fill:#ffffff;fill-opacity:1;fill-rule:evenodd;stroke:#000000;stroke-width:3.03274751;stroke-linecap:butt;stroke-linejoin:miter;stroke-miterlimit:4;stroke-opacity:1;stroke-dasharray:none"
         d="m -302.81543,-150.46364 96.45555,52.833778 1.35471,7.315464 -3.52226,2.167538 1.08378,3.522255 3.25131,0.541884 1.08376,3.522253 37.39008,26.823314 2.70942,-1.625653 3.25131,1.354707 0.81283,-3.522253 2.16753,-2.167539 4.33509,-9.482991 -2.43849,-0.812823 1.62567,-3.522254 2.16753,0.541885 3.25133,-4.335083 0.54187,-3.793194 -2.70941,-1.8966 3.2513,1.083768 2.70942,-8.128276 3.7932,-1.083773 0.81282,-5.689778 1.8966,-1.896611 c 0,0 -2.43848,-6.773568 -0.27094,-9.212028 2.16754,-2.43851 10.8377,-2.16756 10.8377,-2.16756 l 5.41885,-5.68979 0,-2.16752 3.25132,-2.4385 -3.25132,-5.68979 6.23169,1.89659 5.14791,-1.89659 2.98037,0.27093 5.1479,-7.31544 0,-2.70944 -15.44372,-19.7788 0,-98.0812 9.21204,-8.94109 15.172783,-20.86259 -4.335082,-1.89659 -15.443721,2.16754 -3.79321,-5.41886 -1.89659,0 -1.08378,-2.98037 -2.70943,-1.62564 -25.46857,11.10864 -1.08378,4.33508 -5.96075,5.68978 -0.54187,2.70943 -1.35473,0.27095 -1.35471,-0.81283 -26.28142,-6.23168 -1.08377,2.16755 -8.94111,-0.27094 -30.61651,-22.21729 -23.03011,0 -4.60602,-1.8966 -0.27093,-2.98038 -41.45423,0 -9.48299,9.483 2.43849,10.02486 3.52225,0.54191 1.8966,4.87696 4.06415,0 -0.81284,4.60601 -0.81283,0.81283 -0.27095,5.1479 1.62566,2.98037 2.70944,1.62567 0.27093,4.33509 5.14791,2.16752 0.81283,5.6898 2.98036,2.16753 0.81282,2.4385 -2.16754,2.98035 3.52226,5.14792 -1.08376,3.52225 1.62565,4.06414 0,1.62565 -0.81282,5.14791 -2.16755,1.62565 -1.35472,3.25132 -1.62565,0.54189 0.81283,5.96073 -4.60603,0.54187 -2.16752,2.70944 -2.16754,-1.3547 -0.27094,5.68979 -2.4385,4.06414 -2.70942,0 0,2.43847 -3.25131,1.08376 -1.08377,4.60603 0,3.79321 -3.52226,2.43847 -0.81282,4.33509 1.08376,2.98037 1.89661,1.08377 1.62564,-1.08377 -0.81282,2.98037 2.98036,1.3547 1.35472,3.52226 3.25131,-1.8966 -0.54188,-2.43848 4.60601,0 5.14793,-2.43848 1.35471,2.98036 2.43848,2.16754 -0.81283,0.81283 -2.70944,-0.54187 -1.3547,1.89658 -1.89661,-0.81281 -4.60601,-0.27096 -0.5419,1.8966 2.43849,1.62565 -2.16754,1.62565 -1.62566,-1.62565 -2.16754,1.08377 -1.62565,-1.08377 -2.70943,-0.81283 0.54189,3.25131 -2.43848,0 -1.35473,4.60602 2.4385,2.43851 2.43848,1.35469 -1.89659,3.79321 -1.35471,1.35471 z"
         inkscape:connector-curvature="0" />
      <path
         id="path22083"
         style="fill:#ffffff;fill-opacity:1;fill-rule:evenodd;stroke:#000000;stroke-width:3.03274751;stroke-linecap:butt;stroke-linejoin:miter;stroke-miterlimit:4;stroke-opacity:1;stroke-dasharray:none"
         d="m -154.44736,33.04344 2.98449,-2.98449 0,-1.8653 2.98449,-0.37306 1.74095,-3.35755 0.37306,4.47673 -1.6166,1.11918 0.24871,2.61143 -2.11401,-0.12435 0.62177,2.48707 -1.11919,-0.12435 -0.12435,-1.6166 -3.97932,-0.24871 z"
         inkscape:connector-curvature="0" />
      <path
         id="path22085"
         style="fill:#ffffff;fill-opacity:1;fill-rule:evenodd;stroke:#000000;stroke-width:3.03274751;stroke-linecap:butt;stroke-linejoin:miter;stroke-miterlimit:4;stroke-opacity:1;stroke-dasharray:none"
         d="m -164.89307,-14.45966 0.12436,-5.59592 -1.11919,-0.99483 3.73061,-2.86013 0.62177,-3.35755 3.85497,-1.49225 -1.11919,3.73061 -1.49224,0.37306 -0.49741,4.47674 2.11401,2.73578 0,2.48707 1.8653,1.11918 2.48708,3.35755 0,2.61143 -1.74095,1.36789 -3.48191,-4.22802 -3.23319,0.99483 -2.11402,-4.72544 z"
         inkscape:connector-curvature="0" />
      <path
         id="path22087"
         style="fill:#ffffff;fill-opacity:1;fill-rule:evenodd;stroke:#000000;stroke-width:3.03274751;stroke-linecap:butt;stroke-linejoin:miter;stroke-miterlimit:4;stroke-opacity:1;stroke-dasharray:none"
         d="m -152.4577,-36.09721 0.74612,-3.35755 1.49225,-3.85496 -2.61143,-6.46639 2.98449,0.37306 1.11918,2.86014 1.98966,0.74612 0.24871,-2.98449 c 0,0 1.36789,-0.99483 0.87047,0.49741 -0.49741,1.49225 -1.11918,6.83946 -1.11918,6.83946 l 1.49225,3.23319 -2.23837,2.98449 -2.48707,2.48707 -2.48708,-3.35755 z"
         inkscape:connector-curvature="0" />
      <path
         id="path22081"
         style="fill:#ffffff;fill-opacity:1;fill-rule:evenodd;stroke:#000000;stroke-width:3.03274751;stroke-linecap:butt;stroke-linejoin:miter;stroke-miterlimit:4;stroke-opacity:1;stroke-dasharray:none"
         d="m -132.68546,99.82137 -11.44054,8.95346 -15.17115,5.96898 -3.73061,2.73578 -7.70993,0.24871 -5.47156,1.98966 -3.73061,1.24354 -4.22803,4.47673 -6.7151,-4.72544 -7.95863,0 -2.73578,2.98449 -0.49742,4.47673 -5.22285,2.48707 -3.2332,-0.74612 -1.98966,2.48707 -8.95346,-1.24353 -2.73578,-2.98449 -4.72544,0.74612 -6.46639,4.72544 -2.98449,-0.99483 -0.74613,-1.74095 -2.23836,0.49742 -1.98966,1.24353 -3.73061,-0.74612 0.24871,-2.98449 -2.98449,-0.99483 -3.2332,-4.47673 -4.22802,0.49741 -1.24354,2.23837 -2.98449,2.73578 -3.4819,-1.24354 -12.68408,0.24871 -3.23319,-5.96897 -2.98449,0 -3.97932,-7.70993 0.24871,-4.97415 1.49224,-1.24354 0.49742,-5.22285 -3.2332,-2.48708 0.74612,-7.95863 -1.49224,-2.23837 -0.49742,-3.4819 -5.72026,-5.72027 0.49741,-2.48707 -7.70993,-5.47157 -1.98966,0 -0.49741,4.97415 -2.73578,-0.49741 -1.98966,-2.23837 -8.45605,1.74095 -3.48191,-4.22802 -3.73061,0.49741 -3.4819,-2.73578 -4.47673,0.24871 -3.4819,-3.48191 -7.21252,0.24871 -1.74095,-4.97414 -4.72544,0.49741 -2.23837,-1.98966 -5.47156,0.49742 -0.49741,-2.98449 -6.46639,-0.49742 -3.2332,-2.48707 -0.24871,-4.47673 -4.97414,-2.23837 -4.47674,0.99483 -1.74095,-5.47156 -3.73061,-3.48191 -0.99483,-4.72544 -5.72027,-8.45605 0,-2.98448 -3.23319,-3.48191 0,-7.21251 -2.98449,-2.98449 0.24871,-3.2332 1.49224,-0.2487 -0.24871,-2.73578 -4.22802,-2.98449 -1.74096,-3.2332 -5.96897,-5.72027 -2.73578,0.99483 -2.73578,0 -5.72027,-6.9638 -0.24871,-3.48191 2.48707,-3.23319 3.2332,0 1.24354,-2.48708 -0.74613,-2.98448 -4.97414,-8.45606 0.49741,-4.22802 1.98966,-1.49224 -1.24354,-4.97415 -5.22285,-4.72544 0,-5.72027 1.24354,-3.73061 0,-1.74095 4.72544,-2.23837 2.73578,-1.49224 2.73578,-1.98966 0.49741,-2.48708 4.47674,-2.48707 -0.24871,-2.48707 4.72544,-4.22803 0.2487,-3.23319 1.74096,-4.22803 5.72027,-2.48707 -0.24871,-1.49225 4.72544,-2.48707 -0.49742,-6.21769 0.99483,-1.98965 -2.23836,-1.24354 -1.98966,0.49741 -3.2332,-1.49224 -3.4819,0.99483 -0.99483,-2.98449 3.2332,-3.73061 -1.74096,-1.49224 2.23837,-4.72544 8.45605,-1.24354 -0.24871,-6.21769 1.49225,-1.98965 -3.2332,-4.72544 0.49742,-7.70993 -2.23837,-2.73578 0.49741,-2.23837 -4.72544,-2.98449 -3.23319,-5.72027 4.97415,-0.74612 2.23836,-1.74095 29.09876,0 1.24354,2.23837 0.24871,2.73578 -0.99483,0.99483 -0.99483,3.73061 -1.24354,2.98448 -0.2487,1.49225 -0.24871,3.23319 -0.74612,3.73061 -1.24354,1.24354 0,2.98449 -1.24354,1.24354 2.48708,0.49741 -0.74613,3.4819 -0.99483,3.73062 2.23837,0.74612 4.22803,-0.49742 -2.48708,4.72544 -0.99483,3.73061 1.24354,4.72544 3.4819,-2.98449 2.73578,1.98966 -0.74612,-4.22802 1.24354,-3.4819 3.23319,1.74095 1.24354,-1.49225 -1.98966,-2.98449 3.73061,-3.23319 2.98449,4.22802 2.73578,0.49742 1.74095,3.97932 2.48708,-5.22286 0.99483,3.73061 3.23319,-0.74612 0.24871,3.97932 2.23837,3.23319 -3.97932,1.98966 0.24871,4.22803 2.48707,-0.74612 0.24871,-3.2332 3.23319,-0.99483 -1.49224,-3.2332 -0.99483,-3.4819 3.73061,-5.22285 2.73578,0.49741 2.23837,3.4819 5.47156,-0.2487 5.22285,-4.97415 6.46639,-1.98966 -1.24353,-4.47673 -1.74095,0 -2.48708,2.98449 -7.46122,-1.24354 -2.73578,-1.49224 -1.98966,1.24353 -2.23836,0.74612 -6.4664,-2.98448 0,-2.48708 -1.74095,-1.24353 2.73578,-0.99483 1.98966,2.48707 1.98966,-0.24871 2.48707,-1.24353 3.2332,2.98448 4.97415,-0.99483 0,-2.48707 -3.2332,-0.99483 0.49742,-1.98966 4.97414,-0.2487 1.24354,-1.74096 4.22803,-1.24353 -2.48708,-3.48191 0.24871,-1.98966 7.21251,1.98966 -3.23319,-3.4819 0.74612,-3.23319 4.72544,2.73578 0.24871,-1.24354 -3.73061,-2.73578 5.22285,-5.22286 97.742,53.22338 0.99483,7.46122 -3.48191,2.23837 0,3.97931 4.22803,-0.49741 0.2487,3.97932 37.30611,25.11944 2.48707,4.22803 -1.98966,2.23836 -1.74095,3.73061 -0.99483,5.72027 -1.74095,2.98449 0,4.97415 -3.23319,3.23319 -2.48708,6.21769 0,4.72544 1.98966,3.23319 -1.24354,4.97415 3.73062,3.2332 2.98448,0 7.21252,8.45605 3.73061,3.4819 1.74095,3.73061 -1.98966,4.72544 -2.48707,0.74612 -2.23837,7.70993 0.24871,5.72027 2.73578,2.73578 -0.74612,3.73061 -1.98966,4.97415 -1.49225,4.97415 1.49225,5.47156 1.98966,4.22802 1.74095,1.24354 0,3.4819 -1.49225,-0.2487 1.98966,4.72544 3.48191,1.24353 0.49741,6.96381 -1.49224,-0.24871 0.2487,1.98966 3.48191,2.73578 1.49224,7.70993 -1.74095,2.73578 0.99483,1.49225 4.47673,0.99483 1.74095,3.97931 3.48191,-1.24353 5.47156,2.98449 2.23836,3.4819 -0.2487,1.74095 z"
         inkscape:connector-curvature="0" />
    </g>
    <path
       style="fill:#ffffff;fill-rule:evenodd;stroke:#000000;stroke-width:0.28627107;stroke-miterlimit:4;stroke-dasharray:none"
       inkscape:connector-curvature="0"
       class="landxx rw"
       id="rw"
       d="m 286.15648,151.14802 c -0.1428,-0.25158 0.59815,-0.68188 0.59006,-1.01717 -0.0134,-0.58917 0.29638,-0.84468 0.88373,-1.13685 0.0727,-0.0364 0.42301,-0.22667 0.51461,-0.16556 0.12396,0.0823 0.17245,0.36665 0.37182,0.17778 0.15628,-0.14827 0.6682,-0.80109 0.95649,-0.7153 -0.13472,0.33782 0.20475,0.76419 0.38528,1.01463 0.22363,0.31291 0.45265,0.85113 0.39338,1.21041 -0.0755,0.45196 -0.37721,0.51076 -0.82446,0.36572 -0.50384,-0.16465 -0.62778,0.22806 -1.06156,-0.10054 -0.0647,0.40793 -0.0242,0.85298 -0.60084,0.95536 -0.29369,0.0521 -0.56581,0.0849 -0.71131,-0.16672 -0.15626,-0.27671 -0.57658,-0.25458 -0.60891,0.0761 -0.18322,-0.1462 -0.27212,-0.28133 -0.28829,-0.49786" />
    <path
       style="fill:#ffffff;fill-rule:evenodd;stroke:#000000;stroke-width:0.28627107;stroke-miterlimit:4;stroke-dasharray:none"
       inkscape:connector-curvature="0"
       class="landxx bi"
       id="bi"
       d="m 286.44477,151.6461 c 0.25327,-0.70031 0.69515,0.0652 0.7598,0.0717 0.90529,0.0899 1.08581,-0.16303 1.16126,-0.93646 0.49575,0.36528 0.33679,-0.16349 1.46032,0.16972 -0.1913,0.0789 -0.67089,0.52693 -0.29637,0.51285 -0.31794,0.70725 0.30984,0.73492 0.66011,0.64567 -0.21556,0.27787 0.26403,0.39457 -0.1913,0.67289 -0.28023,0.17203 -0.27213,0.0754 -0.33681,0.3851 -0.0162,0.0761 -0.34217,0.0383 -0.39606,0.13674 -0.0621,0.10954 0.19669,0.36043 0.16436,0.42984 -0.0188,0.0452 -0.15897,0.28456 -0.39607,0.43283 -0.36911,0.23244 -0.42031,0.5064 -0.81638,0.72338 -0.194,0.107 -0.39069,0.1386 -0.5658,0.13883 -0.0701,-0.20155 -0.48766,-0.95998 -0.5685,-1.2088 -0.11855,-0.35904 0.0486,-0.73076 -0.23171,-1.04253 0.0323,-0.17595 0.13202,-0.39063 -0.0322,-0.58572 -0.14551,-0.17249 -0.30985,-0.33482 -0.37452,-0.54606" />
  </g>
</svg>
