<?xml version="1.0" encoding="UTF-8" standalone="no"?>
<!-- Created with Inkscape (http://www.inkscape.org/) -->
<svg
   xmlns:dc="http://purl.org/dc/elements/1.1/"
   xmlns:cc="http://web.resource.org/cc/"
   xmlns:rdf="http://www.w3.org/1999/02/22-rdf-syntax-ns#"
   xmlns:svg="http://www.w3.org/2000/svg"
   xmlns="http://www.w3.org/2000/svg"
   xmlns:xlink="http://www.w3.org/1999/xlink"
   xmlns:sodipodi="http://inkscape.sourceforge.net/DTD/sodipodi-0.dtd"
   xmlns:inkscape="http://www.inkscape.org/namespaces/inkscape"
   width="1000"
   height="700"
   id="svg2"
   sodipodi:version="0.32"
   inkscape:version="0.43"
   version="1.0"
   sodipodi:docbase="C:\Documents and Settings\David Nelson\Archives\Svg"
   sodipodi:docname="Flag_of_the_Pacific_Community.svg">
  <defs
     id="defs4" />
  <sodipodi:namedview
     id="base"
     pagecolor="#ffffff"
     bordercolor="#666666"
     borderopacity="1.0"
     inkscape:pageopacity="0.0"
     inkscape:pageshadow="2"
     inkscape:zoom="0.53285714"
     inkscape:cx="500"
     inkscape:cy="350"
     inkscape:document-units="px"
     inkscape:current-layer="layer1"
     inkscape:window-width="756"
     inkscape:window-height="540"
     inkscape:window-x="29"
     inkscape:window-y="82" />
  <metadata
     id="metadata7">
    <rdf:RDF>
      <cc:Work
         rdf:about="">
        <dc:format>image/svg+xml</dc:format>
        <dc:type
           rdf:resource="http://purl.org/dc/dcmitype/StillImage" />
      </cc:Work>
    </rdf:RDF>
  </metadata>
  <g
     inkscape:label="Layer 1"
     inkscape:groupmode="layer"
     id="layer1">
    <rect
       style="fill:#0f3f99;fill-opacity:1;fill-rule:nonzero;stroke:none;stroke-width:1;stroke-miterlimit:4;stroke-dasharray:none;stroke-opacity:1"
       id="rect2390"
       width="1000"
       height="700"
       x="0"
       y="-7.6293945e-006" />
    <g
       id="g1844">
      <path
         transform="matrix(1.113804,0.142172,-0.142172,1.113804,-35.92171,-122.0408)"
         d="M 760.05359,356.56836 L 748.3833,360.36076 L 748.38283,372.63178 L 741.16973,362.70459 L 729.49915,366.4961 L 736.7115,356.56836 L 729.49915,346.64062 L 741.16973,350.43213 L 748.38283,340.50494 L 748.3833,352.77596 L 760.05359,356.56836 z "
         inkscape:randomized="0"
         inkscape:rounded="0"
         inkscape:flatsided="false"
         sodipodi:arg2="0.62831853"
         sodipodi:arg1="0"
         sodipodi:r2="6.4520102"
         sodipodi:r1="16.890079"
         sodipodi:cy="356.56836"
         sodipodi:cx="743.16351"
         sodipodi:sides="5"
         id="path2280"
         style="fill:#ffffff;fill-opacity:1;fill-rule:nonzero;stroke:none;stroke-opacity:1"
         sodipodi:type="star" />
      <use
         height="700"
         width="1000"
         transform="matrix(0.983885,-0.178802,0.178802,0.983885,-54.52141,95.06147)"
         id="use2326"
         xlink:href="#path2280"
         y="0"
         x="0" />
      <use
         x="0"
         y="0"
         xlink:href="#path2280"
         id="use2328"
         transform="matrix(0.858065,-0.513541,0.513541,0.858065,-108.7557,306.5058)"
         width="1000"
         height="700" />
      <use
         height="700"
         width="1000"
         transform="matrix(0.93606,-0.351842,0.351842,0.93606,-91.16693,198.3396)"
         id="use2330"
         xlink:href="#path2280"
         y="0"
         x="0" />
      <use
         x="0"
         y="0"
         xlink:href="#path2280"
         id="use2332"
         transform="matrix(0.622515,-0.782608,0.782608,0.622515,-85.12722,523.512)"
         width="1000"
         height="700" />
      <use
         height="700"
         width="1000"
         transform="matrix(0.307357,-0.951594,0.951594,0.307357,13.34223,718.3294)"
         id="use2334"
         xlink:href="#path2280"
         y="0"
         x="0" />
      <use
         x="0"
         y="0"
         xlink:href="#path2280"
         id="use2336"
         transform="matrix(0.472551,-0.881304,0.881304,0.472551,-44.67163,625.3581)"
         width="1000"
         height="700" />
      <use
         height="700"
         width="1000"
         transform="matrix(0.752415,-0.658689,0.658689,0.752415,-106.7205,416.0736)"
         id="use2338"
         xlink:href="#path2280"
         y="0"
         x="0" />
      <use
         x="0"
         y="0"
         xlink:href="#path2280"
         id="use2340"
         transform="matrix(-4.710624e-2,-0.99889,0.99889,-4.710624e-2,174.0603,866.0445)"
         width="1000"
         height="700" />
      <use
         height="700"
         width="1000"
         transform="matrix(-0.395545,-0.918446,0.918446,-0.395545,376.4743,947.7673)"
         id="use2342"
         xlink:href="#path2280"
         y="0"
         x="0" />
      <use
         x="0"
         y="0"
         xlink:href="#path2280"
         id="use2344"
         transform="matrix(-0.224951,-0.974371,0.974371,-0.224951,271.5846,916.0274)"
         width="1000"
         height="700" />
      <use
         height="700"
         width="1000"
         transform="matrix(-0.693402,-0.720551,0.720551,-0.693402,594.6993,953.0468)"
         id="use2346"
         xlink:href="#path2280"
         y="0"
         x="0" />
      <use
         x="0"
         y="0"
         xlink:href="#path2280"
         id="use2348"
         transform="matrix(-0.902585,-0.430511,0.430511,-0.902585,800.8285,881.2083)"
         width="1000"
         height="700" />
      <use
         height="700"
         width="1000"
         transform="matrix(-0.811064,-0.584958,0.584958,-0.811064,701.0012,926.4164)"
         id="use2350"
         xlink:href="#path2280"
         y="0"
         x="0" />
      <use
         x="0"
         y="0"
         xlink:href="#path2280"
         id="use2352"
         transform="matrix(-0.553391,-0.832921,0.832921,-0.553391,485.3488,960.241)"
         width="1000"
         height="700" />
      <use
         height="700"
         width="1000"
         transform="matrix(0.132256,-0.991216,0.991216,0.132256,87.04467,799.4296)"
         id="use2354"
         xlink:href="#path2280"
         y="0"
         x="0" />
      <use
         height="700"
         width="1000"
         transform="matrix(-0.996345,-8.541715e-2,8.541715e-2,-0.996345,968.5025,741.4388)"
         id="use2364"
         xlink:href="#path2280"
         y="0"
         x="0" />
      <use
         x="0"
         y="0"
         xlink:href="#path2280"
         id="use2366"
         transform="matrix(-0.962691,0.2706,-0.2706,-0.962691,1076.278,551.6113)"
         width="1000"
         height="700" />
      <use
         height="700"
         width="1000"
         transform="matrix(-0.995563,9.410814e-2,-9.410814e-2,-0.995563,1030.944,651.3818)"
         id="use2368"
         xlink:href="#path2280"
         y="0"
         x="0" />
      <use
         x="0"
         y="0"
         xlink:href="#path2280"
         id="use2370"
         transform="matrix(-0.805928,0.592013,-0.592013,-0.805928,1110.373,336.0015)"
         width="1000"
         height="700" />
      <use
         height="700"
         width="1000"
         transform="matrix(-0.546102,0.837718,-0.837718,-0.546102,1066.427,122.182)"
         id="use2372"
         xlink:href="#path2280"
         y="0"
         x="0" />
      <use
         x="0"
         y="0"
         xlink:href="#path2280"
         id="use2374"
         transform="matrix(-0.687088,0.726575,-0.726575,-0.687088,1098.035,227.1114)"
         width="1000"
         height="700" />
      <use
         height="700"
         width="1000"
         transform="matrix(-0.898794,0.438371,-0.438371,-0.898794,1103.041,445.3429)"
         id="use2376"
         xlink:href="#path2280"
         y="0"
         x="0" />
      <use
         x="0"
         y="0"
         xlink:href="#path2280"
         id="use2378"
         transform="matrix(-0.965017,-0.262189,0.262189,-0.965017,890.9644,818.8798)"
         width="1000"
         height="700" />
      <use
         height="700"
         width="1000"
         transform="matrix(-0.387515,0.921863,-0.921863,-0.387515,1016.567,24.59503)"
         id="use2380"
         xlink:href="#path2280"
         y="0"
         x="0" />
      <use
         x="0"
         y="0"
         xlink:href="#path2280"
         id="use2382"
         transform="matrix(-3.838821e-2,0.999262,-0.999262,-3.838821e-2,869.0538,-136.3083)"
         width="1000"
         height="700" />
      <use
         height="700"
         width="1000"
         transform="matrix(-0.21644,0.976297,-0.976297,-0.21644,950.061,-62.50397)"
         id="use2384"
         xlink:href="#path2280"
         y="0"
         x="0" />
      <path
         sodipodi:open="true"
         sodipodi:end="1.5707963"
         sodipodi:start="0.43633231"
         transform="matrix(3.450988,0,0,3.450988,-1159.047,-889.2602)"
         d="M 544.63604,388.88038 A 70.458923,70.458923 0 0 1 480.77857,429.56207"
         sodipodi:ry="70.458923"
         sodipodi:rx="70.458923"
         sodipodi:cy="359.10315"
         sodipodi:cx="480.77856"
         id="path2388"
         style="fill:none;fill-opacity:1;fill-rule:nonzero;stroke:#2ba0a9;stroke-width:6.37498617;stroke-miterlimit:4;stroke-dasharray:none;stroke-opacity:1"
         sodipodi:type="arc" />
    </g>
    <g
       id="g2300">
      <path
         sodipodi:nodetypes="cccc"
         id="path2270"
         d="M 715.7853,404.0387 C 517.05769,373.17579 472.30298,441.75156 311.651,404.0387 C 358.17825,339.8921 386.80992,254.67601 401.65092,157.40429 C 572.83725,258.11407 637.60223,329.90127 715.7853,404.0387 z "
         style="fill:#2ba0a9;fill-opacity:1;fill-rule:evenodd;stroke:none;stroke-width:1px;stroke-linecap:butt;stroke-linejoin:miter;stroke-opacity:1" />
      <path
         sodipodi:nodetypes="ccc"
         id="path2272"
         d="M 334.15098,422.21176 C 500.12544,445.82588 596.42587,370.31805 763.38142,424.80791 C 562.51882,402.46748 468.84843,475.46544 334.15098,422.21176 z "
         style="fill:#ffffff;fill-opacity:1;fill-rule:evenodd;stroke:none;stroke-width:1px;stroke-linecap:butt;stroke-linejoin:miter;stroke-opacity:1" />
      <path
         sodipodi:nodetypes="ccc"
         id="path2274"
         d="M 437.97769,449.7724 C 561.77391,448.17362 688.0874,407.31622 789.21129,438.05196 C 614.06983,430.10475 592.29898,472.12875 437.97769,449.7724 z "
         style="fill:#2ba0a9;fill-opacity:1;fill-rule:evenodd;stroke:none;stroke-width:1px;stroke-linecap:butt;stroke-linejoin:miter;stroke-opacity:1" />
      <path
         sodipodi:nodetypes="ccccccccccccccccc"
         id="path1395"
         d="M 424.71639,268.17312 C 454.80518,259.80915 453.04867,278.28254 442.93163,281.36346 C 443.07107,264.15179 431.8235,273.98426 425.97261,270.99962 C 454.19943,279.26073 440.35407,286.44306 438.22079,293.9257 C 436.4269,276.98199 430.99018,277.34169 425.97261,275.71046 C 431.32529,283.80103 434.79799,291.37808 430.99751,298.63654 C 422.73735,296.44091 424.06378,284.46764 422.83205,276.02451 C 414.13859,319.82809 401.87873,326.37611 390.79835,339.14975 L 382.6329,339.14975 L 382.6329,334.12486 C 417.49216,303.63433 413.92544,291.34559 418.74933,275.08234 C 407.88716,283.96544 406.21389,282.51102 401.47625,284.50402 C 400.47067,279.27434 402.84768,272.3617 421.26178,271.62773 C 375.18269,258.48095 438.19148,247.86506 427.95311,266.93609 C 423.9992,258.15093 400.80548,261.34143 421.05347,269.64724 C 404.66161,256.08529 422.33367,244.17028 439.79107,261.57794 C 418.55702,255.99594 422.96111,265.70667 424.71639,268.17312 z "
         style="fill:#ffffff;fill-opacity:1;fill-rule:nonzero;stroke:none;stroke-width:1px;stroke-linecap:butt;stroke-linejoin:miter;stroke-opacity:1" />
    </g>
  </g>
</svg>
