<?xml version="1.0" encoding="UTF-8" standalone="no"?>
<!-- Created with Inkscape (http://www.inkscape.org/) -->

<svg
   xmlns:dc="http://purl.org/dc/elements/1.1/"
   xmlns:cc="http://creativecommons.org/ns#"
   xmlns:rdf="http://www.w3.org/1999/02/22-rdf-syntax-ns#"
   xmlns:svg="http://www.w3.org/2000/svg"
   xmlns="http://www.w3.org/2000/svg"
   xmlns:xlink="http://www.w3.org/1999/xlink"
   version="1.0"
   width="999.99988"
   height="499.99994"
   id="svg1">
  <metadata
     id="metadata191">
    <rdf:RDF>
      <cc:Work
         rdf:about="">
        <dc:format>image/svg+xml</dc:format>
        <dc:type
           rdf:resource="http://purl.org/dc/dcmitype/StillImage" />
        <dc:title></dc:title>
      </cc:Work>
    </rdf:RDF>
  </metadata>
  <defs
     id="defs3">
    <linearGradient
       id="linearGradient1108">
      <stop
         id="stop1109"
         style="stop-color:#000000;stop-opacity:1"
         offset="0" />
      <stop
         id="stop1110"
         style="stop-color:#ffffff;stop-opacity:1"
         offset="1" />
    </linearGradient>
    <linearGradient
       id="linearGradient1111"
       xlink:href="#linearGradient1108" />
    <linearGradient
       id="linearGradient1112"
       xlink:href="#linearGradient1108" />
    <linearGradient
       id="linearGradient1113"
       xlink:href="#linearGradient1108" />
    <linearGradient
       id="linearGradient1114"
       xlink:href="#linearGradient1108" />
    <linearGradient
       id="linearGradient1115"
       xlink:href="#linearGradient1108" />
    <linearGradient
       id="linearGradient1116"
       xlink:href="#linearGradient1108" />
    <linearGradient
       id="linearGradient1117"
       xlink:href="#linearGradient1108" />
    <linearGradient
       id="linearGradient1118"
       xlink:href="#linearGradient1108" />
    <linearGradient
       id="linearGradient1119"
       xlink:href="#linearGradient1108" />
    <linearGradient
       id="linearGradient1120"
       xlink:href="#linearGradient1108" />
    <linearGradient
       id="linearGradient1121"
       xlink:href="#linearGradient1108" />
    <linearGradient
       id="linearGradient1122"
       xlink:href="#linearGradient1108" />
    <linearGradient
       id="linearGradient1123"
       xlink:href="#linearGradient1108" />
    <linearGradient
       id="linearGradient1124"
       xlink:href="#linearGradient1108" />
    <linearGradient
       id="linearGradient1125"
       xlink:href="#linearGradient1108" />
    <linearGradient
       id="linearGradient1126"
       xlink:href="#linearGradient1108" />
    <linearGradient
       id="linearGradient1127"
       xlink:href="#linearGradient1108" />
    <linearGradient
       id="linearGradient1128"
       xlink:href="#linearGradient1108" />
    <linearGradient
       id="linearGradient1129"
       xlink:href="#linearGradient1108" />
    <linearGradient
       id="linearGradient1130"
       xlink:href="#linearGradient1108" />
    <linearGradient
       id="linearGradient1131"
       xlink:href="#linearGradient1108" />
    <linearGradient
       id="linearGradient1132"
       xlink:href="#linearGradient1108" />
    <linearGradient
       id="linearGradient1133"
       xlink:href="#linearGradient1108" />
    <linearGradient
       id="linearGradient1134"
       xlink:href="#linearGradient1108" />
    <linearGradient
       id="linearGradient1135"
       xlink:href="#linearGradient1108" />
    <linearGradient
       id="linearGradient1136"
       xlink:href="#linearGradient1108" />
    <linearGradient
       id="linearGradient1137"
       xlink:href="#linearGradient1108" />
    <linearGradient
       id="linearGradient1138"
       xlink:href="#linearGradient1108" />
    <linearGradient
       id="linearGradient1139"
       xlink:href="#linearGradient1108" />
    <linearGradient
       id="linearGradient1140"
       xlink:href="#linearGradient1108" />
    <linearGradient
       id="linearGradient1141"
       xlink:href="#linearGradient1108" />
    <linearGradient
       id="linearGradient1142"
       xlink:href="#linearGradient1108" />
    <linearGradient
       id="linearGradient1143"
       xlink:href="#linearGradient1108" />
    <linearGradient
       id="linearGradient1144"
       xlink:href="#linearGradient1108" />
    <linearGradient
       id="linearGradient1145"
       xlink:href="#linearGradient1108" />
    <linearGradient
       id="linearGradient1146"
       xlink:href="#linearGradient1108" />
    <linearGradient
       id="linearGradient1147"
       xlink:href="#linearGradient1108" />
    <linearGradient
       id="linearGradient1148"
       xlink:href="#linearGradient1108" />
    <linearGradient
       id="linearGradient1149"
       xlink:href="#linearGradient1108" />
    <linearGradient
       id="linearGradient1150"
       xlink:href="#linearGradient1108" />
    <linearGradient
       id="linearGradient1151"
       xlink:href="#linearGradient1108" />
    <linearGradient
       id="linearGradient1152"
       xlink:href="#linearGradient1108" />
    <linearGradient
       id="linearGradient1153"
       xlink:href="#linearGradient1108" />
    <linearGradient
       id="linearGradient1154"
       xlink:href="#linearGradient1108" />
    <linearGradient
       id="linearGradient1155"
       xlink:href="#linearGradient1108" />
    <linearGradient
       id="linearGradient1156"
       xlink:href="#linearGradient1108" />
    <linearGradient
       id="linearGradient1157"
       xlink:href="#linearGradient1108" />
    <linearGradient
       id="linearGradient1158"
       xlink:href="#linearGradient1108" />
    <linearGradient
       id="linearGradient1159"
       xlink:href="#linearGradient1108" />
    <linearGradient
       id="linearGradient1160"
       xlink:href="#linearGradient1108" />
    <linearGradient
       id="linearGradient1161"
       xlink:href="#linearGradient1108" />
    <linearGradient
       id="linearGradient1162"
       xlink:href="#linearGradient1108" />
    <linearGradient
       id="linearGradient1163"
       xlink:href="#linearGradient1108" />
    <linearGradient
       id="linearGradient1164"
       xlink:href="#linearGradient1108" />
    <linearGradient
       id="linearGradient1165"
       xlink:href="#linearGradient1108" />
    <linearGradient
       id="linearGradient1166"
       xlink:href="#linearGradient1108" />
    <linearGradient
       id="linearGradient1167"
       xlink:href="#linearGradient1108" />
    <linearGradient
       id="linearGradient1168"
       xlink:href="#linearGradient1108" />
    <linearGradient
       id="linearGradient1169"
       xlink:href="#linearGradient1108" />
    <linearGradient
       id="linearGradient1170"
       xlink:href="#linearGradient1108" />
    <linearGradient
       id="linearGradient1171"
       xlink:href="#linearGradient1108" />
    <linearGradient
       id="linearGradient1172"
       xlink:href="#linearGradient1108" />
  </defs>
  <g
     transform="matrix(0.73645215,0,0,0.73645208,-22.897492,144.65381)"
     id="g3744">
    <path
       d="M 31.091622,-196.41984 1388.9531,-196.41984 1388.9531,482.51086 31.091622,482.51086 z"
       id="rect1680"
       style="fill:#002b7f;stroke:none" />
    <path
       d="M 1049.4878,-7.8279768 1049.4879,-7.8279768 C 1133.0718,-7.8279768 1200.3614,59.461602 1200.3614,143.04552 L 1200.3614,143.04556 C 1200.3614,226.62948 1133.0718,293.91907 1049.4879,293.91907 L 1049.4878,293.91907 C 965.90393,293.91907 898.61435,226.62948 898.61435,143.04556 L 898.61435,143.04552 C 898.61435,59.461602 965.90393,-7.8279768 1049.4878,-7.8279768 z"
       id="rect578"
       style="font-size:12px;fill:#ffffff;fill-rule:evenodd;stroke:none" />
    <g
       transform="matrix(0,1.1734166,1.4321704,0,680.13812,-744.70276)"
       id="g1411">
      <path
         d="M 513.78,-212.598 549.213,-141.732 513.78,-70.8661 743.60884,-141.732 z"
         transform="matrix(0.478324,0,0,0.541914,400.863,334.7017)"
         id="path1412"
         style="fill:#3d7de1;fill-opacity:1;fill-rule:evenodd;stroke:none" />
      <path
         d="M 866.71425,219.49187 849.76579,257.89514 866.71425,296.29837 756.54953,257.89514 866.71425,219.49187 z"
         id="path3179"
         style="fill:#3d7de1;fill-opacity:1;fill-rule:evenodd;stroke:none" />
    </g>
    <g
       transform="matrix(-1.1734166,0,0,1.4321704,1937.3715,-226.30421)"
       id="g3634">
      <path
         d="M 513.78,-212.598 549.213,-141.732 513.78,-70.8661 743.60884,-141.732 z"
         transform="matrix(0.478324,0,0,0.541914,400.863,334.7017)"
         id="path3636"
         style="fill:#3d7de1;fill-opacity:1;fill-rule:evenodd;stroke:none" />
      <path
         d="M 866.71425,219.49187 849.76579,257.89514 866.71425,296.29837 756.54953,257.89514 866.71425,219.49187 z"
         id="path3638"
         style="fill:#3d7de1;fill-opacity:1;fill-rule:evenodd;stroke:none" />
    </g>
    <g
       transform="matrix(0.8409919,0,0,0.8409919,166.87744,12.209893)"
       id="g3640">
      <path
         d="M 1044.1883,119.26194 C 1042.2653,119.31956 1040.0159,119.64321 1037.6518,120.12093 1034.137,120.18813 1030.1977,120.8332 1025.5989,123.38247 1025.5776,123.39429 1025.5531,123.39742 1025.5317,123.40932 1023.0145,124.21799 1020.8603,124.97025 1019.4248,125.48973 1019.4208,125.48844 1019.4153,125.49102 1019.4113,125.48973 1013.8015,123.69829 997.76694,120.28267 996.3121,139.22041 996.30323,139.33678 996.34951,139.52907 996.44633,139.77071 996.44774,139.77415 996.44491,139.78064 996.44633,139.78411 995.91152,142.76031 997.0369,147.98494 997.03689,147.98494 997.70304,148.46271 998.18366,149.51206 998.31199,149.85061 998.31348,149.85623 998.31138,149.87108 998.31199,149.87745 998.32178,150.25551 996.95787,151.76067 997.19796,152.38735 997.19907,152.38993 997.21019,152.39809 997.21137,152.40075 997.2164,152.41145 997.21875,152.43091 997.2248,152.441 997.22639,152.44358 997.23657,152.45196 997.23822,152.4544 997.24165,152.45925 997.24794,152.47656 997.25165,152.48125 997.25357,152.48339 997.26308,152.49241 997.26506,152.49465 997.26713,152.49679 997.27636,152.50589 997.27849,152.50805 997.28068,152.51019 997.28964,152.51939 997.29191,152.52145 997.29895,152.52763 997.31104,152.52904 997.31875,152.53484 997.80085,152.90043 998.22257,154.4509 998.55358,155.80981 998.55564,155.81823 998.55151,155.82824 998.55358,155.83666 998.55251,155.84194 998.55461,155.84482 998.55358,155.85006 998.45019,156.37035 998.48684,156.82534 998.78175,157.13856 998.82633,157.18602 998.86117,157.23205 998.90255,157.2862 999.27895,158.96243 1003.0643,174.99428 1002.8486,175.84881 1002.6357,176.70605 1004.1332,177.78244 1005.4927,178.21107 1005.6517,178.26131 1006.0321,178.31288 1006.6202,178.35871 1006.6392,178.36545 1006.6549,178.36545 1006.6739,178.37211 1014.7039,181.20783 1021.6032,179.33065 1036.4975,178.68082 1040.3859,178.64754 1044.5484,178.59633 1048.9397,178.51975 1048.9921,178.51889 1049.0485,178.52062 1049.1007,178.51975 1049.1943,178.51804 1049.2895,178.52104 1049.3826,178.51975 1053.7739,178.59633 1057.9364,178.64755 1061.8248,178.68082 1076.7191,179.33065 1083.6184,181.20783 1091.6484,178.37211 1091.6665,178.37082 1091.6844,178.36009 1091.7021,178.35871 1092.2902,178.31288 1092.6706,178.26131 1092.8296,178.21107 1094.1892,177.78244 1095.6866,176.70605 1095.4737,175.84881 1095.258,174.99428 1095.7556,171.64123 1095.7556,170.42632 1095.7556,169.21143 1096.6116,167.78906 1097.1112,167.21847 1097.2582,167.04981 1097.4338,166.68866 1097.5944,166.23866 1098.2954,166.49734 1099.1977,166.98068 1099.4869,167.00372 1099.4894,167.00385 1099.4979,167.00366 1099.5003,167.00372 1099.5024,167.0037 1099.5115,167.00382 1099.5137,167.00372 1099.5158,167.00353 1099.5251,167.00398 1099.5271,167.00372 1099.5288,167.00337 1099.5387,167.00415 1099.5405,167.00372 1099.5422,167.00329 1099.5525,167.00458 1099.5539,167.00372 1099.5564,167.002 1099.5651,166.99221 1099.5673,166.99032 1099.5681,166.98903 1099.5664,166.97812 1099.5673,166.97692 1099.5681,166.97391 1099.5802,166.9667 1099.5807,166.96352 1099.5808,166.96179 1099.5807,166.95188 1099.5807,166.95012 1099.5798,166.9441 1099.5692,166.93022 1099.5673,166.92327 1099.5656,166.91842 1099.5694,166.90171 1099.5673,166.89643 1099.566,166.89385 1099.5552,166.88586 1099.5539,166.88302 1099.4811,166.735 1099.2338,166.44556 1098.7351,165.95691 1098.7325,165.95433 1098.7242,165.94617 1098.7217,165.94351 1098.1176,165.23587 1099.0433,158.96255 1099.4197,157.28634 1099.461,157.23219 1099.4959,157.18615 1099.5405,157.1387 1099.8354,156.82548 1099.872,156.37049 1099.7686,155.85018 1099.7695,155.84589 1099.7678,155.84099 1099.7686,155.83678 1099.7665,155.82626 1099.7708,155.82055 1099.7686,155.80993 1100.0996,154.45104 1100.5214,152.90057 1101.0035,152.53498 1101.0111,152.52914 1101.0233,152.52775 1101.0303,152.52157 1101.0325,152.51943 1101.0415,152.51028 1101.0437,152.50817 1101.0459,152.50603 1101.055,152.49697 1101.0571,152.49477 1101.0593,152.49262 1101.0686,152.48365 1101.0705,152.48137 1101.0744,152.4767 1101.0805,152.45938 1101.0839,152.45452 1101.0856,152.45196 1101.0958,152.44362 1101.0973,152.44113 1101.1064,152.42597 1101.1174,152.40389 1101.1241,152.38744 1101.3642,151.76076 1100.0003,150.2556 1100.0101,149.87753 1100.011,149.86804 1100.0206,149.85855 1100.0235,149.85069 1100.1519,149.51216 1100.619,148.4628 1101.2852,147.98503 1101.2852,147.98503 1102.4106,142.76041 1101.8758,139.78421 1101.8749,139.78034 1101.8766,139.77476 1101.8758,139.77081 1101.9726,139.52916 1102.0189,139.33687 1102.01,139.2205 1100.5551,120.28276 1084.5206,123.69837 1078.9108,125.48981 1078.9069,125.48853 1078.9011,125.4911 1078.8974,125.48981 1077.4619,124.97033 1075.3076,124.21809 1072.7904,123.4094 1072.7712,123.39871 1072.7558,123.39317 1072.7367,123.38257 1068.1377,120.83177 1064.1987,120.18888 1060.6837,120.12103 1056.4284,119.26112 1052.5384,118.90245 1050.2683,119.69152 1049.9013,119.81907 1049.5256,119.92616 1049.1542,120.01365 1048.7868,119.92669 1048.4168,119.81774 1048.0536,119.69152 1047.0447,119.34083 1045.7265,119.21592 1044.1881,119.26202 z"
         id="path1653"
         style="font-size:12px;fill:#ce1126;fill-opacity:1;stroke:#000000;stroke-width:0.11675838;stroke-miterlimit:4;stroke-opacity:1;stroke-dasharray:none" />
      <g
         transform="matrix(0.42950334,0,0,0.42950334,985.06192,77.413903)"
         id="g1821"
         style="stroke:#000000;stroke-width:0.2718451;stroke-miterlimit:4;stroke-opacity:1;stroke-dasharray:none">
        <path
           d="M 82.306174,132.96863 C 79.644569,133.91762 76.968977,156.78049 79.266509,164.15749 80.857028,169.26438 82.773834,172.71445 83.880192,174.83835 81.588161,171.30569 76.402579,164.53915 70.538482,165.06538 63.165939,165.72698 65.121526,189.44494 65.490346,190.94936 65.491746,190.95436 65.492046,190.96946 65.493346,190.97406 65.494646,190.97806 65.511976,190.99406 65.513246,190.99726 65.51406,190.99643 65.529246,190.99689 65.530106,190.99526 65.791459,190.40182 67.572036,180.36538 74.864591,179.71096 79.665082,179.28018 84.089421,184.4963 85.75412,186.73703 85.84546,187.48226 85.946927,188.20223 86.041158,188.93025 85.234621,191.25928 85.196402,196.61042 82.677285,203.5682 79.633352,211.97553 67.380949,213.90895 65.315023,214.17669 65.838734,214.12969 85.563439,212.35964 92.041888,211.77828 92.067478,211.77628 92.101238,211.77528 92.126198,211.77028 92.138198,211.77082 92.147908,211.76728 92.159918,211.76728 92.185448,211.76733 118.44739,209.4083 118.9711,209.3613 116.88512,209.46615 113.07968,204.28823 101.05953,201.14255 94.443288,195.54025 93.906091,190.48072 92.550029,188.34576 92.464919,187.61692 92.388842,186.89467 92.296716,186.14951 93.379387,183.66223 96.436848,177.77471 101.23734,177.34393 108.5299,176.68951 112.71557,186.19054 113.11572,186.72463 113.11672,186.72559 113.13162,186.72263 113.13262,186.72263 113.13309,186.71963 113.14612,186.70053 113.14642,186.69643 113.14665,186.69143 113.14342,186.67723 113.14342,186.67173 113.13742,185.13471 109.27505,161.5879 101.9025,162.2495 96.038401,162.77573 92.61388,170.31493 91.232185,174.17725 91.797167,171.90337 92.714155,167.20257 92.967068,162.92669 93.425154,155.18204 85.188938,132.71435 82.441071,132.95519 82.398161,132.95919 82.348421,132.95219 82.306172,132.96729 z M 83.965855,174.98025 C 84.203596,175.35017 84.411817,175.66819 84.579327,175.94743 84.582827,175.95343 85.160791,178.27 85.164298,178.27586 85.169198,178.32626 87.571412,186.18647 87.576328,186.23684 87.395617,185.94056 84.2081,175.43711 83.965855,174.98025 z M 91.182952,174.33261 C 91.057252,174.82249 90.379088,185.67283 90.274474,185.99471 90.266974,185.94461 90.828914,175.46236 90.821441,175.4122 90.820241,175.4042 90.873481,177.772 90.872241,177.76364 90.968091,177.46077 91.040489,174.73664 91.182956,174.33261 z"
           id="path13497"
           style="fill:#f7d917;fill-opacity:1;fill-rule:evenodd;stroke:#000000;stroke-width:0.2718451;stroke-linecap:butt;stroke-linejoin:miter;stroke-miterlimit:4;stroke-opacity:1;stroke-dasharray:none" />
        <path
           d="M 217.0738,134.31202 C 214.27305,134.68689 206.90247,156.49387 207.61603,164.18734 208.11001,169.51333 209.26762,173.28653 209.90822,175.59404 208.40076,171.66204 204.73534,163.96522 198.88998,163.26074 191.54099,162.37504 188.5226,185.9813 188.57057,187.52953 188.57086,187.53553 188.56757,187.54953 188.56857,187.55433 188.56906,187.55833 188.58267,187.57773 188.58327,187.58113 188.58423,187.58049 188.59897,187.58413 188.60007,187.58313 188.9791,187.05699 192.80746,177.61007 200.07671,178.48616 204.86187,179.06287 208.10503,185.08488 209.26748,187.62276 209.20188,188.37069 209.15144,189.09602 209.09225,189.82773 207.8191,191.93818 202.83427,200.17756 195.36262,203.1725 187.06314,206.49927 185.64645,210.38092 183.57,210.21327 184.09204,210.27617 203.75372,212.64581 210.21147,213.4241 210.23697,213.4271 210.27017,213.4331 210.29547,213.4342 210.30707,213.4372 210.31737,213.4362 210.32907,213.4382 210.35407,213.4432 210.38757,213.4452 210.41307,213.4483 216.87082,214.22659 236.5325,216.59621 237.05454,216.65913 234.99235,216.32798 228.95875,213.29329 222.75824,206.52321 217.27354,200.53471 216.46276,192.97982 215.58022,190.60956 215.64852,189.87895 215.72425,189.15667 215.78907,188.40865 217.36521,186.20082 221.57994,181.07763 226.3651,181.65434 233.63435,182.53043 235.75319,192.6941 236.03355,193.29971 236.03445,193.30071 236.04955,193.30071 236.05035,193.30171 236.05135,193.29871 236.06815,193.28281 236.06935,193.27901 236.07035,193.27401 236.07027,193.25961 236.07135,193.25431 236.38545,191.74971 237.50274,167.91433 230.15375,167.02863 224.30838,166.32415 219.39121,172.9866 217.23669,176.47726 218.26209,174.37053 220.13639,169.9631 221.27278,165.83324 223.33106,158.35307 219.94612,134.66394 217.20823,134.3282 217.16543,134.3232 217.11823,134.3061 217.07376,134.312 z M 209.96251,175.75066 C 210.11814,176.16192 210.25569,176.51628 210.36149,176.82425 210.36349,176.83125 210.44739,179.21696 210.44959,179.22342 210.44359,179.27372 211.15939,187.46163 211.15373,187.51192 211.03857,187.18455 210.10449,176.2479 209.96253,175.75066 z M 217.15655,176.61769 C 216.93174,177.07073 214.01248,187.54297 213.84323,187.83606 213.84623,187.78546 216.57536,177.64914 216.57847,177.59853 216.57899,177.59053 216.13875,179.91758 216.13927,179.90914 216.296,179.63282 216.93319,176.98327 217.15655,176.61769 z"
           id="path27451"
           style="fill:#f7d917;fill-opacity:1;fill-rule:evenodd;stroke:#000000;stroke-width:0.2718451;stroke-linecap:butt;stroke-linejoin:miter;stroke-miterlimit:4;stroke-opacity:1;stroke-dasharray:none" />
        <g
           transform="matrix(1.085779,0,0,1.085779,6.91471,26.11209)"
           id="g33161"
           style="stroke:#000000;stroke-width:0.25036871;stroke-miterlimit:4;stroke-opacity:1;stroke-dasharray:none">
          <g
             id="g33067"
             style="stroke:#000000;stroke-width:0.25036871;stroke-miterlimit:4;stroke-opacity:1;stroke-dasharray:none">
            <g
               id="g33040"
               style="stroke:#000000;stroke-width:0.25036871;stroke-miterlimit:4;stroke-opacity:1;stroke-dasharray:none">
              <path
                 d="M 24.307772,134.55964 33.997629,122.74604 C 33.997629,122.74604 34.901298,123.91425 33.997629,122.74604 14.132028,97.064775 13.127166,82.331049 15.363287,74.869821 17.599408,67.408593 22.07165,59.325595 33.997629,49.377291 45.923607,39.428986 54.153807,44.958238 65.334412,44.958238 76.515016,44.958238 79.496511,47.445314 89.18637,48.688852 98.876225,49.93239 124.9643,51.175929 124.9643,51.175929 L 124.9643,44.336469 C 124.9643,44.336469 125.99304,44.528254 124.9643,44.336469 113.44564,42.18906 98.876225,44.336469 89.18637,41.849393 79.496511,39.362316 71.297401,38.740548 60.86217,38.740548 50.426939,38.740548 42.942114,35.698372 36.233751,40.050755 29.525388,44.403138 21.326277,51.864367 15.363287,58.082058 9.4002971,64.299748 6.4188033,76.735128 7.1641763,84.818126 7.9095502,92.901124 10.891045,99.740583 15.363287,105.95827 19.83553,112.17596 19.090156,117.15011 20.580903,121.50249 22.07165,125.85488 24.307772,135.18141 24.307772,134.55964 z"
                 id="path28377"
                 style="fill:#f7d917;fill-opacity:1;fill-rule:evenodd;stroke:#000000;stroke-width:0.25036871;stroke-linecap:butt;stroke-linejoin:miter;stroke-miterlimit:4;stroke-opacity:1;stroke-dasharray:none" />
              <path
                 d="M 239.25473,134.55964 229.56487,122.74604 C 229.56487,122.74604 228.6612,123.91425 229.56487,122.74604 249.43047,97.064775 250.43533,82.331049 248.19921,74.869821 245.96309,67.408593 241.49085,59.325595 229.56487,49.377291 217.63889,39.428986 209.40869,44.958238 198.22809,44.958238 187.04748,44.958238 184.06599,47.445314 174.37613,48.688852 164.68627,49.93239 138.5982,51.175929 138.5982,51.175929 L 138.5982,44.336469 C 138.5982,44.336469 137.56946,44.528254 138.5982,44.336469 150.11686,42.18906 164.68627,44.336469 174.37613,41.849393 184.06599,39.362316 192.2651,38.740548 202.70033,38.740548 213.13556,38.740548 220.62039,35.698372 227.32875,40.050755 234.03711,44.403138 242.23622,51.864367 248.19921,58.082058 254.1622,64.299748 257.1437,76.735128 256.39832,84.818126 255.65295,92.901124 252.67146,99.740583 248.19921,105.95827 243.72697,112.17596 244.47234,117.15011 242.9816,121.50249 241.49085,125.85488 239.25473,135.18141 239.25473,134.55964 z"
                 id="path29282"
                 style="fill:#f7d917;fill-opacity:1;fill-rule:evenodd;stroke:#000000;stroke-width:0.25036871;stroke-linecap:butt;stroke-linejoin:miter;stroke-miterlimit:4;stroke-opacity:1;stroke-dasharray:none" />
              <rect
                 width="34.563435"
                 height="70.893784"
                 x="115.55334"
                 y="38.701004"
                 id="rect29364"
                 style="fill:#f7d917;fill-opacity:1;fill-rule:evenodd;stroke:#000000;stroke-width:0.25036871;stroke-linecap:butt;stroke-linejoin:miter;stroke-miterlimit:4;stroke-opacity:1;stroke-dasharray:none" />
            </g>
            <g
               transform="translate(0,-8)"
               id="g33061"
               style="stroke:#000000;stroke-width:0.25036871;stroke-miterlimit:4;stroke-opacity:1;stroke-dasharray:none">
              <path
                 d="M 119.68386,-15.799146 C 119.68386,-15.799146 123.40428,-12.770914 126.25946,-8.8774715 129.11465,-4.9840306 131.10463,-0.2253797 131.10463,-0.2253797 131.10463,-0.2253797 126.34597,-2.2153611 122.45254,-5.070551 118.55909,-7.9257425 115.53086,-11.646141 115.53086,-11.646141 L 115.53086,14.656221 C 115.53086,14.656221 118.55909,10.93582 122.45254,8.080629 126.34597,5.2254391 131.10463,3.2354577 131.10463,3.2354577 131.10463,3.2354577 129.57132,7.1620817 128.58089,11.88755 127.68999,16.138135 120.39815,25.952081 120.39815,25.952081 L 141.70053,27.380652 C 141.70053,27.380652 138.1587,16.138135 136.73207,11.88755 135.19582,7.3103318 134.56547,3.2354577 134.56547,3.2354577 134.56547,3.2354577 139.32413,5.2254391 143.21756,8.080629 147.11101,10.93582 150.13924,14.656221 150.13924,14.656221 L 150.13924,-11.646141 C 150.13924,-11.646141 147.11101,-7.9257425 143.21756,-5.070551 139.32413,-2.2153611 134.56547,-0.2253797 134.56547,-0.2253797 134.56547,-0.2253797 136.55545,-4.9840306 139.41064,-8.8774715 142.26584,-12.770914 145.98624,-15.799146 145.98624,-15.799146 L 119.68386,-15.799146 z"
                 id="path29388"
                 style="fill:#f7d917;fill-opacity:1;fill-rule:evenodd;stroke:#000000;stroke-width:0.25036871;stroke-linecap:butt;stroke-linejoin:miter;stroke-miterlimit:4;stroke-opacity:1;stroke-dasharray:none" />
              <g
                 id="g33057"
                 style="stroke:#000000;stroke-width:0.25036871;stroke-miterlimit:4;stroke-opacity:1;stroke-dasharray:none">
                <path
                   d="M 150,23.076468 A 17.142857,17.142857 0 1 1 115.71429,23.076468 17.142857,17.142857 0 1 1 150,23.076468 z"
                   transform="translate(-0.02209282,8)"
                   id="path29366"
                   style="fill:#f7d917;fill-opacity:1;fill-rule:evenodd;stroke:#000000;stroke-width:0.25036871;stroke-linecap:butt;stroke-linejoin:miter;stroke-miterlimit:4;stroke-opacity:1;stroke-dasharray:none" />
                <path
                   d="M 116.07419,33.53461 150.17581,33.53461 C 150.17581,33.53461 150.66962,26.938729 148.2015,24.470608 145.8229,24.470608 137.6075,24.470608 137.6075,24.470608 L 137.42893,14.582607 133.48397,14.582607 127.38704,14.582607 127.20847,24.470608 C 127.20847,24.470608 120.0813,24.827751 116.79758,24.827751 115.30865,28.869394 115.53848,29.20861 115.53848,29.20861 L 116.07419,33.53461 z"
                   id="path31255"
                   style="fill:#f7d917;fill-opacity:1;fill-rule:evenodd;stroke:#000000;stroke-width:0.25036871;stroke-linecap:butt;stroke-linejoin:miter;stroke-miterlimit:4;stroke-opacity:1;stroke-dasharray:none" />
              </g>
            </g>
          </g>
          <g
             id="g33156"
             style="stroke:#000000;stroke-width:0.25036871;stroke-miterlimit:4;stroke-opacity:1;stroke-dasharray:none">
            <path
               d="M 110.87688,107.22088 C 110.87688,107.22088 117.08873,112.27704 121.85596,118.77781 126.6232,125.27859 129.94582,133.22398 129.94582,133.22398 129.94582,133.22398 122.00043,129.90136 115.49965,125.13412 108.99888,120.36689 103.94272,114.15504 103.94272,114.15504 L 103.94272,158.07138 C 103.94272,158.07138 108.99888,151.85954 115.49965,147.0923 122.00043,142.32506 129.94582,139.00244 129.94582,139.00244 129.94582,139.00244 126.6232,146.94783 121.85596,153.44861 117.08873,159.94939 110.87688,165.00555 110.87688,165.00555 L 154.79322,165.00555 C 154.79322,165.00555 148.58137,159.94939 143.81414,153.44861 139.0469,146.94783 135.72428,139.00244 135.72428,139.00244 135.72428,139.00244 143.66967,142.32506 150.17045,147.0923 156.67122,151.85954 161.72739,158.07138 161.72739,158.07138 L 161.72739,114.15504 C 161.72739,114.15504 156.67122,120.36689 150.17045,125.13412 143.66967,129.90136 135.72428,133.22398 135.72428,133.22398 135.72428,133.22398 139.0469,125.27859 143.81414,118.77781 148.58137,112.27704 154.79322,107.22088 154.79322,107.22088 L 110.87688,107.22088 z"
               id="path11917"
               style="fill:#f7d917;fill-opacity:1;fill-rule:evenodd;stroke:#000000;stroke-width:0.25036871;stroke-linecap:butt;stroke-linejoin:miter;stroke-miterlimit:4;stroke-opacity:1;stroke-dasharray:none" />
            <path
               d="M 27.240452,181.77981 48.865028,177.96682 C 48.865028,177.96682 41.869557,174.06615 36.045904,168.49195 30.22224,162.91775 25.570396,155.67004 25.570396,155.67004 25.570396,155.67004 33.972044,157.56248 41.201886,161.12844 48.431717,164.69441 54.489747,169.93388 54.489747,169.93388 L 46.863754,126.68473 C 46.863754,126.68473 42.963075,133.68021 37.388888,139.50386 31.814692,145.32752 24.566977,149.97937 24.566977,149.97937 24.566977,149.97937 26.459416,141.57772 30.025383,134.34788 33.591341,127.11805 38.830826,121.06002 38.830826,121.06002 L 17.20625,124.87302 27.240452,181.77981 z"
               id="path27435"
               style="fill:#f7d917;fill-opacity:1;fill-rule:evenodd;stroke:#000000;stroke-width:0.25036871;stroke-linecap:butt;stroke-linejoin:miter;stroke-miterlimit:4;stroke-opacity:1;stroke-dasharray:none" />
            <path
               d="M 226.83929,121.06002 C 226.83929,121.06002 232.07877,127.11803 235.64473,134.34786 239.21069,141.5777 241.10313,149.97935 241.10313,149.97935 241.10313,149.97935 233.85542,145.32751 228.28122,139.50385 222.70704,133.68019 218.80637,126.68472 218.80637,126.68472 L 211.18037,169.93387 C 211.18037,169.93387 217.23839,164.6944 224.46823,161.12843 231.69807,157.56247 240.09972,155.67003 240.09972,155.67003 240.09972,155.67003 235.44787,162.91774 229.62421,168.49194 223.80055,174.06613 216.80508,177.9668 216.80508,177.9668 L 238.42966,181.7798 248.46386,124.87301 226.83929,121.06002 z"
               id="path27433"
               style="fill:#f7d917;fill-opacity:1;fill-rule:evenodd;stroke:#000000;stroke-width:0.25036871;stroke-linecap:butt;stroke-linejoin:miter;stroke-miterlimit:4;stroke-opacity:1;stroke-dasharray:none" />
          </g>
        </g>
        <path
           d="M 36.734373,221.04489 36.897116,255.25402 C 36.897116,255.25402 94.061355,235.78794 151.22561,235.78794 208.38983,235.78794 265.55408,255.25402 265.55408,255.25402 L 265.55408,221.04489 C 265.55408,221.04489 208.34915,201.57881 151.14423,201.57881 93.939299,201.57881 36.734373,221.04489 36.734373,221.04489 z"
           id="path14537"
           style="fill:#f7d917;fill-opacity:1;fill-rule:evenodd;stroke:#000000;stroke-width:0.2718451;stroke-linecap:butt;stroke-linejoin:miter;stroke-miterlimit:4;stroke-opacity:1;stroke-dasharray:none" />
        <g
           transform="matrix(1.085779,0,0,1.085779,6.91471,26.11209)"
           id="g31151"
           style="stroke:#000000;stroke-width:0.25036871;stroke-miterlimit:4;stroke-opacity:1;stroke-dasharray:none">
          <path
             d="M 2.0203056,723.05243 A 12.121831,12.121831 0 1 1 -22.223356,723.05243 12.121831,12.121831 0 1 1 2.0203056,723.05243 z"
             transform="matrix(0.661234,0,0,0.661234,21.24618,-360.3206)"
             id="path23567"
             style="fill:#ffffff;fill-opacity:1;fill-rule:evenodd;stroke:#000000;stroke-width:0.3786386;stroke-linecap:butt;stroke-linejoin:miter;stroke-miterlimit:4;stroke-opacity:1;stroke-dasharray:none" />
          <path
             d="M 2.0203056,723.05243 A 12.121831,12.121831 0 1 1 -22.223356,723.05243 12.121831,12.121831 0 1 1 2.0203056,723.05243 z"
             transform="matrix(0.661234,0,0,0.661234,10.96519,-378.6019)"
             id="path29252"
             style="fill:#ffffff;fill-opacity:1;fill-rule:evenodd;stroke:#000000;stroke-width:0.3786386;stroke-linecap:butt;stroke-linejoin:miter;stroke-miterlimit:4;stroke-opacity:1;stroke-dasharray:none" />
          <path
             d="M 2.0203056,723.05243 A 12.121831,12.121831 0 1 1 -22.223356,723.05243 12.121831,12.121831 0 1 1 2.0203056,723.05243 z"
             transform="matrix(0.661234,0,0,0.661234,8.822333,-400.0304)"
             id="path29254"
             style="fill:#ffffff;fill-opacity:1;fill-rule:evenodd;stroke:#000000;stroke-width:0.3786386;stroke-linecap:butt;stroke-linejoin:miter;stroke-miterlimit:4;stroke-opacity:1;stroke-dasharray:none" />
          <path
             d="M 2.0203056,723.05243 A 12.121831,12.121831 0 1 1 -22.223356,723.05243 12.121831,12.121831 0 1 1 2.0203056,723.05243 z"
             transform="matrix(0.661234,0,0,0.661234,15.25091,-420.0304)"
             id="path29256"
             style="fill:#ffffff;fill-opacity:1;fill-rule:evenodd;stroke:#000000;stroke-width:0.3786386;stroke-linecap:butt;stroke-linejoin:miter;stroke-miterlimit:4;stroke-opacity:1;stroke-dasharray:none" />
          <path
             d="M 2.0203056,723.05243 A 12.121831,12.121831 0 1 1 -22.223356,723.05243 12.121831,12.121831 0 1 1 2.0203056,723.05243 z"
             transform="matrix(0.661234,0,0,0.661234,28.82233,-436.459)"
             id="path29258"
             style="fill:#ffffff;fill-opacity:1;fill-rule:evenodd;stroke:#000000;stroke-width:0.3786386;stroke-linecap:butt;stroke-linejoin:miter;stroke-miterlimit:4;stroke-opacity:1;stroke-dasharray:none" />
          <path
             d="M 2.0203056,723.05243 A 12.121831,12.121831 0 1 1 -22.223356,723.05243 12.121831,12.121831 0 1 1 2.0203056,723.05243 z"
             transform="matrix(0.661234,0,0,0.661234,47.39376,-447.8875)"
             id="path29260"
             style="fill:#ffffff;fill-opacity:1;fill-rule:evenodd;stroke:#000000;stroke-width:0.3786386;stroke-linecap:butt;stroke-linejoin:miter;stroke-miterlimit:4;stroke-opacity:1;stroke-dasharray:none" />
          <path
             d="M 2.0203056,723.05243 A 12.121831,12.121831 0 1 1 -22.223356,723.05243 12.121831,12.121831 0 1 1 2.0203056,723.05243 z"
             transform="matrix(0.661234,0,0,0.661234,68.10805,-446.459)"
             id="path29262"
             style="fill:#ffffff;fill-opacity:1;fill-rule:evenodd;stroke:#000000;stroke-width:0.3786386;stroke-linecap:butt;stroke-linejoin:miter;stroke-miterlimit:4;stroke-opacity:1;stroke-dasharray:none" />
          <path
             d="M 2.0203056,723.05243 A 12.121831,12.121831 0 1 1 -22.223356,723.05243 12.121831,12.121831 0 1 1 2.0203056,723.05243 z"
             transform="matrix(0.661234,0,0,0.661234,88.82233,-443.0304)"
             id="path29264"
             style="fill:#ffffff;fill-opacity:1;fill-rule:evenodd;stroke:#000000;stroke-width:0.3786386;stroke-linecap:butt;stroke-linejoin:miter;stroke-miterlimit:4;stroke-opacity:1;stroke-dasharray:none" />
          <path
             d="M 2.0203056,723.05243 A 12.121831,12.121831 0 1 1 -22.223356,723.05243 12.121831,12.121831 0 1 1 2.0203056,723.05243 z"
             transform="matrix(0.661234,0,0,0.661234,109.5366,-440.8875)"
             id="path29266"
             style="fill:#ffffff;fill-opacity:1;fill-rule:evenodd;stroke:#000000;stroke-width:0.3786386;stroke-linecap:butt;stroke-linejoin:miter;stroke-miterlimit:4;stroke-opacity:1;stroke-dasharray:none" />
          <path
             d="M 2.0203056,723.05243 A 12.121831,12.121831 0 1 1 -22.223356,723.05243 12.121831,12.121831 0 1 1 2.0203056,723.05243 z"
             transform="matrix(-0.661234,0,0,0.661234,242.3163,-360.3206)"
             id="path29284"
             style="fill:#ffffff;fill-opacity:1;fill-rule:evenodd;stroke:#000000;stroke-width:0.3786386;stroke-linecap:butt;stroke-linejoin:miter;stroke-miterlimit:4;stroke-opacity:1;stroke-dasharray:none" />
          <path
             d="M 2.0203056,723.05243 A 12.121831,12.121831 0 1 1 -22.223356,723.05243 12.121831,12.121831 0 1 1 2.0203056,723.05243 z"
             transform="matrix(-0.661234,0,0,0.661234,252.5973,-378.6019)"
             id="path29286"
             style="fill:#ffffff;fill-opacity:1;fill-rule:evenodd;stroke:#000000;stroke-width:0.3786386;stroke-linecap:butt;stroke-linejoin:miter;stroke-miterlimit:4;stroke-opacity:1;stroke-dasharray:none" />
          <path
             d="M 2.0203056,723.05243 A 12.121831,12.121831 0 1 1 -22.223356,723.05243 12.121831,12.121831 0 1 1 2.0203056,723.05243 z"
             transform="matrix(-0.661234,0,0,0.661234,254.7402,-400.0304)"
             id="path29288"
             style="fill:#ffffff;fill-opacity:1;fill-rule:evenodd;stroke:#000000;stroke-width:0.3786386;stroke-linecap:butt;stroke-linejoin:miter;stroke-miterlimit:4;stroke-opacity:1;stroke-dasharray:none" />
          <path
             d="M 2.0203056,723.05243 A 12.121831,12.121831 0 1 1 -22.223356,723.05243 12.121831,12.121831 0 1 1 2.0203056,723.05243 z"
             transform="matrix(-0.661234,0,0,0.661234,248.3116,-420.0304)"
             id="path29290"
             style="fill:#ffffff;fill-opacity:1;fill-rule:evenodd;stroke:#000000;stroke-width:0.3786386;stroke-linecap:butt;stroke-linejoin:miter;stroke-miterlimit:4;stroke-opacity:1;stroke-dasharray:none" />
          <path
             d="M 2.0203056,723.05243 A 12.121831,12.121831 0 1 1 -22.223356,723.05243 12.121831,12.121831 0 1 1 2.0203056,723.05243 z"
             transform="matrix(-0.661234,0,0,0.661234,234.7402,-436.459)"
             id="path29292"
             style="fill:#ffffff;fill-opacity:1;fill-rule:evenodd;stroke:#000000;stroke-width:0.3786386;stroke-linecap:butt;stroke-linejoin:miter;stroke-miterlimit:4;stroke-opacity:1;stroke-dasharray:none" />
          <path
             d="M 2.0203056,723.05243 A 12.121831,12.121831 0 1 1 -22.223356,723.05243 12.121831,12.121831 0 1 1 2.0203056,723.05243 z"
             transform="matrix(-0.661234,0,0,0.661234,216.1687,-447.8875)"
             id="path29294"
             style="fill:#ffffff;fill-opacity:1;fill-rule:evenodd;stroke:#000000;stroke-width:0.3786386;stroke-linecap:butt;stroke-linejoin:miter;stroke-miterlimit:4;stroke-opacity:1;stroke-dasharray:none" />
          <path
             d="M 2.0203056,723.05243 A 12.121831,12.121831 0 1 1 -22.223356,723.05243 12.121831,12.121831 0 1 1 2.0203056,723.05243 z"
             transform="matrix(-0.661234,0,0,0.661234,195.4544,-446.459)"
             id="path29296"
             style="fill:#ffffff;fill-opacity:1;fill-rule:evenodd;stroke:#000000;stroke-width:0.3786386;stroke-linecap:butt;stroke-linejoin:miter;stroke-miterlimit:4;stroke-opacity:1;stroke-dasharray:none" />
          <path
             d="M 2.0203056,723.05243 A 12.121831,12.121831 0 1 1 -22.223356,723.05243 12.121831,12.121831 0 1 1 2.0203056,723.05243 z"
             transform="matrix(-0.661234,0,0,0.661234,174.7402,-443.0304)"
             id="path29298"
             style="fill:#ffffff;fill-opacity:1;fill-rule:evenodd;stroke:#000000;stroke-width:0.3786386;stroke-linecap:butt;stroke-linejoin:miter;stroke-miterlimit:4;stroke-opacity:1;stroke-dasharray:none" />
          <path
             d="M 2.0203056,723.05243 A 12.121831,12.121831 0 1 1 -22.223356,723.05243 12.121831,12.121831 0 1 1 2.0203056,723.05243 z"
             transform="matrix(-0.661234,0,0,0.661234,154.0259,-440.8875)"
             id="path29300"
             style="fill:#ffffff;fill-opacity:1;fill-rule:evenodd;stroke:#000000;stroke-width:0.3786386;stroke-linecap:butt;stroke-linejoin:miter;stroke-miterlimit:4;stroke-opacity:1;stroke-dasharray:none" />
          <g
             transform="translate(1.040326,0)"
             id="g29354"
             style="stroke:#000000;stroke-width:0.25036871;stroke-miterlimit:4;stroke-opacity:1;stroke-dasharray:none">
            <path
               d="M 2.0203056,723.05243 A 12.121831,12.121831 0 1 1 -22.223356,723.05243 12.121831,12.121831 0 1 1 2.0203056,723.05243 z"
               transform="matrix(0.661234,0,0,0.661234,138.4742,-378.3206)"
               id="path29306"
               style="fill:#ffffff;fill-opacity:1;fill-rule:evenodd;stroke:#000000;stroke-width:0.3786386;stroke-linecap:butt;stroke-linejoin:miter;stroke-miterlimit:4;stroke-opacity:1;stroke-dasharray:none" />
            <path
               d="M 2.0203056,723.05243 A 12.121831,12.121831 0 1 1 -22.223356,723.05243 12.121831,12.121831 0 1 1 2.0203056,723.05243 z"
               transform="matrix(0.661234,0,0,0.661234,138.4742,-392.6019)"
               id="path29308"
               style="fill:#ffffff;fill-opacity:1;fill-rule:evenodd;stroke:#000000;stroke-width:0.3786386;stroke-linecap:butt;stroke-linejoin:miter;stroke-miterlimit:4;stroke-opacity:1;stroke-dasharray:none" />
            <path
               d="M 2.0203056,723.05243 A 12.121831,12.121831 0 1 1 -22.223356,723.05243 12.121831,12.121831 0 1 1 2.0203056,723.05243 z"
               transform="matrix(0.661234,0,0,0.661234,138.4742,-404.0304)"
               id="path29312"
               style="fill:#ffffff;fill-opacity:1;fill-rule:evenodd;stroke:#000000;stroke-width:0.3786386;stroke-linecap:butt;stroke-linejoin:miter;stroke-miterlimit:4;stroke-opacity:1;stroke-dasharray:none" />
            <path
               d="M 2.0203056,723.05243 A 12.121831,12.121831 0 1 1 -22.223356,723.05243 12.121831,12.121831 0 1 1 2.0203056,723.05243 z"
               transform="matrix(0.661234,0,0,0.661234,138.4742,-414.459)"
               id="path29314"
               style="fill:#ffffff;fill-opacity:1;fill-rule:evenodd;stroke:#000000;stroke-width:0.3786386;stroke-linecap:butt;stroke-linejoin:miter;stroke-miterlimit:4;stroke-opacity:1;stroke-dasharray:none" />
            <path
               d="M 2.0203056,723.05243 A 12.121831,12.121831 0 1 1 -22.223356,723.05243 12.121831,12.121831 0 1 1 2.0203056,723.05243 z"
               transform="matrix(0.661234,0,0,0.661234,138.4742,-447.8875)"
               id="path29316"
               style="fill:#ffffff;fill-opacity:1;fill-rule:evenodd;stroke:#000000;stroke-width:0.3786386;stroke-linecap:butt;stroke-linejoin:miter;stroke-miterlimit:4;stroke-opacity:1;stroke-dasharray:none" />
            <path
               d="M 2.0203056,723.05243 A 12.121831,12.121831 0 1 1 -22.223356,723.05243 12.121831,12.121831 0 1 1 2.0203056,723.05243 z"
               transform="matrix(0.661234,0,0,0.661234,138.4742,-446.459)"
               id="path29318"
               style="fill:#ffffff;fill-opacity:1;fill-rule:evenodd;stroke:#000000;stroke-width:0.3786386;stroke-linecap:butt;stroke-linejoin:miter;stroke-miterlimit:4;stroke-opacity:1;stroke-dasharray:none" />
            <path
               d="M 2.0203056,723.05243 A 12.121831,12.121831 0 1 1 -22.223356,723.05243 12.121831,12.121831 0 1 1 2.0203056,723.05243 z"
               transform="matrix(0.661234,0,0,0.661234,138.4742,-439.0304)"
               id="path29320"
               style="fill:#ffffff;fill-opacity:1;fill-rule:evenodd;stroke:#000000;stroke-width:0.3786386;stroke-linecap:butt;stroke-linejoin:miter;stroke-miterlimit:4;stroke-opacity:1;stroke-dasharray:none" />
            <path
               d="M 2.0203056,723.05243 A 12.121831,12.121831 0 1 1 -22.223356,723.05243 12.121831,12.121831 0 1 1 2.0203056,723.05243 z"
               transform="matrix(0.661234,0,0,0.661234,138.4742,-428.8875)"
               id="path29322"
               style="fill:#ffffff;fill-opacity:1;fill-rule:evenodd;stroke:#000000;stroke-width:0.3786386;stroke-linecap:butt;stroke-linejoin:miter;stroke-miterlimit:4;stroke-opacity:1;stroke-dasharray:none" />
          </g>
        </g>
        <g
           transform="translate(0,-2.600445e-4)"
           id="g2038"
           style="stroke:#000000;stroke-width:0.2718451;stroke-miterlimit:4;stroke-opacity:1;stroke-dasharray:none">
          <rect
             width="34.761723"
             height="15.152546"
             x="134.79076"
             y="210.09613"
             id="rect36472"
             style="fill:#002b7f;fill-opacity:1;fill-rule:evenodd;stroke:#000000;stroke-width:0.2718451;stroke-linecap:butt;stroke-linejoin:miter;stroke-miterlimit:4;stroke-opacity:1;stroke-dasharray:none" />
          <path
             d="M 16.04278,233.11084 A 22.994652,8.5561495 0 1 1 -29.946524,233.11084 22.994652,8.5561495 0 1 1 16.04278,233.11084 z"
             transform="matrix(-0.678154,-0.06882792,0.02382547,0.957698,195.4766,-0.830297)"
             id="path37350"
             style="fill:#3e8225;fill-opacity:1;fill-rule:evenodd;stroke:#000000;stroke-width:0.33774742;stroke-linecap:butt;stroke-linejoin:miter;stroke-miterlimit:4;stroke-opacity:1;stroke-dasharray:none" />
          <path
             d="M 36.937037,229.28499 28.22758,237.99445 38.328875,243.82644 61.821799,237.53153 57.63484,224.22812 36.937037,229.28499 z"
             id="path37352"
             style="fill:#ce1126;fill-opacity:1;fill-rule:evenodd;stroke:#000000;stroke-width:0.2718451;stroke-linecap:butt;stroke-linejoin:miter;stroke-miterlimit:4;stroke-opacity:1;stroke-dasharray:none" />
          <path
             d="M 267.40617,229.28499 276.11563,237.99445 266.01433,243.82644 242.52141,237.53153 246.70837,224.22812 267.40617,229.28499 z"
             id="path37354"
             style="fill:#ce1126;fill-opacity:1;fill-rule:evenodd;stroke:#000000;stroke-width:0.2718451;stroke-linecap:butt;stroke-linejoin:miter;stroke-miterlimit:4;stroke-opacity:1;stroke-dasharray:none" />
          <path
             d="M 16.04278,233.11084 A 22.994652,8.5561495 0 1 1 -29.946524,233.11084 22.994652,8.5561495 0 1 1 16.04278,233.11084 z"
             transform="matrix(0.678154,-0.06882792,-0.02382547,0.957698,108.8665,-0.830297)"
             id="path37356"
             style="fill:#3e8225;fill-opacity:1;fill-rule:evenodd;stroke:#000000;stroke-width:0.33774742;stroke-linecap:butt;stroke-linejoin:miter;stroke-miterlimit:4;stroke-opacity:1;stroke-dasharray:none" />
          <path
             d="M 126.20321,214.70358 A 4.278075,4.278075 0 1 1 117.64706,214.70358 4.278075,4.278075 0 1 1 126.20321,214.70358 z"
             transform="translate(1.069518,-3.475935)"
             id="path1994"
             style="fill:#ffffff;fill-opacity:1;fill-rule:evenodd;stroke:#000000;stroke-width:0.2718451;stroke-linecap:butt;stroke-linejoin:miter;stroke-miterlimit:4;stroke-opacity:1;stroke-dasharray:none" />
          <path
             d="M 126.20321,214.70358 A 4.278075,4.278075 0 1 1 117.64706,214.70358 4.278075,4.278075 0 1 1 126.20321,214.70358 z"
             transform="translate(2.406416,10.16042)"
             id="path1996"
             style="fill:#ffffff;fill-opacity:1;fill-rule:evenodd;stroke:#000000;stroke-width:0.2718451;stroke-linecap:butt;stroke-linejoin:miter;stroke-miterlimit:4;stroke-opacity:1;stroke-dasharray:none" />
          <path
             d="M 126.20321,214.70358 A 4.278075,4.278075 0 1 1 117.64706,214.70358 4.278075,4.278075 0 1 1 126.20321,214.70358 z"
             transform="translate(-52.40642,6.149728)"
             id="path1998"
             style="fill:#ffffff;fill-opacity:1;fill-rule:evenodd;stroke:#000000;stroke-width:0.2718451;stroke-linecap:butt;stroke-linejoin:miter;stroke-miterlimit:4;stroke-opacity:1;stroke-dasharray:none" />
          <path
             d="M 126.20321,214.70358 A 4.278075,4.278075 0 1 1 117.64706,214.70358 4.278075,4.278075 0 1 1 126.20321,214.70358 z"
             transform="translate(-47.05882,18.98396)"
             id="path2000"
             style="fill:#ffffff;fill-opacity:1;fill-rule:evenodd;stroke:#000000;stroke-width:0.2718451;stroke-linecap:butt;stroke-linejoin:miter;stroke-miterlimit:4;stroke-opacity:1;stroke-dasharray:none" />
          <path
             d="M 126.20321,214.70358 A 4.278075,4.278075 0 1 1 117.64706,214.70358 4.278075,4.278075 0 1 1 126.20321,214.70358 z"
             transform="matrix(-1,0,0,1,303.0748,-3.475943)"
             id="path2020"
             style="fill:#ffffff;fill-opacity:1;fill-rule:evenodd;stroke:#000000;stroke-width:0.2718451;stroke-linecap:butt;stroke-linejoin:miter;stroke-miterlimit:4;stroke-opacity:1;stroke-dasharray:none" />
          <path
             d="M 126.20321,214.70358 A 4.278075,4.278075 0 1 1 117.64706,214.70358 4.278075,4.278075 0 1 1 126.20321,214.70358 z"
             transform="matrix(-1,0,0,1,301.7379,10.16041)"
             id="path2022"
             style="fill:#ffffff;fill-opacity:1;fill-rule:evenodd;stroke:#000000;stroke-width:0.2718451;stroke-linecap:butt;stroke-linejoin:miter;stroke-miterlimit:4;stroke-opacity:1;stroke-dasharray:none" />
          <path
             d="M 126.20321,214.70358 A 4.278075,4.278075 0 1 1 117.64706,214.70358 4.278075,4.278075 0 1 1 126.20321,214.70358 z"
             transform="matrix(-1,0,0,1,356.5507,6.14972)"
             id="path2024"
             style="fill:#ffffff;fill-opacity:1;fill-rule:evenodd;stroke:#000000;stroke-width:0.2718451;stroke-linecap:butt;stroke-linejoin:miter;stroke-miterlimit:4;stroke-opacity:1;stroke-dasharray:none" />
          <path
             d="M 126.20321,214.70358 A 4.278075,4.278075 0 1 1 117.64706,214.70358 4.278075,4.278075 0 1 1 126.20321,214.70358 z"
             transform="matrix(-1,0,0,1,351.2031,18.98395)"
             id="path2026"
             style="fill:#ffffff;fill-opacity:1;fill-rule:evenodd;stroke:#000000;stroke-width:0.2718451;stroke-linecap:butt;stroke-linejoin:miter;stroke-miterlimit:4;stroke-opacity:1;stroke-dasharray:none" />
        </g>
        <g
           id="g1811"
           style="stroke:#000000;stroke-width:0.2718451;stroke-miterlimit:4;stroke-opacity:1;stroke-dasharray:none">
          <path
             d="M 262.58091,201.65725 C 262.58091,201.65725 265.29873,202.95708 265.29873,202.95708 264.2825,204.30417 258.11026,219.37061 235.92261,214.7028 213.51535,209.9888 211.91122,188.42263 211.91122,188.42263 L 216.07068,189.93515 C 216.07068,189.93515 218.50174,206.58104 236.11167,211.29961 253.54363,215.97049 262.58091,201.65725 262.58091,201.65725 z"
             id="path1793"
             style="fill:#f7d917;fill-opacity:1;fill-rule:evenodd;stroke:#000000;stroke-width:0.2718451;stroke-linecap:butt;stroke-linejoin:miter;stroke-miterlimit:4;stroke-opacity:1;stroke-dasharray:none" />
          <path
             d="M 212.28936,188.61169 208.12991,189.17889 C 208.12991,189.17889 203.84045,204.85206 181.37706,201.65724 159.28425,198.51513 158.38192,181.99438 157.64929,179.15839 153.32441,181.23812 154.2461,181.99439 154.2461,181.99439 154.2461,181.99439 156.79826,202.04012 180.52628,204.87136 204.06523,207.70261 212.10029,194.85087 212.28936,188.61169 z"
             id="path1795"
             style="fill:#f7d917;fill-opacity:1;fill-rule:evenodd;stroke:#000000;stroke-width:0.2718451;stroke-linecap:butt;stroke-linejoin:miter;stroke-miterlimit:4;stroke-opacity:1;stroke-dasharray:none" />
          <path
             d="M 216.85168,186.57237 C 216.85168,186.57237 214.87391,184.91148 212.71553,184.71779 210.55714,184.5241 208.21814,185.79761 208.21814,185.79761 L 207.737,189.7061 C 207.737,189.7061 210.076,188.43259 212.23438,188.62628 214.39277,188.81997 216.37054,190.48085 216.37054,190.48085 L 216.85168,186.57237 z"
             id="path1797"
             style="fill:#f7d917;fill-opacity:1;fill-rule:evenodd;stroke:#000000;stroke-width:0.2718451;stroke-linecap:butt;stroke-linejoin:miter;stroke-miterlimit:4;stroke-opacity:1;stroke-dasharray:none" />
          <path
             d="M 143.57142,136.29076 A 10.357142,10.357142 0 1 1 122.85714,136.29076 10.357142,10.357142 0 1 1 143.57142,136.29076 z"
             transform="matrix(-1.085779,0,0,1.085779,412.6535,44.33766)"
             id="path1799"
             style="fill:#ffffff;fill-opacity:1;fill-rule:evenodd;stroke:#000000;stroke-width:0.25036871;stroke-linecap:butt;stroke-linejoin:miter;stroke-miterlimit:4;stroke-opacity:1;stroke-dasharray:none" />
          <path
             d="M 38.947592,201.65725 C 38.947592,201.65725 36.229769,202.95708 36.229769,202.95708 37.245999,204.30417 43.418242,219.37061 65.605895,214.7028 88.013146,209.9888 89.617276,188.42263 89.617276,188.42263 L 85.457824,189.93515 C 85.457824,189.93515 83.026765,206.58104 65.41683,211.29961 47.984874,215.97049 38.947592,201.65725 38.947592,201.65725 z"
             id="path1423"
             style="fill:#f7d917;fill-opacity:1;fill-rule:evenodd;stroke:#000000;stroke-width:0.2718451;stroke-linecap:butt;stroke-linejoin:miter;stroke-miterlimit:4;stroke-opacity:1;stroke-dasharray:none" />
          <path
             d="M 89.239144,188.61169 93.398595,189.17889 C 93.398595,189.17889 97.688049,204.85206 120.15144,201.65724 142.24425,198.51513 143.14658,181.99438 143.87921,179.15839 148.20409,181.23812 147.2824,181.99439 147.2824,181.99439 147.2824,181.99439 144.73024,202.04012 121.00222,204.87136 97.46327,207.70261 89.42821,194.85087 89.239144,188.61169 z"
             id="path1532"
             style="fill:#f7d917;fill-opacity:1;fill-rule:evenodd;stroke:#000000;stroke-width:0.2718451;stroke-linecap:butt;stroke-linejoin:miter;stroke-miterlimit:4;stroke-opacity:1;stroke-dasharray:none" />
          <path
             d="M 84.676821,186.57237 C 84.676821,186.57237 86.654591,184.91148 88.812975,184.71779 90.971359,184.5241 93.310357,185.79761 93.310357,185.79761 L 93.791499,189.7061 C 93.791499,189.7061 91.4525,188.43259 89.294116,188.62628 87.135732,188.81997 85.157963,190.48085 85.157963,190.48085 L 84.676821,186.57237 z"
             id="path13500"
             style="fill:#f7d917;fill-opacity:1;fill-rule:evenodd;stroke:#000000;stroke-width:0.2718451;stroke-linecap:butt;stroke-linejoin:miter;stroke-miterlimit:4;stroke-opacity:1;stroke-dasharray:none" />
          <path
             d="M 143.57142,136.29076 A 10.357142,10.357142 0 1 1 122.85714,136.29076 10.357142,10.357142 0 1 1 143.57142,136.29076 z"
             transform="matrix(1.085779,0,0,1.085779,-111.125,44.33766)"
             id="path34253"
             style="fill:#ffffff;fill-opacity:1;fill-rule:evenodd;stroke:#000000;stroke-width:0.25036871;stroke-linecap:butt;stroke-linejoin:miter;stroke-miterlimit:4;stroke-opacity:1;stroke-dasharray:none" />
        </g>
        <path
           d="M 143.57142,136.29076 A 10.357142,10.357142 0 1 1 122.85714,136.29076 10.357142,10.357142 0 1 1 143.57142,136.29076 z"
           transform="matrix(1.085779,0,0,1.085779,6.41836,23.94053)"
           id="path33378"
           style="fill:#ffffff;fill-opacity:1;fill-rule:evenodd;stroke:#000000;stroke-width:0.25036871;stroke-linecap:butt;stroke-linejoin:miter;stroke-miterlimit:4;stroke-opacity:1;stroke-dasharray:none" />
      </g>
      <g
         transform="matrix(0.42950334,0,0,0.42950334,985.06192,77.413903)"
         id="g1921"
         style="stroke:#000000;stroke-width:0.2718451;stroke-miterlimit:4;stroke-opacity:1;stroke-dasharray:none">
        <path
           d="M 52.503965,257.67359 151.04022,239.9936 253.68217,257.67359 206.05631,277.47519 118.19481,278.88959 52.503965,257.67359 z"
           id="path41975"
           style="fill:#9d9d9d;fill-opacity:1;fill-rule:evenodd;stroke:#000000;stroke-width:0.2718451;stroke-linecap:butt;stroke-linejoin:miter;stroke-miterlimit:4;stroke-opacity:1;stroke-dasharray:none" />
        <path
           d="M 238.53778,280.60302 C 241.80523,280.03556 261.51534,275.35017 265.66459,272.84286 262.98715,268.01438 258.18104,264.2373 261.92128,265.82495 263.93532,266.67987 265.52768,260.02605 259.68186,254.94019 242.70861,260.50682 202.00223,270.67873 150.853,270.67873 98.508505,270.67873 57.291321,259.97206 40.318076,254.40543 34.472264,259.49129 36.292899,265.26996 35.939619,267.42923 35.936519,267.44583 35.943219,270.15342 37.009138,272.3081 42.762677,278.55873 61.403257,281.63984 64.670703,282.2073 80.023096,284.87352 95.376119,288.90512 150.81907,288.90512 202.10789,288.90512 223.1854,283.26924 238.53778,280.60302 z"
           id="path2159"
           style="font-size:12px;fill:#ffffff;fill-opacity:1;stroke:#000000;stroke-width:0.2718451;stroke-miterlimit:4;stroke-opacity:1;stroke-dasharray:none" />
      </g>
      <g
         transform="matrix(0.46634571,0,0,0.46634571,950.12563,47.73037)"
         id="g35393"
         style="stroke:#000000;stroke-width:0.25036871;stroke-miterlimit:4;stroke-opacity:1;stroke-dasharray:none">
        <path
           d="M 132.90625,289.65528 C 129.89694,290.17791 110.75895,296.95571 106.9375,299.26493 106.9405,299.27933 106.9345,299.31043 106.9375,299.32573 107.26287,301.31441 103.61601,310.57665 109,315.26072 124.63232,310.13387 168.52546,294.85542 215.63379,294.85542 263.84295,294.85542 303.77393,310.13387 319.40625,315.26072 324.79023,310.57665 321.14338,301.31441 321.46875,299.32573 321.47175,299.31043 321.46575,299.27933 321.46875,299.26493 317.64729,296.95571 298.50931,290.17791 295.5,289.65528 281.36048,287.1997 266.72787,278.06897 215.66504,278.06897 168.42815,278.06897 147.04576,287.1997 132.90625,289.65528 z"
           id="path34451"
           style="font-size:12px;fill:#ffffff;fill-opacity:1;stroke:#000000;stroke-width:0.25036871;stroke-miterlimit:4;stroke-opacity:1;stroke-dasharray:none" />
        <g
           transform="matrix(1.384389,-0.143242,0.15642,1.267764,-86.62648,-64.7552)"
           id="g35337"
           style="stroke:#000000;stroke-width:0.18779203;stroke-miterlimit:4;stroke-opacity:1;stroke-dasharray:none">
          <path
             d="M 115.50802,301.56003 A 1.87166,1.87166 0 1 1 111.7647,301.56003 1.87166,1.87166 0 1 1 115.50802,301.56003 z"
             transform="matrix(0.4996,0,0,0.4996,56.86367,150.9007)"
             id="path35329"
             style="fill:#000000;fill-opacity:1;fill-rule:evenodd;stroke:#000000;stroke-width:0.37588477;stroke-linecap:butt;stroke-linejoin:miter;stroke-miterlimit:4;stroke-opacity:1;stroke-dasharray:none" />
          <path
             d="M 115.50802,301.56003 A 1.87166,1.87166 0 1 1 111.7647,301.56003 1.87166,1.87166 0 1 1 115.50802,301.56003 z"
             transform="matrix(0.4996,0,0,0.4996,55.52674,153.307)"
             id="path35331"
             style="fill:#000000;fill-opacity:1;fill-rule:evenodd;stroke:#000000;stroke-width:0.37588477;stroke-linecap:butt;stroke-linejoin:miter;stroke-miterlimit:4;stroke-opacity:1;stroke-dasharray:none" />
          <path
             d="M 115.50802,301.56003 A 1.87166,1.87166 0 1 1 111.7647,301.56003 1.87166,1.87166 0 1 1 115.50802,301.56003 z"
             transform="matrix(0.4996,0,0,0.4996,57.3984,154.9114)"
             id="path35333"
             style="fill:#000000;fill-opacity:1;fill-rule:evenodd;stroke:#000000;stroke-width:0.37588477;stroke-linecap:butt;stroke-linejoin:miter;stroke-miterlimit:4;stroke-opacity:1;stroke-dasharray:none" />
          <path
             d="M 113.51808,303.66868 122.04404,300.50258 117.85943,302.89505 120.54527,302.81165 118.05284,303.98038 122.05409,304.25542 113.51808,303.66867 z"
             id="path35335"
             style="fill:#000000;fill-opacity:1;fill-rule:evenodd;stroke:#000000;stroke-width:0.18779203;stroke-linecap:butt;stroke-linejoin:miter;stroke-miterlimit:4;stroke-opacity:1;stroke-dasharray:none" />
        </g>
        <g
           transform="matrix(1.384389,-0.143242,0.15642,1.267764,-45.03159,-76.65847)"
           id="g35343"
           style="stroke:#000000;stroke-width:0.18779203;stroke-miterlimit:4;stroke-opacity:1;stroke-dasharray:none">
          <path
             d="M 115.50802,301.56003 A 1.87166,1.87166 0 1 1 111.7647,301.56003 1.87166,1.87166 0 1 1 115.50802,301.56003 z"
             transform="matrix(0.4996,0,0,0.4996,56.86367,150.9007)"
             id="path35345"
             style="fill:#000000;fill-opacity:1;fill-rule:evenodd;stroke:#000000;stroke-width:0.37588477;stroke-linecap:butt;stroke-linejoin:miter;stroke-miterlimit:4;stroke-opacity:1;stroke-dasharray:none" />
          <path
             d="M 115.50802,301.56003 A 1.87166,1.87166 0 1 1 111.7647,301.56003 1.87166,1.87166 0 1 1 115.50802,301.56003 z"
             transform="matrix(0.4996,0,0,0.4996,55.52674,153.307)"
             id="path35347"
             style="fill:#000000;fill-opacity:1;fill-rule:evenodd;stroke:#000000;stroke-width:0.37588477;stroke-linecap:butt;stroke-linejoin:miter;stroke-miterlimit:4;stroke-opacity:1;stroke-dasharray:none" />
          <path
             d="M 115.50802,301.56003 A 1.87166,1.87166 0 1 1 111.7647,301.56003 1.87166,1.87166 0 1 1 115.50802,301.56003 z"
             transform="matrix(0.4996,0,0,0.4996,57.3984,154.9114)"
             id="path35349"
             style="fill:#000000;fill-opacity:1;fill-rule:evenodd;stroke:#000000;stroke-width:0.37588477;stroke-linecap:butt;stroke-linejoin:miter;stroke-miterlimit:4;stroke-opacity:1;stroke-dasharray:none" />
          <path
             d="M 113.51808,303.66868 122.04404,300.50258 117.85943,302.89505 120.54527,302.81165 118.05284,303.98038 122.05409,304.25542 113.51808,303.66867 z"
             id="path35351"
             style="fill:#000000;fill-opacity:1;fill-rule:evenodd;stroke:#000000;stroke-width:0.18779203;stroke-linecap:butt;stroke-linejoin:miter;stroke-miterlimit:4;stroke-opacity:1;stroke-dasharray:none" />
        </g>
        <g
           transform="matrix(1.378425,0.192343,-0.151629,1.268346,100.1696,-120.8592)"
           id="g35353"
           style="stroke:#000000;stroke-width:0.18779202;stroke-miterlimit:4;stroke-opacity:1;stroke-dasharray:none">
          <path
             d="M 115.50802,301.56003 A 1.87166,1.87166 0 1 1 111.7647,301.56003 1.87166,1.87166 0 1 1 115.50802,301.56003 z"
             transform="matrix(0.4996,0,0,0.4996,56.86367,150.9007)"
             id="path35355"
             style="fill:#000000;fill-opacity:1;fill-rule:evenodd;stroke:#000000;stroke-width:0.37588477;stroke-linecap:butt;stroke-linejoin:miter;stroke-miterlimit:4;stroke-opacity:1;stroke-dasharray:none" />
          <path
             d="M 115.50802,301.56003 A 1.87166,1.87166 0 1 1 111.7647,301.56003 1.87166,1.87166 0 1 1 115.50802,301.56003 z"
             transform="matrix(0.4996,0,0,0.4996,55.52674,153.307)"
             id="path35357"
             style="fill:#000000;fill-opacity:1;fill-rule:evenodd;stroke:#000000;stroke-width:0.37588477;stroke-linecap:butt;stroke-linejoin:miter;stroke-miterlimit:4;stroke-opacity:1;stroke-dasharray:none" />
          <path
             d="M 115.50802,301.56003 A 1.87166,1.87166 0 1 1 111.7647,301.56003 1.87166,1.87166 0 1 1 115.50802,301.56003 z"
             transform="matrix(0.4996,0,0,0.4996,57.3984,154.9114)"
             id="path35359"
             style="fill:#000000;fill-opacity:1;fill-rule:evenodd;stroke:#000000;stroke-width:0.37588477;stroke-linecap:butt;stroke-linejoin:miter;stroke-miterlimit:4;stroke-opacity:1;stroke-dasharray:none" />
          <path
             d="M 113.51808,303.66868 122.04404,300.50258 117.85943,302.89505 120.54527,302.81165 118.05284,303.98038 122.05409,304.25542 113.51808,303.66867 z"
             id="path35361"
             style="fill:#000000;fill-opacity:1;fill-rule:evenodd;stroke:#000000;stroke-width:0.18779202;stroke-linecap:butt;stroke-linejoin:miter;stroke-miterlimit:4;stroke-opacity:1;stroke-dasharray:none" />
        </g>
        <g
           transform="matrix(1.384389,0.143242,0.15642,-1.267764,54.4337,659.4577)"
           id="g35373"
           style="stroke:#000000;stroke-width:0.18779203;stroke-miterlimit:4;stroke-opacity:1;stroke-dasharray:none">
          <path
             d="M 115.50802,301.56003 A 1.87166,1.87166 0 1 1 111.7647,301.56003 1.87166,1.87166 0 1 1 115.50802,301.56003 z"
             transform="matrix(0.4996,0,0,0.4996,56.86367,150.9007)"
             id="path35375"
             style="fill:#000000;fill-opacity:1;fill-rule:evenodd;stroke:#000000;stroke-width:0.37588477;stroke-linecap:butt;stroke-linejoin:miter;stroke-miterlimit:4;stroke-opacity:1;stroke-dasharray:none" />
          <path
             d="M 115.50802,301.56003 A 1.87166,1.87166 0 1 1 111.7647,301.56003 1.87166,1.87166 0 1 1 115.50802,301.56003 z"
             transform="matrix(0.4996,0,0,0.4996,55.52674,153.307)"
             id="path35377"
             style="fill:#000000;fill-opacity:1;fill-rule:evenodd;stroke:#000000;stroke-width:0.37588477;stroke-linecap:butt;stroke-linejoin:miter;stroke-miterlimit:4;stroke-opacity:1;stroke-dasharray:none" />
          <path
             d="M 115.50802,301.56003 A 1.87166,1.87166 0 1 1 111.7647,301.56003 1.87166,1.87166 0 1 1 115.50802,301.56003 z"
             transform="matrix(0.4996,0,0,0.4996,57.3984,154.9114)"
             id="path35379"
             style="fill:#000000;fill-opacity:1;fill-rule:evenodd;stroke:#000000;stroke-width:0.37588477;stroke-linecap:butt;stroke-linejoin:miter;stroke-miterlimit:4;stroke-opacity:1;stroke-dasharray:none" />
          <path
             d="M 113.51808,303.66868 122.04404,300.50258 117.85943,302.89505 120.54527,302.81165 118.05284,303.98038 122.05409,304.25542 113.51808,303.66867 z"
             id="path35381"
             style="fill:#000000;fill-opacity:1;fill-rule:evenodd;stroke:#000000;stroke-width:0.18779203;stroke-linecap:butt;stroke-linejoin:miter;stroke-miterlimit:4;stroke-opacity:1;stroke-dasharray:none" />
        </g>
        <g
           transform="matrix(1.384389,0.143242,0.15642,-1.267764,96.41226,670.4203)"
           id="g35383"
           style="stroke:#000000;stroke-width:0.18779203;stroke-miterlimit:4;stroke-opacity:1;stroke-dasharray:none">
          <path
             d="M 115.50802,301.56003 A 1.87166,1.87166 0 1 1 111.7647,301.56003 1.87166,1.87166 0 1 1 115.50802,301.56003 z"
             transform="matrix(0.4996,0,0,0.4996,56.86367,150.9007)"
             id="path35385"
             style="fill:#000000;fill-opacity:1;fill-rule:evenodd;stroke:#000000;stroke-width:0.37588477;stroke-linecap:butt;stroke-linejoin:miter;stroke-miterlimit:4;stroke-opacity:1;stroke-dasharray:none" />
          <path
             d="M 115.50802,301.56003 A 1.87166,1.87166 0 1 1 111.7647,301.56003 1.87166,1.87166 0 1 1 115.50802,301.56003 z"
             transform="matrix(0.4996,0,0,0.4996,55.52674,153.307)"
             id="path35387"
             style="fill:#000000;fill-opacity:1;fill-rule:evenodd;stroke:#000000;stroke-width:0.37588477;stroke-linecap:butt;stroke-linejoin:miter;stroke-miterlimit:4;stroke-opacity:1;stroke-dasharray:none" />
          <path
             d="M 115.50802,301.56003 A 1.87166,1.87166 0 1 1 111.7647,301.56003 1.87166,1.87166 0 1 1 115.50802,301.56003 z"
             transform="matrix(0.4996,0,0,0.4996,57.3984,154.9114)"
             id="path35389"
             style="fill:#000000;fill-opacity:1;fill-rule:evenodd;stroke:#000000;stroke-width:0.37588477;stroke-linecap:butt;stroke-linejoin:miter;stroke-miterlimit:4;stroke-opacity:1;stroke-dasharray:none" />
          <path
             d="M 113.51808,303.66868 122.04404,300.50258 117.85943,302.89505 120.54527,302.81165 118.05284,303.98038 122.05409,304.25542 113.51808,303.66867 z"
             id="path35391"
             style="fill:#000000;fill-opacity:1;fill-rule:evenodd;stroke:#000000;stroke-width:0.18779203;stroke-linecap:butt;stroke-linejoin:miter;stroke-miterlimit:4;stroke-opacity:1;stroke-dasharray:none" />
        </g>
      </g>
    </g>
    <rect
       width="678.93073"
       height="339.46536"
       x="31.091627"
       y="-196.41994"
       id="rect1683"
       style="fill:#002b7f;stroke:none" />
    <g
       transform="matrix(0.45262003,0,0,0.45262003,31.091636,-196.41991)"
       id="upper_half"
       style="stroke:none">
      <polygon
         points="625,228.64745 625,0 675,0 750,325 0,300 0,250 332.2949,250 0,83.852549 0,0 0,0 167.7051,0 "
         id="upper_left_white"
         style="fill:#ffffff;stroke:none" />
      <use
         transform="matrix(-1,0,0,1,1500,0)"
         id="use1687"
         style="stroke:none"
         x="0"
         y="0"
         width="1000"
         height="500"
         xlink:href="#upper_left_white" />
      <path
         d="M 0,0 500,250 388.1966,250 0,55.901699 0,0 z M 1500,0 1000,250 888.1966,250 1388.1966,0 1500,0 z"
         id="upper_red_diagonals"
         style="fill:#ce1126;stroke:none" />
    </g>
    <use
       transform="matrix(-1,0,0,-1,741.11398,-53.374307)"
       id="use1690"
       style="stroke:none"
       x="0"
       y="0"
       width="1000"
       height="500"
       xlink:href="#upper_half" />
    <path
       d="M 336.61044,-196.41991 404.50352,-196.41991 404.50352,-60.633778 710.02235,-60.633778 710.02235,7.2593049 404.50352,7.2593049 404.50352,143.04545 336.61044,143.04545 336.61044,7.2593049 31.091636,7.2593049 31.091636,-60.633778 336.61044,-60.633778 336.61044,-196.41991 z"
       id="path1692"
       style="fill:#ce1126;stroke:none" />
  </g>
</svg>
