<?xml version="1.0" encoding="UTF-8" standalone="no"?>
<!-- Created with Inkscape (http://www.inkscape.org/) -->

<svg
   xmlns:dc="http://purl.org/dc/elements/1.1/"
   xmlns:cc="http://creativecommons.org/ns#"
   xmlns:rdf="http://www.w3.org/1999/02/22-rdf-syntax-ns#"
   xmlns:svg="http://www.w3.org/2000/svg"
   xmlns="http://www.w3.org/2000/svg"
   xmlns:xlink="http://www.w3.org/1999/xlink"
   version="1.0"
   width="1000"
   height="500"
   id="svg1">
   <path
     d="M 0,0 1000,0 1000,500 0,500 z"
     id="rect1356"
     style="fill:#002b7f" />
  <path
     d="M 370.8887,-51.875267 A 56.168243,32.987698 0 1 1 258.55222,-51.875267 56.168243,32.987698 0 1 1 370.8887,-51.875267 z"
     transform="matrix(1.9771047,0,0,3.3664217,127.76464,424.63405)"
     id="path3764"
     style="fill:#ffa300;fill-opacity:1;stroke:none" />
  <path
     d="M 702.17456,309.00091 701.60027,313.80104 795.02232,313.84611 795.98178,309.00091 z"
     id="path4124"
     style="fill:#40721b;fill-opacity:1;stroke:none" />
  <path
     d="M 777.52084,308.84901 775.42751,314.25676 784.23687,314.60565 785.19633,308.84901 z"
     id="path4122"
     style="fill:#ce1126;fill-opacity:1;stroke:none" />
  <path
     d="M 714.78288,308.46087 712.68955,313.86862 721.4989,314.21751 722.45837,308.46087 z"
     id="path4120"
     style="fill:#ce1126;fill-opacity:1;stroke:none" />
  <path
     d="M 719.59814,191.03672 718.36428,204.85617 715.89655,216.94818 722.31269,232.74183 723.54655,239.40477 C 727.2003,242.58042 728.4107,245.26971 730.20952,249.76936 L 736.87248,250.50969 742.79507,249.27581 C 745.91718,242.98614 745.75383,237.73008 745.26285,231.0144 752.18818,232.65721 757.00171,235.59329 760.80973,241.13221 L 762.78391,250.01613 C 767.6323,251.03436 769.75341,250.31135 773.64207,247.79515 L 778.82434,240.63865 781.29212,231.26117 C 782.81626,225.76069 784.3498,220.26438 785.73408,214.7272 L 784.25344,206.09005 785.24053,193.99803 807.45033,215.96108 C 810.82627,258.12678 801.66278,258.66614 765.49847,274.44694 L 761.55005,293.20189 778.3308,307.51489 764.01783,309.24232 774.38238,319.85368 768.95333,330.46503 C 752.07992,334.90436 742.49382,333.59152 726.50787,327.7505 724.84068,324.52177 724.28517,321.85236 724.5337,318.37302 L 734.15793,308.99554 C 730.23725,307.99957 726.30599,308.36429 722.31269,308.50199 724.39332,304.08661 728.38581,301.33346 731.93698,298.13741 L 738.35312,296.1632 736.87248,285.05829 732.18375,268.77109 705.0384,252.23712 C 694.16331,214.40024 685.05102,207.51793 719.59814,191.03672 z"
     id="path4118"
     style="fill:#ffffff;stroke:none" />
  <path
     d="M 2.6318359e-5,2.4287068e-4 499.99954,2.4287068e-4 499.99954,250 2.6318359e-5,250 z"
     id="rect1359"
     style="fill:#002b7f" />
  <g
     transform="matrix(0.333333,0,0,0.333333,2.631836e-5,2.4287068e-4)"
     id="upper_half">
    <path
       d="M 625,228.64745 625,0 675,0 750,325 0,300 0,250 332.2949,250 0,83.852549 0,0 0,0 167.7051,0 z"
       id="upper_left_white"
       style="fill:#ffffff" />
    <use
       transform="matrix(-1,0,0,1,1500,0)"
       id="use1363"
       x="0"
       y="0"
       width="1000"
       height="500"
       xlink:href="#upper_left_white" />
    <path
       d="M 0,0 500,250 388.1966,250 0,55.901699 0,0 z M 1500,0 1000,250 888.1966,250 1388.1966,0 1500,0 z"
       id="upper_red_diagonals"
       style="fill:#ce1126" />
  </g>
  <use
     transform="matrix(-1,0,0,-1,499.99955,250.00023)"
     id="use1366"
     x="0"
     y="0"
     width="1000"
     height="500"
     xlink:href="#upper_half" />
  <path
     d="M 224.9998,2.4287068e-4 274.99975,2.4287068e-4 274.99975,100.00014 499.99953,100.00014 499.99953,150.00008 274.99975,150.00008 274.99975,249.99999 224.9998,249.99999 224.9998,150.00008 2.631836e-5,150.00008 2.631836e-5,100.00014 224.9998,100.00014 224.9998,2.4287068e-4 z"
     id="path1368"
     style="fill:#ce1126" />
  <path
     d="M 715.1942,159.29294 C 712.86909,160.53532 711.31351,163.3966 710.80076,166.06263 712.09146,172.31782 710.60416,178.70502 710.54431,185.08957 708.92872,182.15609 708.60405,178.70925 707.70651,175.44789 706.09092,171.99682 705.45027,166.78113 701.26159,165.80621 698.48348,169.91303 701.05656,174.99462 700.98807,179.61912 701.50957,182.2161 704.34743,184.50675 702.54376,187.43162 L 696.6117,179.08916 C 694.61149,176.87186 692.21843,173.54967 689.38047,173.61871 688.79918,179.08867 692.09841,182.93649 693.77396,187.43162 693.91914,187.92343 694.13282,188.39341 694.38938,188.83342 L 694.4919,188.83342 C 695.42248,190.40244 696.76067,191.84834 696.6117,193.5175 694.38074,191.93862 692.24403,190.24997 690.09847,188.66247 L 689.84201,188.66247 C 686.24114,186.05818 682.58528,183.80453 678.28567,183.00396 678.04644,185.20403 678.78993,187.08198 679.97812,188.83342 L 680.11488,188.83342 C 682.06969,191.61456 685.075,194.06428 686.79912,196.91944 L 686.28621,197.4323 C 682.79868,195.87066 679.43982,194.04977 676.21717,191.96184 674.08867,191.50459 672.01192,189.35739 669.75519,190.91903 669.75519,195.08628 672.39617,198.33859 675.1744,201.07357 671.6867,201.53091 667.81515,199.05468 664.33599,201.07357 665.04562,204.19685 668.78928,206.09674 669.75519,209.1596 666.46417,210.91965 662.08835,209.79594 658.66039,211.22811 659.50678,213.70426 661.95109,215.46365 663.31028,217.74138 L 662.52396,218.52776 C 659.81411,218.52776 657.76307,220.29295 655.56619,221.65618 655.89103,224.78808 659.75443,226.47486 661.24179,229.46868 658.72007,231.09936 655.94239,233.316 654.26696,235.98194 655.69447,237.9836 657.8483,239.02767 659.39551,240.56345 L 659.53227,240.56345 C 659.88813,240.95296 660.21116,241.35924 660.47254,241.8114 658.60038,244.34797 654.90804,245.91632 654.77981,249.36747 656.59201,251.44679 659.55777,251.58255 661.75465,253.28227 660.65191,255.30116 658.52358,257.11482 659.1733,259.52201 662.07106,261.09227 665.76329,260.89154 668.98588,261.60763 668.14819,263.68694 667.48999,265.84316 667.17385,268.12089 669.10558,270.65746 673.31947,269.55946 675.96072,270.20651 675.77281,272.29444 674.34518,274.56039 674.14868,276.9762 676.66176,278.59826 679.82418,277.18068 682.66203,277.24972 684.34617,276.8528 684.53397,278.73518 684.73058,279.84819 685.24349,283.48915 688.8675,280.48925 691.19256,281.40385 L 693.77396,285.83151 C 695.19283,285.96088 696.47494,285.70927 697.63742,285.06222 699.70618,283.75942 700.68036,286.1705 701.51805,287.40426 703.00547,289.75103 705.13353,287.40426 706.9372,287.40426 708.28791,288.06002 708.80902,289.48872 709.77505,290.53268 711.70684,291.63707 712.80076,289.23461 714.15142,288.19064 716.73288,286.81889 717.71559,290.78429 719.84409,291.30197 722.29737,289.28308 725.00651,288.642 728.10109,289.7463 731.52018,286.81291 731.13545,282.25521 731.45175,278.01901 731.71668,277.30292 731.97303,276.12078 733.00738,276.18982 734.23703,281.33409 737.20826,286.9789 735.11006,292.12253 L 735.0588,292.12253 C 734.74256,292.81277 734.32374,293.56035 733.77669,294.27653 727.58774,298.77157 723.18687,308.78454 713.63851,305.7303 709.7663,309.18146 702.67215,305.14516 699.70596,310.15796 699.12467,311.84897 699.5093,313.81276 700.73167,315.11556 703.05673,316.54774 706.93709,316.14368 709.00574,315.88484 710.42472,316.73031 711.76646,317.52896 713.63851,317.20117 715.25421,314.66461 716.99754,317.13834 718.80131,317.4576 720.67336,317.52655 722.22024,315.17233 723.964,316.41479 722.22024,319.27924 720.22883,321.9484 719.58763,325.2701 719.39108,327.61687 723.1948,326.96277 722.16903,329.69775 722.74179,331.71665 724.87855,331.00444 726.03255,332.03979 726.16931,335.43053 729.89595,334.52714 731.96455,335.44174 732.6058,341.3 738.99918,334.64715 740.22155,340.12582 741.58074,340.12582 742.61482,339.21479 743.84573,338.82658 745.39294,339.01638 746.54666,340.78157 747.45284,341.955 750.0343,344.03431 750.99994,340.5732 752.87199,339.33944 L 757.52188,341.16862 760.61608,337.52735 C 764.232,340.19338 765.51367,334.8502 768.87308,335.95459 771.19819,336.22205 770.93304,333.54708 771.96728,332.31332 775.96789,332.90003 775.3861,327.28676 779.19858,327.35571 779.45503,322.80026 775.38643,320.13573 774.29223,316.15837 775.83949,315.25239 777.07872,316.61205 778.17286,317.4576 780.55777,318.24273 781.78835,316.21504 783.59201,315.62841 786.88315,320.77059 790.17336,313.68329 794.43041,315.11556 796.37084,314.4598 798.16564,312.43568 797.78107,310.15796 797.32795,309.11399 796.68698,307.7579 795.45612,307.55949 789.07051,308.34462 784.75492,304.04411 778.17286,305.21745 L 767.33452,294.78938 C 766.20618,294.01296 765.38561,293.10608 764.82155,292.12253 L 764.73605,292.12253 C 762.66247,288.29594 764.20476,283.31406 765.26597,279.31824 765.39425,278.54173 766.23184,277.2449 767.33452,277.76258 769.8477,281.28269 768.42839,286.87954 772.49726,290.00273 773.71964,290.71891 775.07855,290.98878 776.10437,289.7463 777.78824,288.18466 779.59168,290.20373 780.49781,291.57549 781.84841,291.76537 782.68594,290.6609 783.59201,289.7463 785.53255,288.11571 787.2076,290.46132 789.01121,290.78911 789.97719,290.00398 790.75487,288.69595 791.59256,287.66069 793.13982,286.7461 794.16521,288.51129 795.45612,288.95992 797.84103,289.68472 797.91778,286.03108 799.5931,284.7887 801.46526,284.72828 802.8239,285.96088 804.75591,285.83151 L 806.8244,282.19023 C 808.88452,279.78303 811.47401,282.39106 814.05569,281.9338 L 817.40634,276.9762 822.82549,276.71977 C 824.24453,275.15813 824.18452,272.94523 824.12472,270.73646 826.83446,268.9764 830.62926,269.89082 833.66384,268.90727 833.86045,266.56912 832.51001,264.08145 831.61242,261.86405 834.19398,260.56134 837.61263,261.2229 840.38227,260.30839 841.28829,257.04703 837.9291,254.57155 837.28802,251.96594 L 845.28856,248.06824 C 845.16034,245.13476 841.48484,244.15817 840.38227,241.8114 840.99557,241.35844 841.6233,240.96328 842.26269,240.58055 L 842.53621,240.58055 C 844.3058,239.55382 846.13479,238.7108 847.86991,237.5547 L 848.12636,236.23837 C 845.67308,233.57234 842.51077,231.68732 839.35656,230.25506 L 839.10011,229.46868 844.77571,224.25465 844.77571,222.95541 C 842.51045,220.6776 839.09174,221.06316 836.50164,219.57056 837.79239,216.8355 841.93785,215.92415 842.45076,212.80087 840.83512,210.91135 838.44217,211.04314 836.24518,210.71526 834.76646,210.71526 833.0913,211.75922 831.86882,210.71526 833.48452,207.72144 837.03156,206.22454 837.80087,202.90276 832.77456,200.88387 827.66362,204.27228 823.08194,204.98837 824.44097,202.8401 826.11624,201.13748 828.24464,199.77434 830.24502,197.88482 834.24513,195.99846 833.15098,193.00465 828.18452,193.00465 824.04803,194.95848 819.98769,197.17587 817.0215,198.21984 814.5686,201.34228 811.73074,201.85995 813.79075,199.19401 817.14114,197.55413 819.45777,194.56031 820.96761,192.90229 821.25678,190.73451 822.21006,188.83342 L 822.31263,188.83342 C 822.74004,188.03105 823.29551,187.29214 824.12472,186.66233 824.32133,185.16111 825.99677,183.7188 824.63758,182.21758 820.36307,183.29621 816.38331,185.71669 812.87609,188.69666 L 812.68807,188.69666 C 810.53391,190.56894 808.57675,192.65976 806.8244,194.81674 L 806.29442,194.30388 C 807.49732,192.54563 808.25995,190.64019 809.30317,188.83342 L 809.38867,188.83342 C 810.07254,187.67732 810.86734,186.57736 811.98714,185.60243 813.53435,182.21169 816.6372,178.11499 814.31209,174.40508 807.6977,176.40021 804.2047,183.55616 800.34529,188.64537 L 800.20853,188.64537 C 800.08889,188.80061 799.96925,188.93453 799.84956,189.08985 799.72133,188.95177 799.62729,188.81779 799.54185,188.66247 L 799.47347,188.66247 C 799.12954,187.89983 799.18375,187.00057 799.0803,186.13238 802.75591,181.31809 802.61893,174.80392 803.20022,168.6782 803.26006,167.64285 802.37117,166.45831 801.40525,167.10544 797.33627,170.1683 796.24256,174.85296 794.43041,179.08916 L 793.9175,178.57631 793.9175,168.14825 C 793.66116,165.34422 792.67828,161.89864 789.78052,161.12212 786.81428,164.04699 787.97702,168.66989 786.68627,172.31947 785.53227,172.31947 785.32735,170.94995 784.61772,170.23386 784.23315,169.84556 783.33556,169.85163 783.07921,170.50738 782.74075,176.68053 782.7256,182.68474 782.89114,188.64537 782.89289,188.70807 782.88933,188.77074 782.89114,188.83342 783.14294,197.53459 783.79272,206.09763 784.36132,214.88648 780.39737,222.74266 780.98441,232.46776 778.53151,237.75018 776.07861,243.03259 774.4122,245.45036 771.96728,247.53829 769.71066,249.29834 766.94157,247.48153 764.24026,248.06824 762.75301,246.23914 762.88129,243.70333 762.17177,241.55497 762.02647,241.15814 761.8727,240.78057 761.71017,240.4096 L 761.64179,240.4096 C 757.66143,231.51157 747.59557,229.00127 739.7087,225.8274 738.80689,225.7325 737.64458,225.51876 736.54606,225.50259 735.4477,225.48643 734.42199,225.67143 733.77669,226.35735 736.6146,227.78953 739.58895,229.41589 741.52079,232.34067 L 741.00793,232.87062 C 738.62297,232.02516 735.84546,231.28683 733.26378,231.55429 734.8111,235.91995 739.96493,236.44558 742.5465,239.89674 742.57215,240.1124 742.6064,240.33909 742.63194,240.56345 L 742.64907,240.56345 C 742.98364,243.49934 743.04858,246.80303 740.22155,248.5811 738.0931,250.01327 737.13599,247.1549 735.33233,247.02543 733.52013,246.82702 731.25525,248.64384 729.89606,246.49548 729.614,244.07105 727.95591,242.2476 726.13014,240.18041 724.30437,238.11322 722.54048,235.78989 723.4512,232.34067 720.28829,226.02515 718.22007,219.31605 718.032,211.75806 718.9314,204.20471 721.32035,196.54861 722.44256,188.83342 L 722.47675,188.83342 C 723.33156,182.83708 723.40853,176.80325 721.38266,170.76381 719.45076,170.89319 719.19458,173.24518 717.51914,173.89223 L 717.00629,173.36228 C 717.13452,169.19503 716.86099,165.21792 716.21991,161.37855 z M 717.26269,196.91944 C 717.39103,200.82785 718.28845,204.73467 716.47637,208.11679 717.05755,204.40688 711.1337,199.19717 717.26269,196.91944 z M 786.42987,200.03077 C 787.91717,200.09972 787.78884,201.80087 788.49836,202.64633 787.91707,204.79468 786.36138,207.19872 787.45558,209.41602 788.8745,208.50152 788.75476,206.0189 790.56685,205.50123 790.30197,208.30525 789.26767,211.37615 787.45558,213.84368 785.52358,209.87485 785.66039,204.45677 786.42987,200.03077 z M 712.3564,203.15919 C 713.97199,205.24712 713.71537,208.56209 714.42494,211.22811 713.00585,209.07976 710.61258,205.89425 712.3564,203.15919 z M 793.4047,208.62965 C 793.07976,211.10588 790.94316,213.45547 789.26761,215.67286 L 789.01121,215.67286 C 789.20782,213.12768 791.40432,210.32937 793.4047,208.62965 z M 709.5186,208.90317 C 711.26242,210.00756 712.28796,212.34005 713.63851,214.10011 712.60421,219.24228 711.76657,224.12809 712.86925,229.46868 711.12544,229.53772 709.8349,228.50214 708.47582,227.65659 707.83457,226.74208 707.57833,225.70151 707.70651,224.52817 708.99732,223.94145 710.16821,226.73204 711.58709,225.04102 711.26236,222.49575 708.03134,221.65229 707.19365,219.31414 709.0657,218.00271 710.87757,222.04912 712.1,219.31414 711.32204,217.09674 706.99699,216.26431 708.21936,213.33082 L 710.80076,214.63006 C 710.92883,212.4817 708.86898,210.92206 709.5186,208.90317 z M 793.9175,213.33082 C 794.7553,213.20145 795.13993,214.17039 794.94321,214.88648 794.42188,217.43167 791.268,219.18717 789.26761,220.88689 788.42144,218.01383 791.85749,215.60855 793.9175,213.33082 z M 795.19967,219.84409 C 796.3622,220.30134 795.19967,221.06946 795.19967,221.65618 794.03709,223.48527 791.65257,223.4115 789.78052,223.99822 790.4215,222.23808 793.07117,220.43072 795.19967,219.84409 z M 792.61827,225.04102 C 793.00301,225.04102 793.72095,224.98426 793.6611,225.57098 793.78933,228.04712 790.943,226.86905 789.78052,227.91302 789.07089,226.4118 791.52418,225.5587 792.61827,225.04102 z M 739.7087,227.91302 C 742.29026,227.78364 744.2303,229.73506 744.10219,232.34067 743.52079,233.64347 744.4186,236.04857 742.29004,236.23837 740.48638,236.109 739.05924,235.14478 737.64015,234.16985 739.38402,233.32439 741.97379,235.92384 743.58928,233.89633 743.91422,231.23039 741.25591,229.80253 739.7087,227.91302 z M 719.84409,231.04143 C 721.69907,233.63842 720.83545,237.68177 722.56225,240.56345 L 722.68189,240.56345 C 723.11531,241.22776 723.68222,241.83197 724.47691,242.32426 727.05837,244.02398 727.77626,246.94925 728.61389,249.6239 728.81061,252.03109 727.51996,254.11703 725.51969,255.35079 724.42554,255.41974 723.63922,254.643 723.7076,253.5387 723.25454,252.69315 724.68211,251.97938 723.4512,251.45309 722.10054,252.36759 720.86138,254.2572 719.05771,253.28227 718.41657,251.45318 720.10054,249.95535 720.61335,248.32467 718.55328,248.06583 717.06624,251.51101 714.42494,249.88033 713.8436,247.67164 715.707,246.50146 716.73277,244.93982 714.6727,243.76648 713.12582,246.10463 711.05716,244.93982 711.18539,243.04168 714.34792,242.39687 715.96345,241.02502 715.69852,240.84385 715.3994,240.65082 715.09163,240.44379 L 714.8523,240.44379 C 713.59097,239.5585 712.24458,238.40646 712.1,236.76832 714.4849,235.46552 716.09163,239.25442 718.2884,237.5547 718.34836,235.60485 716.03184,233.90472 717.26269,232.08424 718.16887,232.47254 718.8099,233.45376 719.58763,234.16985 721.20339,233.7126 719.77571,232.0854 719.84409,231.04143 z M 783.07921,231.29786 C 783.53222,232.47129 782.11318,233.51178 783.33561,234.42628 784.75459,234.29691 784.75437,232.47379 786.42987,232.87062 787.72057,235.60569 782.16444,236.64765 784.61772,238.59751 786.03681,238.07983 787.71198,236.4479 789.26761,237.81113 789.22035,239.23699 787.98747,239.72222 787.01105,240.3925 L 786.77177,240.3925 C 786.38709,240.69443 786.06242,241.06324 785.91696,241.55497 788.17379,241.68444 790.30186,242.52035 791.59256,244.40987 791.98588,245.45384 790.81477,245.83857 790.03692,245.7091 788.0965,246.0974 786.09666,244.93259 784.61772,245.7091 785.7803,247.728 788.82319,248.05869 788.49836,250.92314 785.84841,251.9671 784.16488,249.1654 781.77998,248.83752 781.13025,250.72704 784.24168,251.71581 783.84847,253.79513 781.46356,254.58026 779.72018,252.15449 777.91641,251.17956 777.46345,252.42195 778.29256,253.72493 778.94212,254.83793 777.07007,255.75244 775.19847,254.383 774.29223,252.75232 771.71077,249.04233 776.55733,246.49896 777.66001,243.36706 778.52122,242.51429 779.15142,241.56608 779.66017,240.56345 L 779.74562,240.56345 C 781.18167,237.62135 781.5576,234.22273 783.07921,231.29786 z M 748.42724,233.34928 C 748.74994,233.33204 749.00848,233.40887 749.00848,233.89633 749.06832,234.42262 748.94021,235.26701 748.23917,234.93914 L 747.45284,234.93914 747.45284,233.38348 C 747.70919,233.48268 748.10454,233.36653 748.42724,233.34928 z M 755.70979,238.06756 C 756.96635,238.63703 757.94923,239.51949 758.68435,240.56345 L 758.78692,240.56345 C 760.0477,242.4655 760.57467,244.90914 760.61608,247.28186 758.09442,256.53086 759.3849,267.34488 763.45394,275.42054 L 762.42822,281.9338 C 759.00891,281.41613 761.45383,285.56919 760.35968,287.13074 759.93911,288.91184 759.16307,290.54588 758.257,292.12253 L 758.15437,292.12253 C 757.53895,293.20098 756.86373,294.25804 756.22265,295.31933 L 757.52188,296.08862 C 755.97467,301.041 753.97489,306.05595 749.52133,309.6451 744.42664,306.5132 742.48676,300.65992 741.00793,295.31933 L 742.80295,295.31933 C 742.67461,294.25804 742.27292,293.19221 741.77724,292.13963 L 741.69174,292.13963 C 740.97593,290.65531 740.07965,289.15214 739.4523,287.66069 738.16143,285.6331 741.12779,281.59124 737.89661,281.66028 L 737.38375,282.19023 C 732.3489,272.94123 741.12757,264.99662 740.47801,255.35079 741.18747,253.65969 738.80246,250.6643 742.03364,250.92314 746.5471,251.05251 750.48703,248.64375 752.87199,244.6663 753.61154,243.52166 753.64918,241.96446 753.93189,240.58055 L 753.96608,240.58055 C 754.21395,239.51072 754.63271,238.56799 755.70979,238.06756 z M 760.35968,296.36214 C 762.23173,298.57083 765.00946,298.4295 767.33452,299.47346 769.77932,301.49244 772.29201,303.72368 774.29223,306.26025 768.93266,305.803 761.51389,308.91748 758.29114,302.60188 z M 738.59748,297.9178 C 739.64305,297.98174 740.35771,299.05582 740.47801,302.08903 737.70831,307.94738 730.47768,307.17003 724.73331,306.77311 725.05815,304.8836 727.89589,303.19583 729.6396,301.8326 732.39004,302.50286 736.29743,297.77716 738.59748,297.9178 z M 739.4523,307.30306 C 736.16116,311.72914 731.32385,314.59565 727.58818,319.03036 L 726.80186,319.03036 C 727.18643,315.38078 731.76783,313.61036 734.28949,310.94433 z M 755.96619,307.30306 756.75262,307.30306 C 762.04376,312.51427 765.97511,317.58506 770.42877,323.18449 770.49715,324.03003 770.42029,324.82147 769.64234,325.2701 765.19743,319.02363 759.83856,313.81707 755.96619,307.30306 z M 759.59037,307.30306 C 764.30044,310.68518 768.09502,315.17747 772.22374,319.54321 L 772.22374,320.32959 C 767.51373,316.68002 763.52254,311.72914 759.59037,307.30306 z M 754.94048,309.11515 766.29168,325.2701 C 766.16351,325.92585 766.61657,326.77149 765.77888,327.09928 762.67587,321.10303 755.97489,315.888 754.94048,309.11515 z M 771.06127,309.54253 C 772.43966,309.52528 773.77505,309.80787 774.54868,310.68791 774.29223,311.53345 774.17265,312.44323 773.26652,313.02995 770.81324,314.00488 769.13818,311.46076 767.33452,310.15796 768.27051,309.8646 769.68287,309.55978 771.06127,309.54253 z M 792.58413,309.57672 C 793.68249,309.55946 794.65257,309.74315 795.19967,310.68791 794.42177,314.99315 789.01149,312.24482 785.91696,313.02995 786.10514,311.26989 788.04529,310.49065 789.26761,309.6451 790.26783,309.80473 791.48561,309.59398 792.58413,309.57672 z M 782.42954,309.61091 C 783.16367,309.59474 783.8442,309.67049 784.36132,310.15796 784.42117,311.39172 783.07068,312.44564 782.03638,312.77352 780.80541,313.29119 779.07883,313.03111 778.42932,311.98714 778.11296,310.55488 779.2669,310.03331 780.24135,309.6451 780.91674,309.74 781.69557,309.62708 782.42954,309.61091 z M 717.63884,309.86734 C 718.41449,309.86734 719.19868,309.9638 719.84409,310.15796 720.55355,311.26234 719.83566,312.90049 718.54486,313.02995 716.67281,312.84015 715.44217,313.49202 713.89496,312.51709 714.15142,311.6025 714.68129,310.81362 715.45065,310.15796 716.09595,309.9638 716.86302,309.86734 717.63884,309.86734 z M 728.61389,309.86734 C 729.25935,309.86734 729.9088,309.9638 730.42604,310.15796 728.93862,311.00351 727.45164,314.85904 724.73331,313.02995 724.54529,311.72715 725.89568,310.81362 726.80186,310.15796 727.31898,309.9638 727.9686,309.86734 728.61389,309.86734 z M 740.22155,309.90153 C 738.73419,314.91432 731.7681,318.04231 729.3832,323.18449 L 728.87035,323.18449 C 730.48594,317.8439 736.34929,314.06877 740.22155,309.90153 z M 743.31575,309.90153 C 741.5122,315.82883 736.42653,320.45705 733.77669,326.05648 733.32352,326.25498 733.0587,325.80246 732.73386,325.54362 735.64021,320.06504 739.0588,314.32761 743.31575,309.90153 z M 745.1279,309.90153 C 744.60645,316.54492 741.3157,322.73992 739.4523,329.1849 738.67429,329.90099 737.70859,328.85818 737.38375,328.14209 738.80273,321.56774 742.54628,315.9582 745.1279,309.90153 z M 705.3303,310.03829 C 707.23463,309.9634 709.60667,310.56076 711.31356,310.15796 L 711.84354,310.68791 C 711.90339,311.93029 710.5529,312.96711 709.5186,313.28637 707.26187,313.41575 703.70634,314.40054 702.28731,312.24357 702.6576,310.56385 703.84901,310.09654 705.3303,310.03829 z M 752.61553,310.94433 753.12844,310.94433 C 755.32522,316.47472 759.64163,321.17198 760.87254,327.09928 761.12899,328.01387 760.04349,329.10979 759.33397,328.91137 757.59015,322.72524 753.64135,317.44973 752.61553,310.94433 z M 747.45284,312.24357 C 747.51258,317.85161 750.23118,325.80037 744.10219,329.44132 L 743.31575,329.44132 C 742.99961,322.99635 745.58069,317.52374 747.45284,312.24357 z M 750.03419,312.24357 750.8035,312.24357 C 753.00033,317.59278 754.0431,323.70141 753.91477,329.69775 746.29847,326.43648 751.00011,317.85161 750.03419,312.24357 z"
     id="path2900"
     style="fill:#231f20;fill-opacity:1;fill-rule:evenodd;stroke:none" />
</svg>
