<?xml version="1.0" encoding="utf-8"?>
<!-- Generator: Adobe Illustrator 17.0.0, SVG Export Plug-In . SVG Version: 6.00 Build 0)  -->
<!DOCTYPE svg PUBLIC "-//W3C//DTD SVG 1.1//EN" "http://www.w3.org/Graphics/SVG/1.1/DTD/svg11.dtd">
<svg version="1.1" id="senyera_coronada" xmlns="http://www.w3.org/2000/svg" xmlns:xlink="http://www.w3.org/1999/xlink" x="0px"
	 y="0px" width="675px" height="450px" viewBox="0 0 675 450" enable-background="new 0 0 675 450" xml:space="preserve">
<rect id="tafatà" y="0.996" fill="#0072BC" width="225" height="448.009"/>
<g id="senyera">
	<rect id="or" x="219.812" y="0.996" fill="#FCDD09" width="455.188" height="448.009"/>
	<rect id="barra_3" x="219.812" y="249.889" fill="#DA121A" width="455.188" height="49.779"/>
	<rect id="barra_2" x="219.812" y="349.447" fill="#DA121A" width="455.188" height="49.779"/>
	<rect id="barra_1" x="219.812" y="150.332" fill="#DA121A" width="455.188" height="49.779"/>
	<rect id="barra_0" x="219.812" y="50.774" fill="#DA121A" width="455.188" height="49.779"/>
</g>
<g id="corona">
	<rect id="rect3959" x="175.542" y="0.996" fill="#DA121A" width="49.766" height="448.009"/>
	<g id="florons">
		<g id="g3981">
			<g>
				<g>
					<path id="path3989" fill="#FCDD09" stroke="#000000" stroke-width="0.5" d="M102.723,409.472c0,0-20.386,45.064-29.51,23.461
						c0,0,2.643,1.02,4.621-0.997c1.774-1.818,1.587-3.514-0.504-6.038c-2.231-2.707-8.645-1.511-9.919,1.702
						c-2.935,7.389,3.951,17.155,10.272,16.722c16.557-1.122,18.413-18.871,29.432-34.013
						C107.779,409.394,102.723,409.472,102.723,409.472L102.723,409.472z"/>
				</g>
			</g>
		</g>
		<path id="path3993" fill="#FCDD09" stroke="#000000" stroke-width="0.5" d="M103.056,357.55c0,0-20.386-45.063-29.51-23.46
			c0,0,2.647-1.02,4.62,1.003c1.774,1.813,1.588,3.509-0.498,6.037c-2.238,2.703-8.65,1.512-9.926-1.705
			c-2.929-7.389,3.952-17.15,10.272-16.722c16.557,1.122,18.414,18.871,29.432,34.013
			C108.111,357.627,103.056,357.55,103.056,357.55L103.056,357.55L103.056,357.55z"/>
		<path id="path3997" fill="#FCDD09" stroke="#000000" stroke-width="0.5" d="M171.576,368.152
			c-2.944,5.643-26.906,14.762-26.906,14.762s23.449,8.857,26.614,14.831l0.293,8.727c-11.937-16.212-23.766-17.705-32.997-18.201
			c-6.55-0.349-5.935,3.471-4.733,4.998c10.706,13.625-3.107,17.489-5.237,28.763c-0.108,0.564-1.715-1.915-2.226-5.173
			c-0.343-2.149,0.331-5.318,0.331-5.318c-4.761,7.928-10.809,1.59-14.506,9.456c0,0-0.767-1.249-1.153-1.619
			c-1.061-1.003-4.474-0.496-4.968-9.45c-0.019-0.311-3.907,0.715-3.907,0.715c2.16-7.41,21.076-15.649,16.152-20.451
			c-5.558-5.43-5.993,11.608-14.697,12.766c-0.498,0.068,1.296-4.929,1.296-4.929c-4.06,0.225-5.867,4.929-6.341,7.7l-0.952-2.566
			c-3.942-2.216,0.952-13.319-0.84-15.221c-1.398-1.482-6.052,4.623-8.078,5.616c-2.014,0.982-13.408,0.982-7.829,7.904
			c0.444,0.554-1.138-3.092,1.495-3.573c2.91-0.531,2.808,2.878,2.804,3.214c-0.025,1.424-2.608,4.879-6.663,2.921
			c-0.229-0.113-7.819-5.619,2.077-13.45c0,0-6.057,3.699-12.436-2.938c-1.363-1.419-3.198-3.214-5.402-4.589
			c2.199-1.382,3.815-3.047,5.173-4.472c6.355-6.65,12.425-2.98,12.425-2.98c-9.929-7.792-2.354-13.328-2.124-13.44
			c4.043-1.974,6.641,1.472,6.671,2.898c0.01,0.335,0.123,3.743-2.794,3.219c-2.631-0.472-1.064-4.123-1.51-3.564
			c-5.553,6.943,5.847,6.903,7.859,7.877c2.032,0.982,6.71,7.096,8.102,5.609c1.784-1.906-3.149-13.018,0.782-15.244l0.948-2.571
			c0.479,2.767,2.306,7.472,6.365,7.681c0,0-1.812-4.998-1.315-4.929c8.709,1.128,9.206,18.167,14.746,12.713
			c4.904-4.822-14.043-12.989-16.23-20.388c0,0,3.893,1.011,3.907,0.699c0.465-8.959,3.878-8.462,4.934-9.469
			c0.39-0.374,1.148-1.624,1.148-1.624c3.726,7.852,9.754,1.493,14.541,9.402c0,0-0.684-3.17-0.353-5.317
			c0.504-3.259,2.096-5.746,2.209-5.181c2.172,11.263,15.995,15.084,5.343,28.743c-1.192,1.532-1.797,5.352,4.753,4.978
			c9.226-0.526,21.051-2.06,32.93-18.316L171.576,368.152L171.576,368.152z"/>
		<path id="path3999" fill="none" stroke="#000000" stroke-width="0.5" d="M97.639,403.162c1.294-11.02,10.608-14.604,10.398-19.99
			c-0.215-5.391-9.627-11.024-10.687-20.231 M110.606,419.175c-7.35-15.219,16.239-20.291,15.464-35.992
			c-0.743-14.914-22.975-21.51-15.606-36.207 M144.385,383.012l-81.62,0.03"/>
		<path id="path4001" fill="#FCDD09" stroke="#000000" stroke-width="0.5" d="M136.951,298.875
			c-2.583-7.135-10.139-9.066-14.423-9.211c-4.816-0.166-12.332,6.363-16.918,9.211c-4.084,2.527-11.503-0.792-12.675-3.652
			c-2.618-6.402,1.51-7.631,3.467-7.262c0,0-2.426,4.617,1.617,4.024c2.549-0.374,3.169-4.128,2.754-5.639
			c-0.83-2.99-5.055-2.659-6.754-2.158c-5.496,1.619-4.576,9.266-2.749,12.197c2.715,4.356,9.509,5.027,13.837,4.393
			c6.55-0.952,11.932-7.715,15.844-7.548c1.036,0.044,2.096,3.632,1.079,3.816c-6.624,1.206-5.748,5.893-5.748,5.893v0.083
			c0,0-0.876,4.647,5.748,5.853c1.017,0.186-0.303,3.855-1.333,3.899c-3.917,0.166-9.041-6.679-15.591-7.632
			c-4.327-0.632-11.12,0.039-13.837,4.393c-1.827,2.931-2.745,10.579,2.749,12.197c1.7,0.502,5.925,0.831,6.754-2.157
			c0.415-1.507-0.205-5.265-2.754-5.639c-4.043-0.594-1.617,4.024-1.617,4.024c-1.957,0.369-6.086-0.856-3.467-7.263
			c1.172-2.859,8.591-6.179,12.675-3.652c4.586,2.85,12.102,9.378,16.918,9.212c4.284-0.151,11.839-2.075,14.423-9.212v-8.171h0.001
			V298.875z"/>
		<path id="path4005" fill="#FCDD09" stroke="#000000" stroke-width="0.5" d="M170.125,294.188
			c-0.913,4.731-12.752,8.794-12.752,8.794s11.668,6.056,13.339,11.034l-0.293,5.727c-3.751-12.883-18.317-13.879-18.317-13.879
			c3.062,4.356,5.813,10.394-1.627,16.369c0,0,2.179-5.562,1.061-6.908c0,0-1.002,3.486-5.187,6.717
			c-1.745,1.346-6.38,1.123-8.504,2.368l1.812-5.663c-2.188,4.604-8.44,5.225-8.44,5.225c-0.361-1.571-0.176-5.396,1.748-8.337
			c3.63-5.537,2.75-9.461,2.75-9.461c-3.126,6.908-15.376,7.53-17.691,5.785c-0.313-0.235,2.749-3.234,2.749-3.234
			c-1.123,0.184-4.19-1.994-4.126-2.615c0.088-0.875,2.13-2.801,2.5-3.359c0,0-2.325-1.901-2.413-2.781
			c-0.064-0.623,2.998-2.796,4.122-2.61c0,0-3.062-2.999-2.749-3.237c2.315-1.741,14.564-1.119,17.695,5.789
			c0,0,0.874-3.923-2.749-9.461c-1.93-2.941-2.116-6.766-1.755-8.337c0,0,6.252,0.623,8.44,5.225l-1.812-5.662
			c2.124,1.244,6.759,1.015,8.504,2.362c4.191,3.239,5.187,6.722,5.187,6.722c1.119-1.346-1.059-6.907-1.059-6.907
			c7.438,5.973,4.689,12.007,1.627,16.362c0,0,14.564-0.993,18.315-13.873L170.125,294.188L170.125,294.188z"/>
		<path id="path4009" fill="#FCDD09" stroke="#000000" stroke-width="0.5" d="M101.199,304.518c-4,0.122-9.514,2.94-14.462,2.197
			c-3.585-0.541-10.047-4.77-10.047-4.77s6.506-3.363,9.753-4.108c5.29-1.216,10.628,3.397,14.63,3.486
			C101.873,301.34,102,304.495,101.199,304.518L101.199,304.518L101.199,304.518z"/>
		<path id="path4013" fill="#FCDD09" stroke="#000000" stroke-width="0.5" d="M101.301,296.467c2.228-0.496,1.774,6.35,1.774,6.35
			c0,0.949,0.289,5.975-1.774,6.389c-2.354-0.292-1.73-6.431-1.73-6.431S99.324,296.386,101.301,296.467L101.301,296.467
			L101.301,296.467z"/>
		<path id="path4015" fill="#FCDD09" stroke="#000000" stroke-width="0.5" d="M116.242,302.73l41.385,0.291 M139.37,319.408
			l5.92-16.509 M145.288,302.9l-5.793-16.222"/>
		<path id="path4017" fill="#FCDD09" stroke="#000000" stroke-width="0.5" d="M103.056,249.513c0,0-20.386,45.069-29.51,23.465
			c0,0,2.647,1.017,4.62-1.001c1.774-1.813,1.588-3.51-0.498-6.038c-2.238-2.703-8.65-1.512-9.926,1.705
			c-2.929,7.39,3.952,17.152,10.272,16.724c16.557-1.123,18.414-18.871,29.432-34.013
			C108.111,249.441,103.056,249.513,103.056,249.513L103.056,249.513L103.056,249.513z"/>
		<path id="path4021" fill="#FCDD09" stroke="#000000" stroke-width="0.5" d="M103.392,197.597c0,0-20.39-45.069-29.509-23.465
			c0,0,2.641-1.017,4.615,1.001c1.774,1.818,1.592,3.51-0.498,6.039c-2.238,2.703-8.65,1.512-9.926-1.705
			c-2.93-7.39,3.951-17.15,10.272-16.724c16.557,1.124,18.413,18.871,29.432,34.013C108.443,197.67,103.392,197.597,103.392,197.597
			L103.392,197.597L103.392,197.597z"/>
		<path id="path4025" fill="#FCDD09" stroke="#000000" stroke-width="0.5" d="M171.907,208.194
			c-2.944,5.643-26.903,14.763-26.903,14.763s23.444,8.857,26.61,14.831l0.293,8.732c-11.937-16.213-23.767-17.71-32.999-18.201
			c-6.55-0.35-5.93,3.471-4.733,4.997c10.707,13.622-3.105,17.491-5.235,28.764c-0.108,0.564-1.71-1.915-2.228-5.179
			c-0.341-2.142,0.333-5.312,0.333-5.312c-4.763,7.923-10.809,1.584-14.506,9.456c0,0-0.763-1.249-1.153-1.619
			c-1.056-1.003-4.474-0.497-4.968-9.45c-0.02-0.311-3.902,0.709-3.902,0.709c2.155-7.409,21.069-15.642,16.152-20.451
			c-5.563-5.43-5.998,11.608-14.702,12.771c-0.498,0.068,1.294-4.929,1.294-4.929c-4.059,0.218-5.861,4.929-6.335,7.695
			l-0.958-2.561c-3.941-2.217,0.953-13.321-0.84-15.226c-1.397-1.477-6.052,4.628-8.078,5.616
			c-2.012,0.982-13.406,0.982-7.828,7.908c0.444,0.556-1.134-3.091,1.495-3.573c2.91-0.534,2.813,2.879,2.803,3.214
			c-0.024,1.42-2.608,4.875-6.663,2.916c-0.23-0.108-7.819-5.619,2.076-13.451c0,0-6.057,3.701-12.435-2.93
			c-1.363-1.42-3.199-3.219-5.402-4.589c2.198-1.387,3.813-3.048,5.172-4.472c6.355-6.655,12.426-2.98,12.426-2.98
			c-9.931-7.792-2.355-13.329-2.125-13.441c4.043-1.973,6.642,1.473,6.671,2.894c0.01,0.335,0.123,3.747-2.793,3.224
			c-2.631-0.472-1.061-4.123-1.51-3.569c-5.553,6.947,5.847,6.903,7.858,7.881c2.032,0.982,6.71,7.096,8.103,5.611
			c1.782-1.906-3.151-13.023,0.782-15.249l0.948-2.566c0.483,2.762,2.309,7.466,6.364,7.676c0,0-1.812-4.998-1.309-4.929
			c8.704,1.132,9.203,18.166,14.742,12.717c4.903-4.827-14.043-12.994-16.225-20.393c0,0,3.892,1.011,3.907,0.699
			c0.459-8.959,3.878-8.462,4.933-9.469c0.386-0.369,1.143-1.624,1.143-1.624c3.727,7.852,9.754,1.492,14.541,9.402
			c0,0-0.684-3.17-0.351-5.313c0.503-3.262,2.101-5.745,2.208-5.183c2.172,11.259,15.995,15.081,5.343,28.744
			c-1.192,1.527-1.797,5.347,4.753,4.978c9.231-0.526,21.051-2.066,32.93-18.322L171.907,208.194L171.907,208.194z"/>
		<path id="path4027" fill="none" stroke="#000000" stroke-width="0.5" d="M97.97,243.205c1.294-11.017,10.614-14.599,10.4-19.99
			c-0.215-5.391-9.628-11.02-10.687-20.232 M110.938,259.222c-7.35-15.221,16.24-20.291,15.464-35.992
			c-0.737-14.914-22.975-21.51-15.605-36.207 M144.723,223.059l-81.625,0.03"/>
		<path id="path4029" fill="#FCDD09" stroke="#000000" stroke-width="0.5" d="M102.39,91.219c0,0-20.385,45.069-29.509,23.465
			c0,0,2.641,1.017,4.62-1.001c1.774-1.813,1.588-3.51-0.503-6.039c-2.236-2.703-8.65-1.512-9.926,1.705
			c-2.93,7.39,3.956,17.15,10.277,16.724c16.557-1.124,18.409-18.871,29.427-34.013C107.441,91.145,102.39,91.219,102.39,91.219
			L102.39,91.219L102.39,91.219z"/>
		<g id="g4033">
			<g>
				<g>
					<path id="path4041" fill="#FCDD09" stroke="#000000" stroke-width="0.5" d="M102.723,39.3c0,0-20.386-45.069-29.51-23.465
						c0,0,2.643-1.017,4.621,1.001c1.774,1.813,1.587,3.51-0.504,6.039c-2.231,2.703-8.645,1.512-9.919-1.705
						c-2.935-7.39,3.951-17.152,10.272-16.724C94.24,5.57,96.096,23.317,107.114,38.459C107.779,39.374,102.723,39.3,102.723,39.3
						L102.723,39.3L102.723,39.3z"/>
				</g>
			</g>
		</g>
		<path id="path4045" fill="#FCDD09" stroke="#000000" stroke-width="0.5" d="M171.239,49.899
			c-2.94,5.643-26.903,14.763-26.903,14.763s23.444,8.857,26.614,14.831l0.294,8.732c-11.942-16.218-23.767-17.71-32.997-18.201
			c-6.555-0.35-5.935,3.471-4.733,4.992c10.706,13.626-3.105,17.496-5.24,28.768c-0.103,0.561-1.711-1.915-2.228-5.176
			c-0.336-2.142,0.333-5.312,0.333-5.312c-4.758,7.923-10.805,1.584-14.502,9.449c0,0-0.767-1.244-1.153-1.618
			c-1.059-1.003-4.474-0.497-4.967-9.45c-0.02-0.306-3.907,0.714-3.907,0.714c2.159-7.409,21.074-15.642,16.152-20.451
			c-5.559-5.431-5.993,11.608-14.697,12.77c-0.499,0.064,1.294-4.934,1.294-4.934c-4.059,0.225-5.866,4.934-6.34,7.701l-0.953-2.567
			c-3.941-2.211,0.948-13.319-0.84-15.219c-1.397-1.482-6.052,4.623-8.083,5.616c-2.006,0.982-13.406,0.982-7.824,7.903
			c0.445,0.556-1.138-3.091,1.491-3.573c2.915-0.531,2.813,2.879,2.808,3.214c-0.025,1.425-2.608,4.88-6.661,2.923
			c-0.235-0.112-7.824-5.621,2.075-13.451c0,0-6.062,3.701-12.435-2.935c-1.363-1.42-3.199-3.214-5.408-4.59
			c2.204-1.38,3.815-3.047,5.178-4.471c6.355-6.65,12.421-2.98,12.421-2.98c-9.926-7.793-2.354-13.329-2.126-13.441
			c4.05-1.974,6.647,1.473,6.678,2.898c0.01,0.336,0.123,3.743-2.793,3.219c-2.633-0.472-1.066-4.117-1.51-3.563
			c-5.554,6.942,5.842,6.903,7.858,7.874c2.032,0.982,6.71,7.096,8.098,5.611c1.787-1.906-3.146-13.018,0.785-15.249l0.948-2.566
			c0.479,2.766,2.305,7.471,6.365,7.676c0,0-1.812-4.993-1.315-4.924c8.709,1.128,9.208,18.161,14.746,12.712
			c4.904-4.826-14.042-12.993-16.229-20.392c0,0,3.892,1.011,3.907,0.699c0.464-8.959,3.877-8.463,4.933-9.469
			c0.391-0.369,1.148-1.624,1.148-1.624c3.727,7.852,9.754,1.492,14.541,9.402c0,0-0.684-3.17-0.351-5.313
			c0.503-3.263,2.096-5.745,2.208-5.181c2.175,11.259,15.995,15.079,5.344,28.744c-1.192,1.526-1.798,5.352,4.753,4.978
			c9.226-0.526,21.051-2.066,32.93-18.322L171.239,49.899L171.239,49.899z"/>
		<path id="path4047" fill="none" stroke="#000000" stroke-width="0.5" d="M97.306,84.908c1.289-11.015,10.608-14.603,10.398-19.989
			c-0.219-5.391-9.627-11.025-10.691-20.232 M110.274,100.922c-7.35-15.215,16.239-20.286,15.464-35.992
			c-0.743-14.915-22.98-21.505-15.604-36.202 M144.054,64.764l-81.626,0.029"/>
		<path id="path4049" fill="#FCDD09" stroke="#000000" stroke-width="0.5" d="M136.614,139.914
			c-2.583-7.137-10.139-9.063-14.418-9.213c-4.815-0.164-12.332,6.365-16.923,9.213c-4.079,2.527-11.497-0.788-12.67-3.652
			c-2.618-6.402,1.505-7.632,3.463-7.258c0,0-2.423,4.613,1.622,4.021c2.549-0.369,3.169-4.128,2.749-5.639
			c-0.825-2.989-5.05-2.658-6.75-2.157c-5.494,1.619-4.576,9.265-2.749,12.197c2.715,4.356,9.51,5.027,13.838,4.393
			c6.544-0.954,11.932-7.71,15.843-7.544c1.037,0.045,2.096,3.627,1.076,3.812c-6.624,1.206-5.745,5.892-5.745,5.892v0.089
			c0,0-0.879,4.642,5.745,5.848c1.021,0.185-0.298,3.854-1.335,3.899c-3.911,0.164-9.04-6.68-15.584-7.632
			c-4.327-0.633-11.123,0.044-13.838,4.399c-1.827,2.93-2.744,10.579,2.749,12.192c1.701,0.501,5.926,0.831,6.75-2.153
			c0.42-1.511-0.2-5.269-2.749-5.643c-4.045-0.587-1.622,4.026-1.622,4.026c-1.96,0.373-6.082-0.856-3.463-7.258
			c1.173-2.864,8.591-6.184,12.67-3.652c4.591,2.844,12.108,9.377,16.923,9.207c4.279-0.151,11.834-2.076,14.418-9.207V139.914
			L136.614,139.914z"/>
		<path id="path4053" fill="#FCDD09" stroke="#000000" stroke-width="0.5" d="M169.793,135.232
			c-0.919,4.725-12.753,8.793-12.753,8.793s11.668,6.054,13.339,11.03l-0.293,5.726c-3.751-12.881-18.32-13.878-18.32-13.878
			c3.062,4.356,5.817,10.393-1.622,16.367c0,0,2.179-5.557,1.059-6.908c0,0-1.001,3.486-5.187,6.719
			c-1.745,1.352-6.38,1.122-8.504,2.367l1.812-5.663c-2.189,4.605-8.44,5.226-8.44,5.226c-0.361-1.571-0.175-5.396,1.75-8.339
			c3.623-5.537,2.749-9.459,2.749-9.459c-3.126,6.908-15.381,7.53-17.69,5.789c-0.318-0.237,2.749-3.237,2.749-3.237
			c-1.124,0.19-4.191-1.994-4.127-2.615c0.088-0.875,2.124-2.796,2.5-3.359c0,0-2.329-1.901-2.418-2.782
			c-0.058-0.623,3.004-2.796,4.127-2.609c0,0-3.062-2.999-2.749-3.239c2.311-1.739,14.564-1.118,17.695,5.79
			c0,0,0.876-3.924-2.754-9.461c-1.925-2.94-2.11-6.766-1.748-8.336c0,0,6.252,0.623,8.44,5.225l-1.812-5.663
			c2.124,1.244,6.759,1.017,8.502,2.364c4.186,3.237,5.188,6.722,5.188,6.722c1.118-1.346-1.061-6.908-1.061-6.908
			c7.438,5.975,4.689,12.008,1.627,16.364c0,0,14.564-0.992,18.315-13.874L169.793,135.232L169.793,135.232z"/>
		<path id="path4057" fill="#FCDD09" stroke="#000000" stroke-width="0.5" d="M100.868,145.557
			c-4.001,0.121-9.515,2.94-14.463,2.196c-3.585-0.54-10.047-4.768-10.047-4.768s6.501-3.358,9.754-4.107
			c5.289-1.216,10.628,3.402,14.628,3.485C101.541,142.378,101.668,145.533,100.868,145.557L100.868,145.557L100.868,145.557z"/>
		<path id="path4061" fill="#FCDD09" stroke="#000000" stroke-width="0.5" d="M100.971,137.512c2.226-0.501,1.769,6.345,1.769,6.345
			c0,0.952,0.293,5.973-1.769,6.387c-2.355-0.286-1.73-6.426-1.73-6.426S98.987,137.43,100.971,137.512L100.971,137.512
			L100.971,137.512z"/>
		<path id="path4063" fill="#FCDD09" stroke="#000000" stroke-width="0.5" d="M115.911,143.772l41.383,0.287 M139.037,160.447
			l5.92-16.509 M144.957,143.938l-5.793-16.222"/>
		<path id="path4065" fill="#FCDD09" stroke="#000000" stroke-width="0.5" d="M171.044,350.691
			c-4.064-10.953-18.947-9.772-18.947-9.772s14.82,0.127,18.57-12.756L171.044,350.691z"/>
		<path id="path4069" fill="#FCDD09" stroke="#000000" stroke-width="0.5" d="M171.044,416.395
			c-4.064,10.951-18.947,9.77-18.947,9.77s14.82-0.126,18.57,12.756L171.044,416.395z"/>
		<path id="path4073" fill="#FCDD09" stroke="#000000" stroke-width="0.5" d="M136.897,426.476c0,0,6.096,4.851,10.154,3.919
			c0,0-4.689,4.545-0.81,8.089c0,0,1.192-4.667,6.813-5.538c4.728-0.729,6.641-4.609,6.565-6.47v0.064
			c0.078-1.862-1.837-5.74-6.565-6.47c-5.627-0.875-6.813-5.537-6.813-5.537c-3.873,3.543,0.81,8.089,0.81,8.089
			C142.993,421.684,136.897,426.478,136.897,426.476L136.897,426.476L136.897,426.476z"/>
		<path id="path4077" fill="#FCDD09" stroke="#000000" stroke-width="0.5" d="M170.54,255.61
			c-4.064,10.953-18.941,9.772-18.941,9.772s14.813-0.127,18.564,12.756L170.54,255.61z"/>
		<path id="path4081" fill="#FCDD09" stroke="#000000" stroke-width="0.5" d="M171.044,191.893
			c-4.064-10.953-18.947-9.77-18.947-9.77s14.82,0.126,18.57-12.751L171.044,191.893z"/>
		<path id="path4085" fill="#FCDD09" stroke="#000000" stroke-width="0.5" d="M171.044,95.822
			c-4.064,10.953-18.947,9.767-18.947,9.767s14.82-0.122,18.57,12.756L171.044,95.822z"/>
		<path id="path4089" fill="#FCDD09" stroke="#000000" stroke-width="0.5" d="M171.044,32.602
			c-4.064-10.953-18.947-9.77-18.947-9.77s14.82,0.126,18.57-12.751L171.044,32.602z"/>
		<g id="rect4093">
			<rect x="170.041" y="0.249" fill="#FCDD09" width="5.502" height="449.502"/>
			<g>
				<path d="M175.293,0.498v449.004h-5.002V0.498H175.293 M175.793,0h-0.5h-5.002h-0.5v0.498v449.004V450h0.5h5.002h0.5v-0.498
					V0.498V0L175.793,0z"/>
			</g>
		</g>
		<path id="path4105" fill="#FCDD09" stroke="#000000" stroke-width="0.5" d="M137.23,340.195c0,0,6.096,4.851,10.159,3.919
			c0,0-4.689,4.545-0.812,8.089c0,0,1.187-4.667,6.813-5.538c4.724-0.729,6.637-4.608,6.564-6.47v0.064
			c0.074-1.862-1.841-5.74-6.564-6.475c-5.627-0.87-6.813-5.537-6.813-5.537c-3.877,3.548,0.812,8.089,0.812,8.089
			C143.326,335.402,137.23,340.195,137.23,340.195L137.23,340.195L137.23,340.195z"/>
		<path id="path4109" fill="#FCDD09" stroke="#000000" stroke-width="0.5" d="M136.897,265.527c0,0,6.096,4.851,10.159,3.919
			c0,0-4.689,4.545-0.815,8.089c0,0,1.192-4.667,6.818-5.538c4.723-0.729,6.636-4.609,6.56-6.47v0.064
			c0.078-1.862-1.837-5.74-6.56-6.47c-5.627-0.875-6.818-5.542-6.818-5.542c-3.873,3.548,0.815,8.089,0.815,8.089
			C142.993,260.735,136.897,265.527,136.897,265.527L136.897,265.527L136.897,265.527z"/>
		<path id="path4113" fill="#FCDD09" stroke="#000000" stroke-width="0.5" d="M137.23,182.231c0,0,6.096,4.85,10.159,3.918
			c0,0-4.689,4.545-0.812,8.089c0,0,1.187-4.667,6.813-5.537c4.724-0.729,6.637-4.609,6.564-6.47v0.063
			c0.074-1.862-1.841-5.74-6.564-6.475c-5.627-0.87-6.813-5.537-6.813-5.537c-3.877,3.549,0.812,8.089,0.812,8.089
			C143.326,177.437,137.23,182.231,137.23,182.231L137.23,182.231L137.23,182.231z"/>
		<path id="path4117" fill="#FCDD09" stroke="#000000" stroke-width="0.5" d="M137.23,105.569c0,0,6.096,4.85,10.159,3.918
			c0,0-4.689,4.546-0.812,8.089c0,0,1.187-4.667,6.813-5.537c4.724-0.729,6.637-4.609,6.564-6.47v0.064
			c0.074-1.862-1.841-5.74-6.564-6.47c-5.627-0.876-6.813-5.538-6.813-5.538c-3.877,3.544,0.812,8.089,0.812,8.089
			C143.326,100.775,137.23,105.569,137.23,105.569L137.23,105.569L137.23,105.569z"/>
		<path id="path4121" fill="#FCDD09" stroke="#000000" stroke-width="0.5" d="M137.562,22.604c0,0,6.096,4.855,10.159,3.923
			c0,0-4.689,4.541-0.81,8.089c0,0,1.187-4.667,6.813-5.537c4.723-0.734,6.644-4.609,6.565-6.47v0.059
			c0.074-1.862-1.842-5.74-6.565-6.47c-5.627-0.871-6.813-5.538-6.813-5.538c-3.878,3.544,0.81,8.089,0.81,8.089
			C143.657,17.814,137.562,22.604,137.562,22.604L137.562,22.604L137.562,22.604z"/>
	</g>
	<g id="perles">
		<path id="path3961" fill="#FFFFFF" stroke="#000000" stroke-width="0.25" stroke-miterlimit="10" d="M206.41,424.279
			c0,4.122-3.356,7.467-7.502,7.467c-4.142,0-7.502-3.346-7.502-7.467c0-4.128,3.359-7.467,7.502-7.467
			C203.054,416.813,206.41,420.152,206.41,424.279L206.41,424.279z"/>
		<path id="path3965" fill="#FFFFFF" stroke="#000000" stroke-width="0.25" stroke-miterlimit="10" d="M206.41,324.722
			c0,4.122-3.356,7.467-7.502,7.467c-4.142,0-7.502-3.346-7.502-7.467c0-4.123,3.359-7.467,7.502-7.467
			C203.054,317.256,206.41,320.6,206.41,324.722L206.41,324.722z"/>
		<path id="path3969" fill="#FFFFFF" stroke="#000000" stroke-width="0.25" stroke-miterlimit="10" d="M206.41,225.165
			c0,4.122-3.356,7.466-7.502,7.466c-4.142,0-7.502-3.346-7.502-7.466c0-4.123,3.359-7.466,7.502-7.466
			C203.054,217.697,206.41,221.043,206.41,225.165L206.41,225.165z"/>
		<path id="path3973" fill="#FFFFFF" stroke="#000000" stroke-width="0.25" stroke-miterlimit="10" d="M206.41,125.608
			c0,4.122-3.356,7.466-7.502,7.466c-4.142,0-7.502-3.346-7.502-7.466c0-4.123,3.359-7.466,7.502-7.466
			C203.054,118.14,206.41,121.485,206.41,125.608L206.41,125.608z"/>
		<path id="path3977" fill="#FFFFFF" stroke="#000000" stroke-width="0.25" stroke-miterlimit="10" d="M206.41,26.05
			c0,4.127-3.356,7.466-7.502,7.466c-4.142,0-7.502-3.341-7.502-7.466c0-4.123,3.359-7.466,7.502-7.466
			C203.054,18.582,206.41,21.927,206.41,26.05L206.41,26.05z"/>
		<g>
			<polygon id="polygon4165" fill="#FCDD09" stroke="#000000" stroke-width="0.25" stroke-miterlimit="10" points="186.463,76.25 
				198.882,63.884 211.299,76.25 198.882,88.613 			"/>
			<polygon id="polygon4169" fill="#DA121A" stroke="#000000" stroke-width="0.25" stroke-miterlimit="10" points="187.376,76.339 
				191.122,80.067 195.044,80.067 195.044,83.971 198.795,87.699 198.966,87.699 202.717,83.971 202.717,80.067 206.639,80.067 
				210.385,76.339 210.385,76.163 206.639,72.435 202.717,72.435 202.717,68.531 198.966,64.798 198.795,64.798 195.044,68.531 
				195.044,72.435 191.122,72.435 187.376,76.163 			"/>
			<path id="path4173" fill="#FCDD09" stroke="#000000" stroke-width="0.25" stroke-miterlimit="10" d="M193.667,66.397
				c0.563,0.561-0.029,2.052-1.318,3.335c-1.291,1.278-2.784,1.867-3.346,1.308c-0.562-0.56,0.034-2.048,1.32-3.331
				C191.611,66.432,193.105,65.842,193.667,66.397L193.667,66.397L193.667,66.397z"/>
			<path id="path4177" fill="#FCDD09" stroke="#000000" stroke-width="0.25" stroke-miterlimit="10" d="M204.114,66.397
				c-0.562,0.561,0.029,2.052,1.318,3.335c1.291,1.278,2.784,1.867,3.346,1.308c0.562-0.56-0.029-2.048-1.318-3.331
				C206.17,66.432,204.671,65.842,204.114,66.397L204.114,66.397z"/>
			<path id="path4181" fill="#FCDD09" stroke="#000000" stroke-width="0.25" stroke-miterlimit="10" d="M204.114,86.076
				c-0.562-0.555,0.029-2.048,1.318-3.331c1.291-1.283,2.789-1.872,3.346-1.316c0.562,0.56-0.029,2.05-1.318,3.334
				C206.17,86.048,204.671,86.634,204.114,86.076L204.114,86.076z"/>
			<path id="path4185" fill="#FCDD09" stroke="#000000" stroke-width="0.25" stroke-miterlimit="10" d="M193.672,86.081
				c-0.562,0.56-2.06-0.03-3.349-1.318c-1.286-1.283-1.876-2.776-1.32-3.331c0.562-0.555,2.061,0.035,3.346,1.318
				C193.638,84.034,194.229,85.527,193.672,86.081L193.672,86.081z"/>
			<path id="path4189" fill="#FCDD09" stroke="#000000" stroke-width="0.25" stroke-miterlimit="10" d="M194.956,62.159
				c0-0.641,1.446-1.23,3.111-1.39c0.336-0.034,0.815-0.447,0.815-0.447s0.484,0.422,0.743,0.447
				c1.797,0.131,3.233,0.719,3.233,1.39c0,0.773-1.768,1.395-3.951,1.395C196.73,63.554,194.956,62.931,194.956,62.159
				L194.956,62.159z"/>
			<path id="path4193" fill="#FCDD09" stroke="#000000" stroke-width="0.25" stroke-miterlimit="10" d="M202.86,90.344
				c0,0.636-1.441,1.23-3.111,1.395c-0.338,0.029-0.817,0.442-0.817,0.442s-0.483-0.423-0.738-0.442
				c-1.802-0.137-3.237-0.724-3.237-1.395c0-0.773,1.773-1.395,3.956-1.395C201.091,88.949,202.86,89.572,202.86,90.344
				L202.86,90.344z"/>
			<path id="path4197" fill="#FCDD09" stroke="#000000" stroke-width="0.25" stroke-miterlimit="10" d="M184.749,80.189
				c-0.645,0-1.237-1.444-1.398-3.101c-0.034-0.335-0.444-0.811-0.444-0.811s0.425-0.477,0.444-0.734
				c0.128-1.793,0.719-3.224,1.398-3.224c0.777,0,1.402,1.764,1.402,3.933C186.15,78.423,185.525,80.189,184.749,80.189
				L184.749,80.189L184.749,80.189z"/>
			<path id="path4201" fill="#FCDD09" stroke="#000000" stroke-width="0.25" stroke-miterlimit="10" d="M213.067,72.318
				c0.645,0,1.236,1.44,1.402,3.097c0.034,0.335,0.445,0.811,0.445,0.811s-0.425,0.477-0.445,0.734
				c-0.131,1.793-0.723,3.224-1.402,3.224c-0.772,0-1.397-1.759-1.397-3.934C211.671,74.078,212.295,72.318,213.067,72.318
				L213.067,72.318L213.067,72.318z"/>
		</g>
		<g>
			<path id="path4205" fill="#FCDD09" stroke="#000000" stroke-width="0.25" stroke-miterlimit="10" d="M196.661,192.478
				c0,1.235,1.007,2.236,2.248,2.236s2.253-1.003,2.253-2.236c0-1.239-1.012-2.236-2.253-2.236
				C197.668,190.241,196.661,191.238,196.661,192.478L196.661,192.478z"/>
			<path id="path4209" fill="#FCDD09" stroke="#000000" stroke-width="0.25" stroke-miterlimit="10" d="M196.661,157.38
				c0,1.235,1.007,2.236,2.248,2.236s2.253-1.003,2.253-2.236s-1.012-2.236-2.253-2.236
				C197.668,155.143,196.661,156.146,196.661,157.38L196.661,157.38z"/>
			<path id="path4213" fill="#FCDD09" stroke="#000000" stroke-width="0.25" stroke-miterlimit="10" d="M207.236,174.976
				c0,8.148-3.741,14.749-8.357,14.749c-4.615,0-8.361-6.602-8.361-14.749c0-8.147,3.746-14.752,8.361-14.752
				C203.494,160.224,207.236,166.831,207.236,174.976L207.236,174.976z"/>
			<path id="path4217" fill="#078930" stroke="#000000" stroke-width="0.25" stroke-miterlimit="10" d="M205.926,174.836
				c0-6.962-2.754-12.683-6.286-13.368c-0.235-0.049-0.733,0.875-0.733,0.875s-0.469-0.919-0.709-0.875
				c-3.526,0.699-6.276,6.416-6.276,13.368c0,0.02,0,0.044,0,0.069c0,0.029,0,0.049,0,0.073c0,6.962,2.754,12.684,6.286,13.369
				c0.24,0.044,0.738-0.875,0.738-0.875s0.469,0.919,0.708,0.87c3.527-0.695,6.272-6.413,6.272-13.364c0-0.024,0-0.044,0-0.073
				C205.926,174.879,205.926,174.856,205.926,174.836L205.926,174.836L205.926,174.836z"/>
			<path id="path4221" fill="#FCDD09" stroke="#000000" stroke-width="0.25" stroke-miterlimit="10" d="M209.867,174.976
				c0-0.617-0.503-1.122-1.123-1.122s-1.124,0.501-1.124,1.122c0,0.619,0.504,1.118,1.124,1.118
				C209.365,176.096,209.867,175.596,209.867,174.976L209.867,174.976z"/>
			<path id="path4225" fill="#FCDD09" stroke="#000000" stroke-width="0.25" stroke-miterlimit="10" d="M190.13,174.976
				c0-0.617-0.503-1.122-1.128-1.122c-0.62,0-1.124,0.501-1.124,1.122c0,0.619,0.504,1.118,1.124,1.118
				C189.627,176.096,190.13,175.596,190.13,174.976L190.13,174.976z"/>
			<path id="path4229" fill="#FCDD09" stroke="#000000" stroke-width="0.25" stroke-miterlimit="10" d="M206.073,188.004
				c0-0.623-0.503-1.122-1.123-1.122s-1.124,0.501-1.124,1.122c0,0.617,0.504,1.118,1.124,1.118
				C205.57,189.124,206.073,188.623,206.073,188.004L206.073,188.004z"/>
			<path id="path4233" fill="#FCDD09" stroke="#000000" stroke-width="0.25" stroke-miterlimit="10" d="M193.92,188.004
				c0-0.623-0.503-1.122-1.123-1.122s-1.123,0.501-1.123,1.122c0,0.617,0.503,1.118,1.123,1.118
				C193.418,189.124,193.92,188.623,193.92,188.004L193.92,188.004z"/>
			<path id="path4237" fill="#FCDD09" stroke="#000000" stroke-width="0.25" stroke-miterlimit="10" d="M190.902,181.783
				c0-1.239-1.006-2.241-2.246-2.241c-1.247,0-2.253,1.003-2.253,2.241c0,1.235,1.006,2.236,2.253,2.236
				C189.896,184.019,190.902,183.017,190.902,181.783L190.902,181.783z"/>
			<path id="path4241" fill="#FCDD09" stroke="#000000" stroke-width="0.25" stroke-miterlimit="10" d="M211.412,181.71
				c0-1.236-1.007-2.236-2.248-2.236s-2.248,1.001-2.248,2.236c0,1.235,1.007,2.235,2.248,2.235S211.412,182.945,211.412,181.71
				L211.412,181.71z"/>
			<path id="path4245" fill="#FCDD09" stroke="#000000" stroke-width="0.25" stroke-miterlimit="10" d="M191.742,161.853
				c0,0.623,0.504,1.122,1.129,1.122c0.62,0,1.123-0.501,1.123-1.122c0-0.619-0.503-1.119-1.123-1.119
				C192.246,160.735,191.742,161.234,191.742,161.853L191.742,161.853z"/>
			<path id="path4249" fill="#FCDD09" stroke="#000000" stroke-width="0.25" stroke-miterlimit="10" d="M203.894,161.853
				c0,0.623,0.503,1.122,1.123,1.122c0.625,0,1.129-0.501,1.129-1.122c0-0.619-0.504-1.119-1.129-1.119
				C204.397,160.735,203.894,161.234,203.894,161.853L203.894,161.853z"/>
			<path id="path4253" fill="#FCDD09" stroke="#000000" stroke-width="0.25" stroke-miterlimit="10" d="M206.918,168.074
				c0,1.239,1.007,2.24,2.248,2.24s2.248-1.001,2.248-2.24c0-1.236-1.007-2.236-2.248-2.236S206.918,166.839,206.918,168.074
				L206.918,168.074z"/>
			<path id="path4257" fill="#FCDD09" stroke="#000000" stroke-width="0.25" stroke-miterlimit="10" d="M186.404,168.147
				c0,1.235,1.006,2.236,2.253,2.236c1.241,0,2.246-1.003,2.246-2.236c0-1.235-1.006-2.236-2.246-2.236
				C187.41,165.911,186.404,166.912,186.404,168.147L186.404,168.147z"/>
		</g>
		<g>
			<path id="path4261" fill="#FCDD09" stroke="#000000" stroke-width="0.25" d="M196.661,390c0,1.24,1.007,2.241,2.248,2.241
				s2.253-1.003,2.253-2.241c0-1.234-1.012-2.236-2.253-2.236C197.668,387.764,196.661,388.765,196.661,390L196.661,390z"/>
			<path id="path4265" fill="#FCDD09" stroke="#000000" stroke-width="0.25" d="M196.661,354.907c0,1.234,1.007,2.236,2.248,2.236
				s2.253-1.003,2.253-2.236c0-1.24-1.012-2.236-2.253-2.236C197.668,352.671,196.661,353.668,196.661,354.907L196.661,354.907z"/>
			<path id="path4269" fill="#FCDD09" stroke="#000000" stroke-width="0.25" d="M207.236,372.5c0,8.148-3.741,14.752-8.357,14.752
				c-4.615,0-8.361-6.606-8.361-14.752c0-8.147,3.746-14.749,8.361-14.749C203.494,357.751,207.236,364.353,207.236,372.5
				L207.236,372.5z"/>
			<path id="path4273" fill="#078930" stroke="#000000" stroke-width="0.25" d="M205.926,372.358c0-6.956-2.754-12.678-6.286-13.363
				c-0.235-0.049-0.733,0.875-0.733,0.875s-0.469-0.918-0.709-0.875c-3.526,0.7-6.276,6.417-6.276,13.363c0,0.025,0,0.05,0,0.074
				c0,0.025,0,0.049,0,0.074c0,6.957,2.754,12.678,6.286,13.368c0.235,0.044,0.738-0.875,0.738-0.875s0.469,0.919,0.708,0.87
				c3.522-0.695,6.272-6.417,6.272-13.363c0-0.025,0-0.049,0-0.074C205.926,372.408,205.926,372.383,205.926,372.358
				L205.926,372.358L205.926,372.358z"/>
			<path id="path4277" fill="#FCDD09" stroke="#000000" stroke-width="0.25" d="M209.867,372.505c0-0.617-0.503-1.123-1.123-1.123
				s-1.124,0.507-1.124,1.123s0.504,1.118,1.124,1.118C209.365,373.622,209.867,373.123,209.867,372.505L209.867,372.505z"/>
			<path id="path4281" fill="#FCDD09" stroke="#000000" stroke-width="0.25" d="M190.13,372.505c0-0.617-0.503-1.123-1.128-1.123
				c-0.62,0-1.124,0.507-1.124,1.123s0.504,1.118,1.124,1.118C189.627,373.622,190.13,373.123,190.13,372.505L190.13,372.505z"/>
			<path id="path4285" fill="#FCDD09" stroke="#000000" stroke-width="0.25" d="M206.073,385.529c0-0.619-0.503-1.118-1.123-1.118
				s-1.124,0.501-1.124,1.118s0.504,1.118,1.124,1.118C205.57,386.646,206.073,386.146,206.073,385.529L206.073,385.529z"/>
			<path id="path4289" fill="#FCDD09" stroke="#000000" stroke-width="0.25" d="M193.92,385.529c0-0.619-0.503-1.118-1.123-1.118
				s-1.123,0.501-1.123,1.118s0.503,1.118,1.123,1.118C193.418,386.646,193.92,386.146,193.92,385.529L193.92,385.529z"/>
			<path id="path4293" fill="#FCDD09" stroke="#000000" stroke-width="0.25" d="M190.902,379.306c0-1.236-1.006-2.236-2.246-2.236
				c-1.247,0-2.253,1.001-2.253,2.236c0,1.239,1.006,2.235,2.253,2.235C189.896,381.541,190.902,380.546,190.902,379.306
				L190.902,379.306z"/>
			<path id="path4297" fill="#FCDD09" stroke="#000000" stroke-width="0.25" d="M211.412,379.238c0-1.235-1.007-2.236-2.248-2.236
				s-2.248,1.003-2.248,2.236c0,1.234,1.007,2.236,2.248,2.236S211.412,380.472,211.412,379.238L211.412,379.238z"/>
			<path id="path4301" fill="#FCDD09" stroke="#000000" stroke-width="0.25" d="M191.742,359.38c0,0.617,0.504,1.118,1.129,1.118
				c0.62,0,1.123-0.501,1.123-1.118c0-0.617-0.503-1.119-1.123-1.119C192.246,358.26,191.742,358.762,191.742,359.38L191.742,359.38
				z"/>
			<path id="path4305" fill="#FCDD09" stroke="#000000" stroke-width="0.25" d="M203.894,359.38c0,0.617,0.503,1.118,1.123,1.118
				c0.625,0,1.129-0.501,1.129-1.118c0-0.617-0.504-1.119-1.129-1.119C204.397,358.26,203.894,358.762,203.894,359.38
				L203.894,359.38z"/>
			<path id="path4309" fill="#FCDD09" stroke="#000000" stroke-width="0.25" d="M206.918,365.602c0,1.235,1.007,2.236,2.248,2.236
				s2.248-1.003,2.248-2.236c0-1.234-1.007-2.236-2.248-2.236S206.918,364.368,206.918,365.602L206.918,365.602z"/>
			<path id="path4313" fill="#FCDD09" stroke="#000000" stroke-width="0.25" d="M186.404,365.674c0,1.236,1.006,2.236,2.253,2.236
				c1.241,0,2.246-1.001,2.246-2.236c0-1.24-1.006-2.235-2.246-2.235C187.41,363.439,186.404,364.435,186.404,365.674
				L186.404,365.674z"/>
		</g>
		<g>
			<polygon id="rect4125" fill="#FCDD09" stroke="#000000" stroke-width="0.25" points="211.316,275.091 198.895,287.452 
				186.477,275.093 198.896,262.731 			"/>
			<polygon id="polygon4129" fill="#DA121A" stroke="#000000" stroke-width="0.25" stroke-miterlimit="10" points="187.376,275.288 
				191.122,279.017 195.049,279.017 195.049,282.921 198.795,286.649 198.971,286.649 202.717,282.921 202.717,279.017 
				206.639,279.017 210.385,275.288 210.385,275.108 206.639,271.385 202.717,271.385 202.717,267.481 198.971,263.747 
				198.795,263.747 195.049,267.481 195.049,271.385 191.122,271.385 187.376,275.113 			"/>
			<path id="path4133" fill="#FCDD09" stroke="#000000" stroke-width="0.25" d="M193.662,265.353
				c0.563,0.56-0.029,2.047-1.318,3.329c-1.286,1.284-2.784,1.872-3.346,1.313c-0.562-0.555,0.029-2.048,1.32-3.33
				C191.606,265.381,193.105,264.793,193.662,265.353L193.662,265.353L193.662,265.353z"/>
			<path id="path4137" fill="#FCDD09" stroke="#000000" stroke-width="0.25" d="M204.099,265.347
				c0.562-0.56,2.057,0.029,3.346,1.311c1.289,1.284,1.881,2.777,1.323,3.33c-0.562,0.56-2.06-0.029-3.349-1.313
				C204.129,267.394,203.537,265.906,204.099,265.347L204.099,265.347L204.099,265.347z"/>
			<path id="path4141" fill="#FCDD09" stroke="#000000" stroke-width="0.25" d="M204.089,285.029
				c-0.556-0.56,0.035-2.05,1.324-3.335c1.284-1.283,2.783-1.872,3.346-1.311c0.556,0.554-0.035,2.047-1.324,3.329
				C206.147,284.996,204.651,285.584,204.089,285.029L204.089,285.029z"/>
			<path id="path4145" fill="#FCDD09" stroke="#000000" stroke-width="0.25" d="M193.687,285.035
				c-0.562,0.554-2.06-0.034-3.351-1.318c-1.284-1.283-1.876-2.776-1.318-3.329c0.562-0.561,2.061,0.029,3.349,1.311
				C193.653,282.984,194.242,284.477,193.687,285.035L193.687,285.035z"/>
			<path id="path4149" fill="#FCDD09" stroke="#000000" stroke-width="0.25" d="M194.956,261.108c0-0.641,1.446-1.229,3.111-1.395
				c0.336-0.029,0.815-0.442,0.815-0.442s0.484,0.423,0.743,0.442c1.797,0.132,3.233,0.719,3.233,1.395
				c0,0.769-1.768,1.395-3.951,1.395C196.73,262.503,194.956,261.877,194.956,261.108L194.956,261.108z"/>
			<path id="path4153" fill="#FCDD09" stroke="#000000" stroke-width="0.25" d="M202.86,289.293c0,0.636-1.441,1.23-3.111,1.39
				c-0.338,0.034-0.817,0.442-0.817,0.442s-0.483-0.422-0.738-0.442c-1.802-0.131-3.237-0.719-3.237-1.39
				c0-0.773,1.773-1.395,3.956-1.395C201.091,287.898,202.86,288.521,202.86,289.293L202.86,289.293z"/>
			<path id="path4157" fill="#FCDD09" stroke="#000000" stroke-width="0.25" d="M184.749,279.134c-0.645,0-1.237-1.439-1.398-3.097
				c-0.034-0.335-0.444-0.811-0.444-0.811s0.425-0.482,0.444-0.734c0.128-1.793,0.719-3.224,1.398-3.224
				c0.777,0,1.402,1.764,1.402,3.934C186.15,277.374,185.525,279.134,184.749,279.134L184.749,279.134L184.749,279.134z"/>
			<path id="path4161" fill="#FCDD09" stroke="#000000" stroke-width="0.25" d="M213.067,271.267c0.645,0,1.236,1.436,1.402,3.097
				c0.034,0.335,0.445,0.811,0.445,0.811s-0.425,0.477-0.445,0.734c-0.131,1.793-0.723,3.224-1.402,3.224
				c-0.772,0-1.397-1.764-1.397-3.933C211.671,273.029,212.295,271.267,213.067,271.267L213.067,271.267L213.067,271.267z"/>
		</g>
	</g>
</g>
</svg>
